<svg width="1440" height="1024" viewBox="0 0 1440 1024" fill="none" xmlns="http://www.w3.org/2000/svg">
<rect width="1440" height="1024" fill="url(#paint0_linear_62_9179)"/>
<g filter="url(#filter0_d_62_9179)">
<rect x="434" y="150" width="566" height="568" rx="8" fill="white" shape-rendering="crispEdges"/>
<path d="M578.133 246C589.012 246 595.934 240.574 595.934 231.704V230.922H587.242V231.704C587.242 236.296 584.639 238.487 578.29 238.487C570.638 238.487 567.776 235.774 567.776 228C567.776 220.226 570.638 217.513 578.29 217.513C584.639 217.513 587.242 219.704 587.242 224.296V225.078H595.934V224.296C595.934 215.426 588.959 210 578.133 210C566.631 210 559.5 217.096 559.5 228C559.5 238.904 566.631 246 578.133 246Z" fill="url(#paint1_linear_62_9179)"/>
<path d="M613.214 246C622.114 246 628.1 240.678 628.1 232.435C628.1 224.087 622.114 218.817 613.214 218.817C604.314 218.817 598.328 224.087 598.328 232.435C598.328 240.678 604.314 246 613.214 246ZM613.214 239.061C607.905 239.061 606.083 237.026 606.083 232.435C606.083 227.843 607.905 225.704 613.214 225.704C618.471 225.704 620.345 227.843 620.345 232.435C620.345 237.026 618.471 239.061 613.214 239.061Z" fill="url(#paint2_linear_62_9179)"/>
<path d="M642.062 246C648.933 246 652.108 241.878 652.784 237.496H653.201V245.478H660.488V219.339H652.68V232.591C652.68 237.026 650.859 239.009 645.758 239.009C640.813 239.009 639.044 237.235 639.044 233.009V219.339H631.236V235.617C631.236 241.461 634.724 246 642.062 246Z" fill="url(#paint3_linear_62_9179)"/>
<path d="M672.287 245.478V230.348C672.287 227.061 673.536 225.443 677.023 225.443C680.198 225.443 681.343 226.696 681.343 229.565V232.278H689.151V227.948C689.151 222.835 686.756 218.817 680.927 218.817C675.67 218.817 672.911 222.052 672.183 226.278H671.714V219.339H664.48V245.478H672.287Z" fill="url(#paint4_linear_62_9179)"/>
<path d="M705.146 246C713.214 246 718.054 242.765 718.054 237.861C718.054 233.53 715.452 231.183 708.477 230.4L702.908 229.722C699.473 229.304 698.744 228.73 698.744 227.374C698.744 225.704 699.733 225.026 703.637 225.026C708.425 225.026 709.466 226.122 709.466 228.261V228.574H717.273V228.417C717.273 222.052 712.433 218.817 703.897 218.817C694.945 218.817 691.041 222.47 691.041 227.061C691.041 231.443 693.956 233.791 699.161 234.365L706.499 235.252C709.57 235.67 710.351 236.087 710.351 237.548C710.351 239.113 709.362 239.791 705.198 239.791C700.774 239.791 699.317 239.165 699.317 236.817V236.348H691.509V236.504C691.509 242.557 696.35 246 705.146 246Z" fill="url(#paint5_linear_62_9179)"/>
<path d="M735.049 246C743.325 246 748.842 242.035 748.842 236.348V235.774H741.035V236.296C741.035 238.539 739.421 239.739 734.789 239.739C729.74 239.739 727.867 238.017 727.658 234H748.894C748.998 233.113 749.102 232.435 749.102 231.496C749.102 223.304 743.429 218.817 734.893 218.817C726.305 218.817 720.424 224.087 720.424 232.435C720.424 241.722 726.357 246 735.049 246ZM734.737 224.922C739.317 224.922 741.399 226.435 741.607 229.878H727.762C728.127 226.487 730.105 224.922 734.737 224.922Z" fill="url(#paint6_linear_62_9179)"/>
<path d="M760.22 245.478V232.435H781.144V225.443H760.22V217.565H781.925V210.522H752.413V245.478H760.22Z" fill="url(#paint7_linear_62_9179)"/>
<path d="M793.056 245.478V210.522H785.248V245.478H793.056Z" fill="url(#paint8_linear_62_9179)"/>
<path d="M811.039 246C819.94 246 825.925 240.678 825.925 232.435C825.925 224.087 819.94 218.817 811.039 218.817C802.139 218.817 796.153 224.087 796.153 232.435C796.153 240.678 802.139 246 811.039 246ZM811.039 239.061C805.73 239.061 803.909 237.026 803.909 232.435C803.909 227.843 805.73 225.704 811.039 225.704C816.296 225.704 818.17 227.843 818.17 232.435C818.17 237.026 816.296 239.061 811.039 239.061Z" fill="url(#paint9_linear_62_9179)"/>
<path d="M843.895 245.478L848.424 232.904L850.401 225.704H850.974L852.9 232.904L857.376 245.478H867.109L874.5 219.339H866.537L863.518 231.287L862.373 239.426H861.852L859.77 230.504L855.867 219.339H845.821L841.866 230.504L839.784 239.426H839.263L838.17 231.287L835.099 219.339H827.032L834.162 245.478H843.895Z" fill="url(#paint10_linear_62_9179)"/>
<path d="M607.063 293.192C606.679 293.192 606.367 293.104 606.127 292.928C605.903 292.752 605.767 292.52 605.719 292.232C605.671 291.928 605.727 291.592 605.887 291.224L612.223 277.184C612.431 276.72 612.679 276.392 612.967 276.2C613.271 275.992 613.615 275.888 613.999 275.888C614.367 275.888 614.695 275.992 614.983 276.2C615.287 276.392 615.543 276.72 615.751 277.184L622.111 291.224C622.287 291.592 622.351 291.928 622.303 292.232C622.255 292.536 622.119 292.776 621.895 292.952C621.671 293.112 621.375 293.192 621.007 293.192C620.559 293.192 620.207 293.088 619.951 292.88C619.711 292.656 619.495 292.32 619.303 291.872L617.743 288.248L619.039 289.088H608.911L610.207 288.248L608.671 291.872C608.463 292.336 608.247 292.672 608.023 292.88C607.799 293.088 607.479 293.192 607.063 293.192ZM613.951 279.416L610.591 287.408L609.967 286.64H617.983L617.383 287.408L613.999 279.416H613.951ZM628.381 293.24C627.357 293.24 626.453 292.992 625.669 292.496C624.901 292 624.301 291.296 623.869 290.384C623.437 289.456 623.221 288.368 623.221 287.12C623.221 285.856 623.437 284.776 623.869 283.88C624.301 282.968 624.901 282.264 625.669 281.768C626.453 281.272 627.357 281.024 628.381 281.024C629.357 281.024 630.205 281.264 630.925 281.744C631.661 282.224 632.157 282.856 632.413 283.64H632.149V277.4C632.149 276.904 632.277 276.528 632.533 276.272C632.789 276.016 633.157 275.888 633.637 275.888C634.117 275.888 634.485 276.016 634.741 276.272C635.013 276.528 635.149 276.904 635.149 277.4V291.656C635.149 292.152 635.021 292.536 634.765 292.808C634.509 293.064 634.141 293.192 633.661 293.192C633.181 293.192 632.813 293.064 632.557 292.808C632.301 292.536 632.173 292.152 632.173 291.656V289.784L632.437 290.504C632.197 291.336 631.709 292 630.973 292.496C630.237 292.992 629.373 293.24 628.381 293.24ZM629.221 290.96C629.813 290.96 630.333 290.816 630.781 290.528C631.229 290.24 631.573 289.816 631.813 289.256C632.069 288.68 632.197 287.968 632.197 287.12C632.197 285.84 631.925 284.888 631.381 284.264C630.837 283.624 630.117 283.304 629.221 283.304C628.629 283.304 628.109 283.448 627.661 283.736C627.213 284.008 626.861 284.432 626.605 285.008C626.365 285.568 626.245 286.272 626.245 287.12C626.245 288.384 626.517 289.344 627.061 290C627.605 290.64 628.325 290.96 629.221 290.96ZM639.315 293.192C638.835 293.192 638.467 293.064 638.211 292.808C637.955 292.536 637.827 292.152 637.827 291.656V282.584C637.827 282.088 637.955 281.712 638.211 281.456C638.467 281.2 638.827 281.072 639.291 281.072C639.755 281.072 640.115 281.2 640.371 281.456C640.627 281.712 640.755 282.088 640.755 282.584V284.336L640.491 283.616C640.811 282.816 641.307 282.184 641.979 281.72C642.651 281.256 643.451 281.024 644.379 281.024C645.323 281.024 646.099 281.248 646.707 281.696C647.315 282.144 647.739 282.832 647.979 283.76H647.643C647.963 282.912 648.491 282.248 649.227 281.768C649.963 281.272 650.811 281.024 651.771 281.024C652.667 281.024 653.403 281.2 653.979 281.552C654.571 281.904 655.011 282.44 655.299 283.16C655.587 283.864 655.731 284.76 655.731 285.848V291.656C655.731 292.152 655.595 292.536 655.323 292.808C655.067 293.064 654.699 293.192 654.219 293.192C653.739 293.192 653.371 293.064 653.115 292.808C652.859 292.536 652.731 292.152 652.731 291.656V285.968C652.731 285.072 652.579 284.416 652.275 284C651.987 283.584 651.491 283.376 650.787 283.376C650.003 283.376 649.387 283.656 648.939 284.216C648.491 284.76 648.267 285.52 648.267 286.496V291.656C648.267 292.152 648.139 292.536 647.883 292.808C647.627 293.064 647.259 293.192 646.779 293.192C646.299 293.192 645.923 293.064 645.651 292.808C645.395 292.536 645.267 292.152 645.267 291.656V285.968C645.267 285.072 645.115 284.416 644.811 284C644.523 283.584 644.035 283.376 643.347 283.376C642.563 283.376 641.947 283.656 641.499 284.216C641.051 284.76 640.827 285.52 640.827 286.496V291.656C640.827 292.68 640.323 293.192 639.315 293.192ZM659.834 293.168C659.354 293.168 658.986 293.024 658.73 292.736C658.474 292.448 658.346 292.048 658.346 291.536V282.728C658.346 282.2 658.474 281.8 658.73 281.528C658.986 281.24 659.354 281.096 659.834 281.096C660.314 281.096 660.682 281.24 660.938 281.528C661.21 281.8 661.346 282.2 661.346 282.728V291.536C661.346 292.048 661.218 292.448 660.962 292.736C660.706 293.024 660.33 293.168 659.834 293.168ZM659.834 278.864C659.274 278.864 658.834 278.728 658.514 278.456C658.21 278.168 658.058 277.776 658.058 277.28C658.058 276.768 658.21 276.376 658.514 276.104C658.834 275.832 659.274 275.696 659.834 275.696C660.41 275.696 660.85 275.832 661.154 276.104C661.458 276.376 661.61 276.768 661.61 277.28C661.61 277.776 661.458 278.168 661.154 278.456C660.85 278.728 660.41 278.864 659.834 278.864ZM665.471 293.192C664.991 293.192 664.623 293.064 664.367 292.808C664.111 292.536 663.983 292.152 663.983 291.656V282.584C663.983 282.088 664.111 281.712 664.367 281.456C664.623 281.2 664.983 281.072 665.447 281.072C665.911 281.072 666.271 281.2 666.527 281.456C666.783 281.712 666.911 282.088 666.911 282.584V284.216L666.647 283.616C666.999 282.768 667.543 282.128 668.279 281.696C669.031 281.248 669.879 281.024 670.823 281.024C671.767 281.024 672.543 281.2 673.151 281.552C673.759 281.904 674.215 282.44 674.519 283.16C674.823 283.864 674.975 284.76 674.975 285.848V291.656C674.975 292.152 674.847 292.536 674.591 292.808C674.335 293.064 673.967 293.192 673.487 293.192C673.007 293.192 672.631 293.064 672.359 292.808C672.103 292.536 671.975 292.152 671.975 291.656V285.992C671.975 285.08 671.799 284.416 671.447 284C671.111 283.584 670.583 283.376 669.863 283.376C668.983 283.376 668.279 283.656 667.751 284.216C667.239 284.76 666.983 285.488 666.983 286.4V291.656C666.983 292.68 666.479 293.192 665.471 293.192ZM685.402 293.192C684.906 293.192 684.522 293.056 684.25 292.784C683.994 292.496 683.866 292.104 683.866 291.608V277.64C683.866 277.128 684.002 276.744 684.274 276.488C684.546 276.216 684.93 276.08 685.426 276.08H691.21C693.066 276.08 694.498 276.544 695.506 277.472C696.514 278.4 697.018 279.696 697.018 281.36C697.018 283.024 696.514 284.328 695.506 285.272C694.498 286.2 693.066 286.664 691.21 286.664H686.938V291.608C686.938 292.104 686.81 292.496 686.554 292.784C686.298 293.056 685.914 293.192 685.402 293.192ZM686.938 284.24H690.73C691.818 284.24 692.642 284 693.202 283.52C693.762 283.024 694.042 282.304 694.042 281.36C694.042 280.416 693.762 279.704 693.202 279.224C692.642 278.744 691.818 278.504 690.73 278.504H686.938V284.24ZM702.056 293.24C701.208 293.24 700.448 293.08 699.776 292.76C699.12 292.424 698.6 291.976 698.216 291.416C697.848 290.856 697.664 290.224 697.664 289.52C697.664 288.656 697.888 287.976 698.336 287.48C698.784 286.968 699.512 286.6 700.52 286.376C701.528 286.152 702.88 286.04 704.576 286.04H705.776V287.768H704.6C703.608 287.768 702.816 287.816 702.224 287.912C701.632 288.008 701.208 288.176 700.952 288.416C700.712 288.64 700.592 288.96 700.592 289.376C700.592 289.904 700.776 290.336 701.144 290.672C701.512 291.008 702.024 291.176 702.68 291.176C703.208 291.176 703.672 291.056 704.072 290.816C704.488 290.56 704.816 290.216 705.056 289.784C705.296 289.352 705.416 288.856 705.416 288.296V285.536C705.416 284.736 705.24 284.16 704.888 283.808C704.536 283.456 703.944 283.28 703.112 283.28C702.648 283.28 702.144 283.336 701.6 283.448C701.072 283.56 700.512 283.752 699.92 284.024C699.616 284.168 699.344 284.208 699.104 284.144C698.88 284.08 698.704 283.952 698.576 283.76C698.448 283.552 698.384 283.328 698.384 283.088C698.384 282.848 698.448 282.616 698.576 282.392C698.704 282.152 698.92 281.976 699.224 281.864C699.96 281.56 700.664 281.344 701.336 281.216C702.024 281.088 702.648 281.024 703.208 281.024C704.36 281.024 705.304 281.2 706.04 281.552C706.792 281.904 707.352 282.44 707.72 283.16C708.088 283.864 708.272 284.776 708.272 285.896V291.656C708.272 292.152 708.152 292.536 707.912 292.808C707.672 293.064 707.328 293.192 706.88 293.192C706.432 293.192 706.08 293.064 705.824 292.808C705.584 292.536 705.464 292.152 705.464 291.656V290.504H705.656C705.544 291.064 705.32 291.552 704.984 291.968C704.664 292.368 704.256 292.68 703.76 292.904C703.264 293.128 702.696 293.24 702.056 293.24ZM712.325 293.192C711.845 293.192 711.477 293.064 711.221 292.808C710.965 292.536 710.837 292.152 710.837 291.656V282.584C710.837 282.088 710.965 281.712 711.221 281.456C711.477 281.2 711.837 281.072 712.301 281.072C712.765 281.072 713.125 281.2 713.381 281.456C713.637 281.712 713.765 282.088 713.765 282.584V284.216L713.501 283.616C713.853 282.768 714.397 282.128 715.133 281.696C715.885 281.248 716.733 281.024 717.677 281.024C718.621 281.024 719.397 281.2 720.005 281.552C720.613 281.904 721.069 282.44 721.373 283.16C721.677 283.864 721.829 284.76 721.829 285.848V291.656C721.829 292.152 721.701 292.536 721.445 292.808C721.189 293.064 720.821 293.192 720.341 293.192C719.861 293.192 719.485 293.064 719.213 292.808C718.957 292.536 718.829 292.152 718.829 291.656V285.992C718.829 285.08 718.653 284.416 718.301 284C717.965 283.584 717.437 283.376 716.717 283.376C715.837 283.376 715.133 283.656 714.605 284.216C714.093 284.76 713.837 285.488 713.837 286.4V291.656C713.837 292.68 713.333 293.192 712.325 293.192ZM730.18 293.24C728.852 293.24 727.708 292.992 726.748 292.496C725.788 292 725.044 291.296 724.516 290.384C724.004 289.472 723.748 288.392 723.748 287.144C723.748 285.928 723.996 284.864 724.492 283.952C725.004 283.04 725.7 282.328 726.58 281.816C727.476 281.288 728.492 281.024 729.628 281.024C730.46 281.024 731.204 281.16 731.86 281.432C732.532 281.704 733.1 282.096 733.564 282.608C734.044 283.12 734.404 283.744 734.644 284.48C734.9 285.2 735.028 286.016 735.028 286.928C735.028 287.216 734.924 287.44 734.716 287.6C734.524 287.744 734.244 287.816 733.876 287.816H726.172V286.088H732.916L732.532 286.448C732.532 285.712 732.42 285.096 732.196 284.6C731.988 284.104 731.676 283.728 731.26 283.472C730.86 283.2 730.356 283.064 729.748 283.064C729.076 283.064 728.5 283.224 728.02 283.544C727.556 283.848 727.196 284.288 726.94 284.864C726.7 285.424 726.58 286.096 726.58 286.88V287.048C726.58 288.36 726.884 289.344 727.492 290C728.116 290.64 729.028 290.96 730.228 290.96C730.644 290.96 731.108 290.912 731.62 290.816C732.148 290.704 732.644 290.52 733.108 290.264C733.444 290.072 733.74 289.992 733.996 290.024C734.252 290.04 734.452 290.128 734.596 290.288C734.756 290.448 734.852 290.648 734.884 290.888C734.916 291.112 734.868 291.344 734.74 291.584C734.628 291.824 734.428 292.032 734.14 292.208C733.58 292.56 732.932 292.824 732.196 293C731.476 293.16 730.804 293.24 730.18 293.24ZM740.932 293.24C739.604 293.24 738.604 292.864 737.932 292.112C737.26 291.344 736.924 290.224 736.924 288.752V277.4C736.924 276.904 737.052 276.528 737.308 276.272C737.564 276.016 737.932 275.888 738.412 275.888C738.892 275.888 739.26 276.016 739.516 276.272C739.788 276.528 739.924 276.904 739.924 277.4V288.608C739.924 289.344 740.076 289.888 740.38 290.24C740.7 290.592 741.148 290.768 741.724 290.768C741.852 290.768 741.972 290.768 742.084 290.768C742.196 290.752 742.308 290.736 742.42 290.72C742.644 290.688 742.796 290.752 742.876 290.912C742.956 291.056 742.996 291.36 742.996 291.824C742.996 292.224 742.916 292.536 742.756 292.76C742.596 292.984 742.332 293.12 741.964 293.168C741.804 293.184 741.636 293.2 741.46 293.216C741.284 293.232 741.108 293.24 740.932 293.24ZM758.303 293.24C756.543 293.24 755.031 292.888 753.767 292.184C752.519 291.464 751.559 290.456 750.887 289.16C750.215 287.848 749.879 286.304 749.879 284.528C749.879 283.2 750.071 282.008 750.455 280.952C750.839 279.88 751.391 278.968 752.111 278.216C752.831 277.448 753.711 276.864 754.751 276.464C755.807 276.048 756.991 275.84 758.303 275.84C759.183 275.84 760.047 275.952 760.895 276.176C761.743 276.4 762.487 276.72 763.127 277.136C763.463 277.344 763.687 277.6 763.799 277.904C763.911 278.192 763.935 278.48 763.871 278.768C763.807 279.04 763.671 279.272 763.463 279.464C763.271 279.656 763.023 279.768 762.719 279.8C762.431 279.816 762.111 279.712 761.759 279.488C761.263 279.168 760.727 278.936 760.151 278.792C759.575 278.648 758.991 278.576 758.399 278.576C757.263 278.576 756.303 278.808 755.519 279.272C754.735 279.736 754.143 280.408 753.743 281.288C753.343 282.168 753.143 283.248 753.143 284.528C753.143 285.792 753.343 286.872 753.743 287.768C754.143 288.664 754.735 289.344 755.519 289.808C756.303 290.272 757.263 290.504 758.399 290.504C759.007 290.504 759.607 290.432 760.199 290.288C760.791 290.128 761.351 289.888 761.879 289.568C762.231 289.36 762.543 289.272 762.815 289.304C763.103 289.32 763.343 289.416 763.535 289.592C763.727 289.768 763.855 289.992 763.919 290.264C763.983 290.52 763.967 290.792 763.871 291.08C763.775 291.352 763.583 291.592 763.295 291.8C762.655 292.264 761.887 292.624 760.991 292.88C760.111 293.12 759.215 293.24 758.303 293.24ZM770.484 293.24C769.268 293.24 768.212 292.992 767.316 292.496C766.42 292 765.724 291.296 765.228 290.384C764.732 289.456 764.484 288.368 764.484 287.12C764.484 286.176 764.62 285.336 764.892 284.6C765.18 283.848 765.588 283.208 766.116 282.68C766.644 282.136 767.276 281.728 768.012 281.456C768.748 281.168 769.572 281.024 770.484 281.024C771.7 281.024 772.756 281.272 773.652 281.768C774.548 282.264 775.244 282.968 775.74 283.88C776.236 284.792 776.484 285.872 776.484 287.12C776.484 288.064 776.34 288.912 776.052 289.664C775.78 290.416 775.38 291.064 774.852 291.608C774.324 292.136 773.692 292.544 772.956 292.832C772.22 293.104 771.396 293.24 770.484 293.24ZM770.484 290.96C771.076 290.96 771.596 290.816 772.044 290.528C772.492 290.24 772.836 289.816 773.076 289.256C773.332 288.68 773.46 287.968 773.46 287.12C773.46 285.84 773.188 284.888 772.644 284.264C772.1 283.624 771.38 283.304 770.484 283.304C769.892 283.304 769.372 283.448 768.924 283.736C768.476 284.008 768.124 284.432 767.868 285.008C767.628 285.568 767.508 286.272 767.508 287.12C767.508 288.384 767.78 289.344 768.324 290C768.868 290.64 769.588 290.96 770.484 290.96ZM779.968 293.192C779.488 293.192 779.12 293.064 778.864 292.808C778.608 292.536 778.48 292.152 778.48 291.656V282.584C778.48 282.088 778.608 281.712 778.864 281.456C779.12 281.2 779.48 281.072 779.944 281.072C780.408 281.072 780.768 281.2 781.024 281.456C781.28 281.712 781.408 282.088 781.408 282.584V284.216L781.144 283.616C781.496 282.768 782.04 282.128 782.776 281.696C783.528 281.248 784.376 281.024 785.32 281.024C786.264 281.024 787.04 281.2 787.648 281.552C788.256 281.904 788.712 282.44 789.016 283.16C789.32 283.864 789.472 284.76 789.472 285.848V291.656C789.472 292.152 789.344 292.536 789.088 292.808C788.832 293.064 788.464 293.192 787.984 293.192C787.504 293.192 787.128 293.064 786.856 292.808C786.6 292.536 786.472 292.152 786.472 291.656V285.992C786.472 285.08 786.296 284.416 785.944 284C785.608 283.584 785.08 283.376 784.36 283.376C783.48 283.376 782.776 283.656 782.248 284.216C781.736 284.76 781.48 285.488 781.48 286.4V291.656C781.48 292.68 780.976 293.192 779.968 293.192ZM797.415 293.24C796.375 293.24 795.503 293.064 794.799 292.712C794.111 292.36 793.599 291.848 793.263 291.176C792.927 290.488 792.759 289.64 792.759 288.632V283.52H791.511C791.127 283.52 790.831 283.424 790.623 283.232C790.415 283.024 790.311 282.744 790.311 282.392C790.311 282.024 790.415 281.744 790.623 281.552C790.831 281.36 791.127 281.264 791.511 281.264H792.759V279.08C792.759 278.584 792.887 278.208 793.143 277.952C793.415 277.696 793.791 277.568 794.271 277.568C794.751 277.568 795.119 277.696 795.375 277.952C795.631 278.208 795.759 278.584 795.759 279.08V281.264H798.303C798.687 281.264 798.983 281.36 799.191 281.552C799.399 281.744 799.503 282.024 799.503 282.392C799.503 282.744 799.399 283.024 799.191 283.232C798.983 283.424 798.687 283.52 798.303 283.52H795.759V288.464C795.759 289.232 795.927 289.808 796.263 290.192C796.599 290.576 797.143 290.768 797.895 290.768C798.167 290.768 798.407 290.744 798.615 290.696C798.823 290.648 799.007 290.616 799.167 290.6C799.359 290.584 799.519 290.648 799.647 290.792C799.775 290.92 799.839 291.192 799.839 291.608C799.839 291.928 799.783 292.216 799.671 292.472C799.575 292.712 799.391 292.88 799.119 292.976C798.911 293.04 798.639 293.096 798.303 293.144C797.967 293.208 797.671 293.24 797.415 293.24ZM802.306 293.192C801.81 293.192 801.426 293.064 801.154 292.808C800.898 292.536 800.77 292.152 800.77 291.656V282.584C800.77 282.088 800.898 281.712 801.154 281.456C801.41 281.2 801.77 281.072 802.234 281.072C802.698 281.072 803.058 281.2 803.314 281.456C803.57 281.712 803.698 282.088 803.698 282.584V284.096H803.458C803.682 283.136 804.122 282.408 804.778 281.912C805.434 281.416 806.306 281.12 807.394 281.024C807.73 280.992 807.994 281.08 808.186 281.288C808.394 281.48 808.514 281.784 808.546 282.2C808.578 282.6 808.482 282.928 808.258 283.184C808.05 283.424 807.73 283.568 807.298 283.616L806.77 283.664C805.794 283.76 805.058 284.064 804.562 284.576C804.066 285.072 803.818 285.776 803.818 286.688V291.656C803.818 292.152 803.69 292.536 803.434 292.808C803.178 293.064 802.802 293.192 802.306 293.192ZM814.853 293.24C813.637 293.24 812.581 292.992 811.685 292.496C810.789 292 810.093 291.296 809.597 290.384C809.101 289.456 808.853 288.368 808.853 287.12C808.853 286.176 808.989 285.336 809.261 284.6C809.549 283.848 809.957 283.208 810.485 282.68C811.013 282.136 811.645 281.728 812.381 281.456C813.117 281.168 813.941 281.024 814.853 281.024C816.069 281.024 817.125 281.272 818.021 281.768C818.917 282.264 819.613 282.968 820.109 283.88C820.605 284.792 820.853 285.872 820.853 287.12C820.853 288.064 820.709 288.912 820.421 289.664C820.149 290.416 819.749 291.064 819.221 291.608C818.693 292.136 818.061 292.544 817.325 292.832C816.589 293.104 815.765 293.24 814.853 293.24ZM814.853 290.96C815.445 290.96 815.965 290.816 816.413 290.528C816.861 290.24 817.205 289.816 817.445 289.256C817.701 288.68 817.829 287.968 817.829 287.12C817.829 285.84 817.557 284.888 817.013 284.264C816.469 283.624 815.749 283.304 814.853 283.304C814.261 283.304 813.741 283.448 813.293 283.736C812.845 284.008 812.493 284.432 812.237 285.008C811.997 285.568 811.877 286.272 811.877 287.12C811.877 288.384 812.149 289.344 812.693 290C813.237 290.64 813.957 290.96 814.853 290.96ZM826.857 293.24C825.529 293.24 824.529 292.864 823.857 292.112C823.185 291.344 822.849 290.224 822.849 288.752V277.4C822.849 276.904 822.977 276.528 823.233 276.272C823.489 276.016 823.857 275.888 824.337 275.888C824.817 275.888 825.185 276.016 825.441 276.272C825.713 276.528 825.849 276.904 825.849 277.4V288.608C825.849 289.344 826.001 289.888 826.305 290.24C826.625 290.592 827.073 290.768 827.649 290.768C827.777 290.768 827.897 290.768 828.009 290.768C828.121 290.752 828.233 290.736 828.345 290.72C828.569 290.688 828.721 290.752 828.801 290.912C828.881 291.056 828.921 291.36 828.921 291.824C828.921 292.224 828.841 292.536 828.681 292.76C828.521 292.984 828.257 293.12 827.889 293.168C827.729 293.184 827.561 293.2 827.385 293.216C827.209 293.232 827.033 293.24 826.857 293.24Z" fill="#646D89"/>
<path d="M503.045 352.364H504.455V360.068C504.455 360.864 504.267 361.574 503.892 362.199C503.521 362.82 502.996 363.311 502.318 363.67C501.64 364.027 500.845 364.205 499.932 364.205C499.019 364.205 498.223 364.027 497.545 363.67C496.867 363.311 496.341 362.82 495.966 362.199C495.595 361.574 495.409 360.864 495.409 360.068V352.364H496.818V359.955C496.818 360.523 496.943 361.028 497.193 361.472C497.443 361.911 497.799 362.258 498.261 362.511C498.727 362.761 499.284 362.886 499.932 362.886C500.58 362.886 501.136 362.761 501.602 362.511C502.068 362.258 502.424 361.911 502.67 361.472C502.92 361.028 503.045 360.523 503.045 359.955V352.364ZM513.268 357.227L512.064 357.568C511.988 357.367 511.876 357.172 511.729 356.983C511.585 356.79 511.388 356.631 511.138 356.506C510.888 356.381 510.568 356.318 510.178 356.318C509.643 356.318 509.198 356.441 508.842 356.688C508.49 356.93 508.314 357.239 508.314 357.614C508.314 357.947 508.435 358.21 508.678 358.403C508.92 358.597 509.299 358.758 509.814 358.886L511.109 359.205C511.89 359.394 512.471 359.684 512.854 360.074C513.236 360.46 513.428 360.958 513.428 361.568C513.428 362.068 513.284 362.515 512.996 362.909C512.712 363.303 512.314 363.614 511.803 363.841C511.291 364.068 510.696 364.182 510.018 364.182C509.128 364.182 508.392 363.989 507.808 363.602C507.225 363.216 506.856 362.652 506.7 361.909L507.973 361.591C508.094 362.061 508.323 362.413 508.661 362.648C509.001 362.883 509.446 363 509.996 363C510.621 363 511.117 362.867 511.484 362.602C511.856 362.333 512.041 362.011 512.041 361.636C512.041 361.333 511.935 361.08 511.723 360.875C511.511 360.667 511.185 360.511 510.746 360.409L509.291 360.068C508.492 359.879 507.905 359.585 507.53 359.188C507.159 358.786 506.973 358.284 506.973 357.682C506.973 357.189 507.111 356.754 507.388 356.375C507.668 355.996 508.049 355.699 508.53 355.483C509.015 355.267 509.564 355.159 510.178 355.159C511.041 355.159 511.719 355.348 512.212 355.727C512.708 356.106 513.06 356.606 513.268 357.227ZM519.105 364.182C518.264 364.182 517.539 363.996 516.929 363.625C516.323 363.25 515.855 362.727 515.526 362.057C515.2 361.383 515.037 360.598 515.037 359.705C515.037 358.811 515.2 358.023 515.526 357.341C515.855 356.655 516.313 356.121 516.901 355.739C517.491 355.352 518.181 355.159 518.969 355.159C519.423 355.159 519.872 355.235 520.315 355.386C520.759 355.538 521.162 355.784 521.526 356.125C521.889 356.462 522.179 356.909 522.395 357.466C522.611 358.023 522.719 358.708 522.719 359.523V360.091H515.991V358.932H521.355C521.355 358.439 521.257 358 521.06 357.614C520.866 357.227 520.59 356.922 520.23 356.699C519.874 356.475 519.454 356.364 518.969 356.364C518.435 356.364 517.973 356.496 517.582 356.761C517.196 357.023 516.899 357.364 516.69 357.784C516.482 358.205 516.378 358.655 516.378 359.136V359.909C516.378 360.568 516.491 361.127 516.719 361.585C516.95 362.04 517.27 362.386 517.679 362.625C518.088 362.86 518.563 362.977 519.105 362.977C519.457 362.977 519.776 362.928 520.06 362.83C520.348 362.727 520.596 362.576 520.804 362.375C521.012 362.17 521.173 361.917 521.287 361.614L522.582 361.977C522.446 362.417 522.217 362.803 521.895 363.136C521.573 363.466 521.175 363.723 520.702 363.909C520.228 364.091 519.696 364.182 519.105 364.182ZM524.759 364V355.273H526.054V356.591H526.145C526.304 356.159 526.592 355.809 527.009 355.54C527.425 355.271 527.895 355.136 528.418 355.136C528.516 355.136 528.639 355.138 528.787 355.142C528.935 355.146 529.046 355.152 529.122 355.159V356.523C529.077 356.511 528.973 356.494 528.81 356.472C528.651 356.445 528.482 356.432 528.304 356.432C527.88 356.432 527.501 356.521 527.168 356.699C526.838 356.873 526.577 357.116 526.384 357.426C526.194 357.733 526.099 358.083 526.099 358.477V364H524.759ZM532.053 358.75V364H530.712V355.273H532.007V356.636H532.121C532.325 356.193 532.636 355.837 533.053 355.568C533.469 355.295 534.007 355.159 534.666 355.159C535.257 355.159 535.774 355.28 536.217 355.523C536.661 355.761 537.005 356.125 537.251 356.614C537.498 357.098 537.621 357.712 537.621 358.455V364H536.28V358.545C536.28 357.86 536.102 357.326 535.746 356.943C535.39 356.557 534.901 356.364 534.28 356.364C533.852 356.364 533.469 356.456 533.132 356.642C532.799 356.828 532.536 357.098 532.342 357.455C532.149 357.811 532.053 358.242 532.053 358.75ZM542.639 364.205C542.086 364.205 541.584 364.1 541.134 363.892C540.683 363.68 540.325 363.375 540.06 362.977C539.795 362.576 539.662 362.091 539.662 361.523C539.662 361.023 539.76 360.617 539.957 360.307C540.154 359.992 540.418 359.746 540.747 359.568C541.077 359.39 541.44 359.258 541.838 359.17C542.24 359.08 542.643 359.008 543.048 358.955C543.579 358.886 544.009 358.835 544.338 358.801C544.671 358.763 544.914 358.701 545.065 358.614C545.221 358.527 545.298 358.375 545.298 358.159V358.114C545.298 357.553 545.145 357.117 544.838 356.807C544.535 356.496 544.075 356.341 543.457 356.341C542.817 356.341 542.315 356.481 541.952 356.761C541.588 357.042 541.332 357.341 541.185 357.659L539.912 357.205C540.139 356.674 540.442 356.261 540.821 355.966C541.204 355.667 541.62 355.458 542.071 355.341C542.526 355.22 542.973 355.159 543.412 355.159C543.692 355.159 544.014 355.193 544.378 355.261C544.745 355.326 545.099 355.46 545.44 355.665C545.785 355.869 546.071 356.178 546.298 356.591C546.526 357.004 546.639 357.557 546.639 358.25V364H545.298V362.818H545.23C545.139 363.008 544.988 363.21 544.776 363.426C544.563 363.642 544.281 363.826 543.929 363.977C543.577 364.129 543.147 364.205 542.639 364.205ZM542.844 363C543.374 363 543.821 362.896 544.185 362.688C544.552 362.479 544.829 362.21 545.014 361.881C545.204 361.551 545.298 361.205 545.298 360.841V359.614C545.241 359.682 545.116 359.744 544.923 359.801C544.734 359.854 544.514 359.902 544.264 359.943C544.018 359.981 543.777 360.015 543.543 360.045C543.312 360.072 543.124 360.095 542.98 360.114C542.632 360.159 542.306 360.233 542.003 360.335C541.704 360.434 541.461 360.583 541.276 360.784C541.094 360.981 541.003 361.25 541.003 361.591C541.003 362.057 541.175 362.409 541.52 362.648C541.868 362.883 542.31 363 542.844 363ZM549.087 364V355.273H550.382V356.636H550.496C550.678 356.17 550.971 355.809 551.376 355.551C551.782 355.29 552.268 355.159 552.837 355.159C553.412 355.159 553.892 355.29 554.274 355.551C554.661 355.809 554.962 356.17 555.178 356.636H555.268C555.492 356.186 555.827 355.828 556.274 355.562C556.721 355.294 557.257 355.159 557.882 355.159C558.662 355.159 559.301 355.403 559.797 355.892C560.293 356.377 560.541 357.133 560.541 358.159V364H559.2V358.159C559.2 357.515 559.024 357.055 558.672 356.778C558.32 356.502 557.905 356.364 557.428 356.364C556.814 356.364 556.339 356.549 556.001 356.92C555.664 357.288 555.496 357.754 555.496 358.318V364H554.132V358.023C554.132 357.527 553.971 357.127 553.649 356.824C553.327 356.517 552.912 356.364 552.405 356.364C552.056 356.364 551.731 356.456 551.428 356.642C551.128 356.828 550.886 357.085 550.7 357.415C550.518 357.741 550.428 358.117 550.428 358.545V364H549.087ZM566.652 364.182C565.811 364.182 565.086 363.996 564.476 363.625C563.87 363.25 563.402 362.727 563.072 362.057C562.747 361.383 562.584 360.598 562.584 359.705C562.584 358.811 562.747 358.023 563.072 357.341C563.402 356.655 563.86 356.121 564.447 355.739C565.038 355.352 565.728 355.159 566.516 355.159C566.97 355.159 567.419 355.235 567.862 355.386C568.305 355.538 568.709 355.784 569.072 356.125C569.436 356.462 569.726 356.909 569.942 357.466C570.158 358.023 570.266 358.708 570.266 359.523V360.091H563.538V358.932H568.902C568.902 358.439 568.804 358 568.607 357.614C568.413 357.227 568.137 356.922 567.777 356.699C567.421 356.475 567 356.364 566.516 356.364C565.982 356.364 565.519 356.496 565.129 356.761C564.743 357.023 564.446 357.364 564.237 357.784C564.029 358.205 563.925 358.655 563.925 359.136V359.909C563.925 360.568 564.038 361.127 564.266 361.585C564.497 362.04 564.817 362.386 565.226 362.625C565.635 362.86 566.11 362.977 566.652 362.977C567.004 362.977 567.322 362.928 567.607 362.83C567.894 362.727 568.143 362.576 568.351 362.375C568.559 362.17 568.72 361.917 568.834 361.614L570.129 361.977C569.993 362.417 569.764 362.803 569.442 363.136C569.12 363.466 568.722 363.723 568.249 363.909C567.775 364.091 567.243 364.182 566.652 364.182Z" fill="black"/>
<rect x="494" y="374" width="446" height="48" rx="8" fill="white"/>
<path d="M507.409 404V392.364H514.432V393.614H508.818V397.545H514.068V398.795H508.818V402.75H514.523V404H507.409ZM518.131 398.75V404H516.79V395.273H518.085V396.636H518.199C518.403 396.193 518.714 395.837 519.131 395.568C519.547 395.295 520.085 395.159 520.744 395.159C521.335 395.159 521.852 395.28 522.295 395.523C522.739 395.761 523.083 396.125 523.33 396.614C523.576 397.098 523.699 397.712 523.699 398.455V404H522.358V398.545C522.358 397.86 522.18 397.326 521.824 396.943C521.468 396.557 520.979 396.364 520.358 396.364C519.93 396.364 519.547 396.456 519.21 396.642C518.877 396.828 518.614 397.098 518.42 397.455C518.227 397.811 518.131 398.242 518.131 398.75ZM529.945 395.273V396.409H525.422V395.273H529.945ZM526.74 393.182H528.081V401.5C528.081 401.879 528.136 402.163 528.246 402.352C528.359 402.538 528.503 402.663 528.678 402.727C528.856 402.788 529.043 402.818 529.24 402.818C529.388 402.818 529.509 402.811 529.604 402.795C529.698 402.777 529.774 402.761 529.831 402.75L530.104 403.955C530.013 403.989 529.886 404.023 529.723 404.057C529.56 404.095 529.354 404.114 529.104 404.114C528.725 404.114 528.354 404.032 527.99 403.869C527.63 403.706 527.331 403.458 527.092 403.125C526.857 402.792 526.74 402.371 526.74 401.864V393.182ZM535.527 404.182C534.686 404.182 533.961 403.996 533.351 403.625C532.745 403.25 532.277 402.727 531.947 402.057C531.622 401.383 531.459 400.598 531.459 399.705C531.459 398.811 531.622 398.023 531.947 397.341C532.277 396.655 532.735 396.121 533.322 395.739C533.913 395.352 534.603 395.159 535.391 395.159C535.845 395.159 536.294 395.235 536.737 395.386C537.18 395.538 537.584 395.784 537.947 396.125C538.311 396.462 538.601 396.909 538.817 397.466C539.033 398.023 539.141 398.708 539.141 399.523V400.091H532.413V398.932H537.777C537.777 398.439 537.679 398 537.482 397.614C537.288 397.227 537.012 396.922 536.652 396.699C536.296 396.475 535.875 396.364 535.391 396.364C534.857 396.364 534.394 396.496 534.004 396.761C533.618 397.023 533.321 397.364 533.112 397.784C532.904 398.205 532.8 398.655 532.8 399.136V399.909C532.8 400.568 532.913 401.127 533.141 401.585C533.372 402.04 533.692 402.386 534.101 402.625C534.51 402.86 534.985 402.977 535.527 402.977C535.879 402.977 536.197 402.928 536.482 402.83C536.769 402.727 537.018 402.576 537.226 402.375C537.434 402.17 537.595 401.917 537.709 401.614L539.004 401.977C538.868 402.417 538.639 402.803 538.317 403.136C537.995 403.466 537.597 403.723 537.124 403.909C536.65 404.091 536.118 404.182 535.527 404.182ZM541.18 404V395.273H542.476V396.591H542.567C542.726 396.159 543.014 395.809 543.43 395.54C543.847 395.271 544.317 395.136 544.839 395.136C544.938 395.136 545.061 395.138 545.209 395.142C545.357 395.146 545.468 395.152 545.544 395.159V396.523C545.499 396.511 545.394 396.494 545.232 396.472C545.072 396.445 544.904 396.432 544.726 396.432C544.302 396.432 543.923 396.521 543.589 396.699C543.26 396.873 542.999 397.116 542.805 397.426C542.616 397.733 542.521 398.083 542.521 398.477V404H541.18ZM559.452 392.364H560.861V400.068C560.861 400.864 560.673 401.574 560.298 402.199C559.927 402.82 559.402 403.311 558.724 403.67C558.046 404.027 557.251 404.205 556.338 404.205C555.425 404.205 554.63 404.027 553.952 403.67C553.274 403.311 552.747 402.82 552.372 402.199C552.001 401.574 551.815 400.864 551.815 400.068V392.364H553.224V399.955C553.224 400.523 553.349 401.028 553.599 401.472C553.849 401.911 554.205 402.258 554.668 402.511C555.134 402.761 555.69 402.886 556.338 402.886C556.986 402.886 557.543 402.761 558.009 402.511C558.474 402.258 558.83 401.911 559.077 401.472C559.327 401.028 559.452 400.523 559.452 399.955V392.364ZM569.675 397.227L568.47 397.568C568.394 397.367 568.283 397.172 568.135 396.983C567.991 396.79 567.794 396.631 567.544 396.506C567.294 396.381 566.974 396.318 566.584 396.318C566.05 396.318 565.605 396.441 565.249 396.688C564.896 396.93 564.72 397.239 564.72 397.614C564.72 397.947 564.841 398.21 565.084 398.403C565.326 398.597 565.705 398.758 566.22 398.886L567.516 399.205C568.296 399.394 568.877 399.684 569.26 400.074C569.643 400.46 569.834 400.958 569.834 401.568C569.834 402.068 569.69 402.515 569.402 402.909C569.118 403.303 568.72 403.614 568.209 403.841C567.697 404.068 567.103 404.182 566.425 404.182C565.535 404.182 564.798 403.989 564.214 403.602C563.631 403.216 563.262 402.652 563.107 401.909L564.379 401.591C564.5 402.061 564.73 402.413 565.067 402.648C565.408 402.883 565.853 403 566.402 403C567.027 403 567.523 402.867 567.891 402.602C568.262 402.333 568.447 402.011 568.447 401.636C568.447 401.333 568.341 401.08 568.129 400.875C567.917 400.667 567.591 400.511 567.152 400.409L565.697 400.068C564.898 399.879 564.311 399.585 563.936 399.188C563.565 398.786 563.379 398.284 563.379 397.682C563.379 397.189 563.518 396.754 563.794 396.375C564.074 395.996 564.455 395.699 564.936 395.483C565.421 395.267 565.97 395.159 566.584 395.159C567.447 395.159 568.125 395.348 568.618 395.727C569.114 396.106 569.466 396.606 569.675 397.227ZM575.511 404.182C574.67 404.182 573.945 403.996 573.335 403.625C572.729 403.25 572.261 402.727 571.932 402.057C571.606 401.383 571.443 400.598 571.443 399.705C571.443 398.811 571.606 398.023 571.932 397.341C572.261 396.655 572.72 396.121 573.307 395.739C573.898 395.352 574.587 395.159 575.375 395.159C575.83 395.159 576.278 395.235 576.722 395.386C577.165 395.538 577.568 395.784 577.932 396.125C578.295 396.462 578.585 396.909 578.801 397.466C579.017 398.023 579.125 398.708 579.125 399.523V400.091H572.398V398.932H577.761C577.761 398.439 577.663 398 577.466 397.614C577.273 397.227 576.996 396.922 576.636 396.699C576.28 396.475 575.86 396.364 575.375 396.364C574.841 396.364 574.379 396.496 573.989 396.761C573.602 397.023 573.305 397.364 573.097 397.784C572.888 398.205 572.784 398.655 572.784 399.136V399.909C572.784 400.568 572.898 401.127 573.125 401.585C573.356 402.04 573.676 402.386 574.085 402.625C574.494 402.86 574.97 402.977 575.511 402.977C575.864 402.977 576.182 402.928 576.466 402.83C576.754 402.727 577.002 402.576 577.21 402.375C577.419 402.17 577.58 401.917 577.693 401.614L578.989 401.977C578.852 402.417 578.623 402.803 578.301 403.136C577.979 403.466 577.581 403.723 577.108 403.909C576.634 404.091 576.102 404.182 575.511 404.182ZM581.165 404V395.273H582.46V396.591H582.551C582.71 396.159 582.998 395.809 583.415 395.54C583.831 395.271 584.301 395.136 584.824 395.136C584.922 395.136 585.045 395.138 585.193 395.142C585.341 395.146 585.453 395.152 585.528 395.159V396.523C585.483 396.511 585.379 396.494 585.216 396.472C585.057 396.445 584.888 396.432 584.71 396.432C584.286 396.432 583.907 396.521 583.574 396.699C583.244 396.873 582.983 397.116 582.79 397.426C582.6 397.733 582.506 398.083 582.506 398.477V404H581.165ZM588.459 398.75V404H587.118V395.273H588.413V396.636H588.527C588.732 396.193 589.042 395.837 589.459 395.568C589.875 395.295 590.413 395.159 591.072 395.159C591.663 395.159 592.18 395.28 592.624 395.523C593.067 395.761 593.411 396.125 593.658 396.614C593.904 397.098 594.027 397.712 594.027 398.455V404H592.686V398.545C592.686 397.86 592.508 397.326 592.152 396.943C591.796 396.557 591.307 396.364 590.686 396.364C590.258 396.364 589.875 396.456 589.538 396.642C589.205 396.828 588.942 397.098 588.749 397.455C588.555 397.811 588.459 398.242 588.459 398.75ZM599.045 404.205C598.492 404.205 597.991 404.1 597.54 403.892C597.089 403.68 596.731 403.375 596.466 402.977C596.201 402.576 596.068 402.091 596.068 401.523C596.068 401.023 596.167 400.617 596.364 400.307C596.561 399.992 596.824 399.746 597.153 399.568C597.483 399.39 597.847 399.258 598.244 399.17C598.646 399.08 599.049 399.008 599.455 398.955C599.985 398.886 600.415 398.835 600.744 398.801C601.078 398.763 601.32 398.701 601.472 398.614C601.627 398.527 601.705 398.375 601.705 398.159V398.114C601.705 397.553 601.551 397.117 601.244 396.807C600.941 396.496 600.481 396.341 599.864 396.341C599.223 396.341 598.722 396.481 598.358 396.761C597.994 397.042 597.739 397.341 597.591 397.659L596.318 397.205C596.545 396.674 596.848 396.261 597.227 395.966C597.61 395.667 598.027 395.458 598.477 395.341C598.932 395.22 599.379 395.159 599.818 395.159C600.098 395.159 600.42 395.193 600.784 395.261C601.152 395.326 601.506 395.46 601.847 395.665C602.191 395.869 602.477 396.178 602.705 396.591C602.932 397.004 603.045 397.557 603.045 398.25V404H601.705V402.818H601.636C601.545 403.008 601.394 403.21 601.182 403.426C600.97 403.642 600.688 403.826 600.335 403.977C599.983 404.129 599.553 404.205 599.045 404.205ZM599.25 403C599.78 403 600.227 402.896 600.591 402.688C600.958 402.479 601.235 402.21 601.42 401.881C601.61 401.551 601.705 401.205 601.705 400.841V399.614C601.648 399.682 601.523 399.744 601.33 399.801C601.14 399.854 600.92 399.902 600.67 399.943C600.424 399.981 600.184 400.015 599.949 400.045C599.718 400.072 599.53 400.095 599.386 400.114C599.038 400.159 598.712 400.233 598.409 400.335C598.11 400.434 597.867 400.583 597.682 400.784C597.5 400.981 597.409 401.25 597.409 401.591C597.409 402.057 597.581 402.409 597.926 402.648C598.275 402.883 598.716 403 599.25 403ZM605.493 404V395.273H606.788V396.636H606.902C607.084 396.17 607.377 395.809 607.783 395.551C608.188 395.29 608.675 395.159 609.243 395.159C609.819 395.159 610.298 395.29 610.68 395.551C611.067 395.809 611.368 396.17 611.584 396.636H611.675C611.898 396.186 612.233 395.828 612.68 395.562C613.127 395.294 613.663 395.159 614.288 395.159C615.069 395.159 615.707 395.403 616.203 395.892C616.699 396.377 616.947 397.133 616.947 398.159V404H615.607V398.159C615.607 397.515 615.43 397.055 615.078 396.778C614.726 396.502 614.311 396.364 613.834 396.364C613.22 396.364 612.745 396.549 612.408 396.92C612.071 397.288 611.902 397.754 611.902 398.318V404H610.538V398.023C610.538 397.527 610.377 397.127 610.055 396.824C609.733 396.517 609.319 396.364 608.811 396.364C608.463 396.364 608.137 396.456 607.834 396.642C607.535 396.828 607.292 397.085 607.107 397.415C606.925 397.741 606.834 398.117 606.834 398.545V404H605.493ZM623.058 404.182C622.217 404.182 621.492 403.996 620.882 403.625C620.276 403.25 619.808 402.727 619.479 402.057C619.153 401.383 618.99 400.598 618.99 399.705C618.99 398.811 619.153 398.023 619.479 397.341C619.808 396.655 620.267 396.121 620.854 395.739C621.445 395.352 622.134 395.159 622.922 395.159C623.376 395.159 623.825 395.235 624.268 395.386C624.712 395.538 625.115 395.784 625.479 396.125C625.842 396.462 626.132 396.909 626.348 397.466C626.564 398.023 626.672 398.708 626.672 399.523V400.091H619.945V398.932H625.308C625.308 398.439 625.21 398 625.013 397.614C624.82 397.227 624.543 396.922 624.183 396.699C623.827 396.475 623.407 396.364 622.922 396.364C622.388 396.364 621.926 396.496 621.536 396.761C621.149 397.023 620.852 397.364 620.643 397.784C620.435 398.205 620.331 398.655 620.331 399.136V399.909C620.331 400.568 620.445 401.127 620.672 401.585C620.903 402.04 621.223 402.386 621.632 402.625C622.041 402.86 622.517 402.977 623.058 402.977C623.411 402.977 623.729 402.928 624.013 402.83C624.301 402.727 624.549 402.576 624.757 402.375C624.965 402.17 625.126 401.917 625.24 401.614L626.536 401.977C626.399 402.417 626.17 402.803 625.848 403.136C625.526 403.466 625.128 403.723 624.655 403.909C624.181 404.091 623.649 404.182 623.058 404.182Z" fill="#9AA1B9"/>
<rect x="494" y="374" width="446" height="48" rx="8" stroke="#D6D9E4"/>
<path d="M495.409 480V468.364H499.341C500.254 468.364 501 468.528 501.58 468.858C502.163 469.184 502.595 469.625 502.875 470.182C503.155 470.739 503.295 471.36 503.295 472.045C503.295 472.731 503.155 473.354 502.875 473.915C502.598 474.475 502.17 474.922 501.591 475.256C501.011 475.585 500.269 475.75 499.364 475.75H496.545V474.5H499.318C499.943 474.5 500.445 474.392 500.824 474.176C501.203 473.96 501.477 473.669 501.648 473.301C501.822 472.93 501.909 472.511 501.909 472.045C501.909 471.58 501.822 471.163 501.648 470.795C501.477 470.428 501.201 470.14 500.818 469.932C500.436 469.72 499.928 469.614 499.295 469.614H496.818V480H495.409ZM507.952 480.205C507.399 480.205 506.897 480.1 506.446 479.892C505.995 479.68 505.637 479.375 505.372 478.977C505.107 478.576 504.974 478.091 504.974 477.523C504.974 477.023 505.073 476.617 505.27 476.307C505.467 475.992 505.73 475.746 506.06 475.568C506.389 475.39 506.753 475.258 507.151 475.17C507.552 475.08 507.955 475.008 508.361 474.955C508.891 474.886 509.321 474.835 509.651 474.801C509.984 474.763 510.226 474.701 510.378 474.614C510.533 474.527 510.611 474.375 510.611 474.159V474.114C510.611 473.553 510.457 473.117 510.151 472.807C509.848 472.496 509.387 472.341 508.77 472.341C508.13 472.341 507.628 472.481 507.264 472.761C506.901 473.042 506.645 473.341 506.497 473.659L505.224 473.205C505.452 472.674 505.755 472.261 506.134 471.966C506.516 471.667 506.933 471.458 507.384 471.341C507.838 471.22 508.285 471.159 508.724 471.159C509.005 471.159 509.327 471.193 509.69 471.261C510.058 471.326 510.412 471.46 510.753 471.665C511.098 471.869 511.384 472.178 511.611 472.591C511.838 473.004 511.952 473.557 511.952 474.25V480H510.611V478.818H510.543C510.452 479.008 510.3 479.21 510.088 479.426C509.876 479.642 509.594 479.826 509.241 479.977C508.889 480.129 508.459 480.205 507.952 480.205ZM508.156 479C508.687 479 509.134 478.896 509.497 478.688C509.865 478.479 510.141 478.21 510.327 477.881C510.516 477.551 510.611 477.205 510.611 476.841V475.614C510.554 475.682 510.429 475.744 510.236 475.801C510.046 475.854 509.827 475.902 509.577 475.943C509.33 475.981 509.09 476.015 508.855 476.045C508.624 476.072 508.437 476.095 508.293 476.114C507.944 476.159 507.618 476.233 507.315 476.335C507.016 476.434 506.774 476.583 506.588 476.784C506.406 476.981 506.315 477.25 506.315 477.591C506.315 478.057 506.488 478.409 506.832 478.648C507.181 478.883 507.622 479 508.156 479ZM520.581 473.227L519.376 473.568C519.301 473.367 519.189 473.172 519.041 472.983C518.897 472.79 518.7 472.631 518.45 472.506C518.2 472.381 517.88 472.318 517.49 472.318C516.956 472.318 516.511 472.441 516.155 472.688C515.803 472.93 515.626 473.239 515.626 473.614C515.626 473.947 515.748 474.21 515.99 474.403C516.232 474.597 516.611 474.758 517.126 474.886L518.422 475.205C519.202 475.394 519.784 475.684 520.166 476.074C520.549 476.46 520.74 476.958 520.74 477.568C520.74 478.068 520.596 478.515 520.308 478.909C520.024 479.303 519.626 479.614 519.115 479.841C518.604 480.068 518.009 480.182 517.331 480.182C516.441 480.182 515.704 479.989 515.121 479.602C514.537 479.216 514.168 478.652 514.013 477.909L515.286 477.591C515.407 478.061 515.636 478.413 515.973 478.648C516.314 478.883 516.759 479 517.308 479C517.933 479 518.429 478.867 518.797 478.602C519.168 478.333 519.354 478.011 519.354 477.636C519.354 477.333 519.248 477.08 519.036 476.875C518.823 476.667 518.498 476.511 518.058 476.409L516.604 476.068C515.804 475.879 515.217 475.585 514.842 475.188C514.471 474.786 514.286 474.284 514.286 473.682C514.286 473.189 514.424 472.754 514.7 472.375C514.981 471.996 515.361 471.699 515.842 471.483C516.327 471.267 516.876 471.159 517.49 471.159C518.354 471.159 519.032 471.348 519.524 471.727C520.02 472.106 520.373 472.606 520.581 473.227ZM528.94 473.227L527.736 473.568C527.66 473.367 527.548 473.172 527.401 472.983C527.257 472.79 527.06 472.631 526.81 472.506C526.56 472.381 526.24 472.318 525.849 472.318C525.315 472.318 524.87 472.441 524.514 472.688C524.162 472.93 523.986 473.239 523.986 473.614C523.986 473.947 524.107 474.21 524.349 474.403C524.592 474.597 524.971 474.758 525.486 474.886L526.781 475.205C527.562 475.394 528.143 475.684 528.526 476.074C528.908 476.46 529.099 476.958 529.099 477.568C529.099 478.068 528.955 478.515 528.668 478.909C528.384 479.303 527.986 479.614 527.474 479.841C526.963 480.068 526.368 480.182 525.69 480.182C524.8 480.182 524.063 479.989 523.48 479.602C522.897 479.216 522.527 478.652 522.372 477.909L523.645 477.591C523.766 478.061 523.995 478.413 524.332 478.648C524.673 478.883 525.118 479 525.668 479C526.293 479 526.789 478.867 527.156 478.602C527.527 478.333 527.713 478.011 527.713 477.636C527.713 477.333 527.607 477.08 527.395 476.875C527.183 476.667 526.857 476.511 526.418 476.409L524.963 476.068C524.164 475.879 523.577 475.585 523.202 475.188C522.83 474.786 522.645 474.284 522.645 473.682C522.645 473.189 522.783 472.754 523.06 472.375C523.34 471.996 523.721 471.699 524.202 471.483C524.687 471.267 525.236 471.159 525.849 471.159C526.713 471.159 527.391 471.348 527.884 471.727C528.38 472.106 528.732 472.606 528.94 473.227ZM533.095 480L530.436 471.273H531.845L533.732 477.955H533.822L535.686 471.273H537.118L538.959 477.932H539.05L540.936 471.273H542.345L539.686 480H538.368L536.459 473.295H536.322L534.413 480H533.095ZM547.366 480.182C546.579 480.182 545.887 479.994 545.293 479.619C544.702 479.244 544.24 478.72 543.906 478.045C543.577 477.371 543.412 476.583 543.412 475.682C543.412 474.773 543.577 473.979 543.906 473.301C544.24 472.623 544.702 472.097 545.293 471.722C545.887 471.347 546.579 471.159 547.366 471.159C548.154 471.159 548.844 471.347 549.435 471.722C550.029 472.097 550.491 472.623 550.821 473.301C551.154 473.979 551.321 474.773 551.321 475.682C551.321 476.583 551.154 477.371 550.821 478.045C550.491 478.72 550.029 479.244 549.435 479.619C548.844 479.994 548.154 480.182 547.366 480.182ZM547.366 478.977C547.965 478.977 548.457 478.824 548.844 478.517C549.23 478.21 549.516 477.807 549.702 477.307C549.887 476.807 549.98 476.265 549.98 475.682C549.98 475.098 549.887 474.555 549.702 474.051C549.516 473.547 549.23 473.14 548.844 472.83C548.457 472.519 547.965 472.364 547.366 472.364C546.768 472.364 546.276 472.519 545.889 472.83C545.503 473.14 545.217 473.547 545.031 474.051C544.846 474.555 544.753 475.098 544.753 475.682C544.753 476.265 544.846 476.807 545.031 477.307C545.217 477.807 545.503 478.21 545.889 478.517C546.276 478.824 546.768 478.977 547.366 478.977ZM553.368 480V471.273H554.663V472.591H554.754C554.913 472.159 555.201 471.809 555.618 471.54C556.035 471.271 556.504 471.136 557.027 471.136C557.125 471.136 557.249 471.138 557.396 471.142C557.544 471.146 557.656 471.152 557.732 471.159V472.523C557.686 472.511 557.582 472.494 557.419 472.472C557.26 472.445 557.091 472.432 556.913 472.432C556.489 472.432 556.11 472.521 555.777 472.699C555.447 472.873 555.186 473.116 554.993 473.426C554.804 473.733 554.709 474.083 554.709 474.477V480H553.368ZM562.351 480.182C561.624 480.182 560.982 479.998 560.425 479.631C559.868 479.259 559.432 478.737 559.118 478.062C558.804 477.384 558.646 476.583 558.646 475.659C558.646 474.742 558.804 473.947 559.118 473.273C559.432 472.598 559.87 472.078 560.43 471.71C560.991 471.343 561.639 471.159 562.374 471.159C562.942 471.159 563.391 471.254 563.72 471.443C564.054 471.629 564.307 471.841 564.482 472.08C564.66 472.314 564.798 472.508 564.896 472.659H565.01V468.364H566.351V480H565.055V478.659H564.896C564.798 478.818 564.658 479.019 564.476 479.261C564.294 479.5 564.035 479.714 563.697 479.903C563.36 480.089 562.911 480.182 562.351 480.182ZM562.533 478.977C563.071 478.977 563.525 478.837 563.896 478.557C564.268 478.273 564.55 477.881 564.743 477.381C564.936 476.877 565.033 476.295 565.033 475.636C565.033 474.985 564.938 474.415 564.749 473.926C564.559 473.434 564.279 473.051 563.908 472.778C563.536 472.502 563.078 472.364 562.533 472.364C561.964 472.364 561.491 472.509 561.112 472.801C560.737 473.089 560.455 473.481 560.266 473.977C560.08 474.47 559.987 475.023 559.987 475.636C559.987 476.258 560.082 476.822 560.271 477.33C560.464 477.833 560.749 478.235 561.124 478.534C561.502 478.83 561.972 478.977 562.533 478.977Z" fill="black"/>
<rect x="494" y="490" width="446" height="48" rx="8" fill="white"/>
<path d="M507.409 520V508.364H514.432V509.614H508.818V513.545H514.068V514.795H508.818V518.75H514.523V520H507.409ZM518.131 514.75V520H516.79V511.273H518.085V512.636H518.199C518.403 512.193 518.714 511.837 519.131 511.568C519.547 511.295 520.085 511.159 520.744 511.159C521.335 511.159 521.852 511.28 522.295 511.523C522.739 511.761 523.083 512.125 523.33 512.614C523.576 513.098 523.699 513.712 523.699 514.455V520H522.358V514.545C522.358 513.86 522.18 513.326 521.824 512.943C521.468 512.557 520.979 512.364 520.358 512.364C519.93 512.364 519.547 512.456 519.21 512.642C518.877 512.828 518.614 513.098 518.42 513.455C518.227 513.811 518.131 514.242 518.131 514.75ZM529.945 511.273V512.409H525.422V511.273H529.945ZM526.74 509.182H528.081V517.5C528.081 517.879 528.136 518.163 528.246 518.352C528.359 518.538 528.503 518.663 528.678 518.727C528.856 518.788 529.043 518.818 529.24 518.818C529.388 518.818 529.509 518.811 529.604 518.795C529.698 518.777 529.774 518.761 529.831 518.75L530.104 519.955C530.013 519.989 529.886 520.023 529.723 520.057C529.56 520.095 529.354 520.114 529.104 520.114C528.725 520.114 528.354 520.032 527.99 519.869C527.63 519.706 527.331 519.458 527.092 519.125C526.857 518.792 526.74 518.371 526.74 517.864V509.182ZM535.527 520.182C534.686 520.182 533.961 519.996 533.351 519.625C532.745 519.25 532.277 518.727 531.947 518.057C531.622 517.383 531.459 516.598 531.459 515.705C531.459 514.811 531.622 514.023 531.947 513.341C532.277 512.655 532.735 512.121 533.322 511.739C533.913 511.352 534.603 511.159 535.391 511.159C535.845 511.159 536.294 511.235 536.737 511.386C537.18 511.538 537.584 511.784 537.947 512.125C538.311 512.462 538.601 512.909 538.817 513.466C539.033 514.023 539.141 514.708 539.141 515.523V516.091H532.413V514.932H537.777C537.777 514.439 537.679 514 537.482 513.614C537.288 513.227 537.012 512.922 536.652 512.699C536.296 512.475 535.875 512.364 535.391 512.364C534.857 512.364 534.394 512.496 534.004 512.761C533.618 513.023 533.321 513.364 533.112 513.784C532.904 514.205 532.8 514.655 532.8 515.136V515.909C532.8 516.568 532.913 517.127 533.141 517.585C533.372 518.04 533.692 518.386 534.101 518.625C534.51 518.86 534.985 518.977 535.527 518.977C535.879 518.977 536.197 518.928 536.482 518.83C536.769 518.727 537.018 518.576 537.226 518.375C537.434 518.17 537.595 517.917 537.709 517.614L539.004 517.977C538.868 518.417 538.639 518.803 538.317 519.136C537.995 519.466 537.597 519.723 537.124 519.909C536.65 520.091 536.118 520.182 535.527 520.182ZM541.18 520V511.273H542.476V512.591H542.567C542.726 512.159 543.014 511.809 543.43 511.54C543.847 511.271 544.317 511.136 544.839 511.136C544.938 511.136 545.061 511.138 545.209 511.142C545.357 511.146 545.468 511.152 545.544 511.159V512.523C545.499 512.511 545.394 512.494 545.232 512.472C545.072 512.445 544.904 512.432 544.726 512.432C544.302 512.432 543.923 512.521 543.589 512.699C543.26 512.873 542.999 513.116 542.805 513.426C542.616 513.733 542.521 514.083 542.521 514.477V520H541.18ZM551.815 520V508.364H555.747C556.66 508.364 557.406 508.528 557.986 508.858C558.569 509.184 559.001 509.625 559.281 510.182C559.562 510.739 559.702 511.36 559.702 512.045C559.702 512.731 559.562 513.354 559.281 513.915C559.005 514.475 558.577 514.922 557.997 515.256C557.418 515.585 556.675 515.75 555.77 515.75H552.952V514.5H555.724C556.349 514.5 556.851 514.392 557.23 514.176C557.609 513.96 557.884 513.669 558.054 513.301C558.228 512.93 558.315 512.511 558.315 512.045C558.315 511.58 558.228 511.163 558.054 510.795C557.884 510.428 557.607 510.14 557.224 509.932C556.842 509.72 556.334 509.614 555.702 509.614H553.224V520H551.815ZM564.358 520.205C563.805 520.205 563.303 520.1 562.852 519.892C562.402 519.68 562.044 519.375 561.778 518.977C561.513 518.576 561.381 518.091 561.381 517.523C561.381 517.023 561.479 516.617 561.676 516.307C561.873 515.992 562.136 515.746 562.466 515.568C562.795 515.39 563.159 515.258 563.557 515.17C563.958 515.08 564.362 515.008 564.767 514.955C565.297 514.886 565.727 514.835 566.057 514.801C566.39 514.763 566.633 514.701 566.784 514.614C566.939 514.527 567.017 514.375 567.017 514.159V514.114C567.017 513.553 566.864 513.117 566.557 512.807C566.254 512.496 565.794 512.341 565.176 512.341C564.536 512.341 564.034 512.481 563.67 512.761C563.307 513.042 563.051 513.341 562.903 513.659L561.631 513.205C561.858 512.674 562.161 512.261 562.54 511.966C562.922 511.667 563.339 511.458 563.79 511.341C564.244 511.22 564.691 511.159 565.131 511.159C565.411 511.159 565.733 511.193 566.097 511.261C566.464 511.326 566.818 511.46 567.159 511.665C567.504 511.869 567.79 512.178 568.017 512.591C568.244 513.004 568.358 513.557 568.358 514.25V520H567.017V518.818H566.949C566.858 519.008 566.706 519.21 566.494 519.426C566.282 519.642 566 519.826 565.648 519.977C565.295 520.129 564.866 520.205 564.358 520.205ZM564.562 519C565.093 519 565.54 518.896 565.903 518.688C566.271 518.479 566.547 518.21 566.733 517.881C566.922 517.551 567.017 517.205 567.017 516.841V515.614C566.96 515.682 566.835 515.744 566.642 515.801C566.453 515.854 566.233 515.902 565.983 515.943C565.737 515.981 565.496 516.015 565.261 516.045C565.03 516.072 564.843 516.095 564.699 516.114C564.35 516.159 564.025 516.233 563.722 516.335C563.422 516.434 563.18 516.583 562.994 516.784C562.813 516.981 562.722 517.25 562.722 517.591C562.722 518.057 562.894 518.409 563.239 518.648C563.587 518.883 564.028 519 564.562 519ZM576.987 513.227L575.783 513.568C575.707 513.367 575.595 513.172 575.447 512.983C575.304 512.79 575.107 512.631 574.857 512.506C574.607 512.381 574.286 512.318 573.896 512.318C573.362 512.318 572.917 512.441 572.561 512.688C572.209 512.93 572.033 513.239 572.033 513.614C572.033 513.947 572.154 514.21 572.396 514.403C572.639 514.597 573.018 514.758 573.533 514.886L574.828 515.205C575.608 515.394 576.19 515.684 576.572 516.074C576.955 516.46 577.146 516.958 577.146 517.568C577.146 518.068 577.002 518.515 576.714 518.909C576.43 519.303 576.033 519.614 575.521 519.841C575.01 520.068 574.415 520.182 573.737 520.182C572.847 520.182 572.11 519.989 571.527 519.602C570.944 519.216 570.574 518.652 570.419 517.909L571.692 517.591C571.813 518.061 572.042 518.413 572.379 518.648C572.72 518.883 573.165 519 573.714 519C574.339 519 574.836 518.867 575.203 518.602C575.574 518.333 575.76 518.011 575.76 517.636C575.76 517.333 575.654 517.08 575.442 516.875C575.23 516.667 574.904 516.511 574.464 516.409L573.01 516.068C572.211 515.879 571.624 515.585 571.249 515.188C570.877 514.786 570.692 514.284 570.692 513.682C570.692 513.189 570.83 512.754 571.107 512.375C571.387 511.996 571.768 511.699 572.249 511.483C572.733 511.267 573.283 511.159 573.896 511.159C574.76 511.159 575.438 511.348 575.93 511.727C576.427 512.106 576.779 512.606 576.987 513.227ZM585.347 513.227L584.142 513.568C584.066 513.367 583.955 513.172 583.807 512.983C583.663 512.79 583.466 512.631 583.216 512.506C582.966 512.381 582.646 512.318 582.256 512.318C581.722 512.318 581.277 512.441 580.92 512.688C580.568 512.93 580.392 513.239 580.392 513.614C580.392 513.947 580.513 514.21 580.756 514.403C580.998 514.597 581.377 514.758 581.892 514.886L583.188 515.205C583.968 515.394 584.549 515.684 584.932 516.074C585.314 516.46 585.506 516.958 585.506 517.568C585.506 518.068 585.362 518.515 585.074 518.909C584.79 519.303 584.392 519.614 583.881 519.841C583.369 520.068 582.775 520.182 582.097 520.182C581.206 520.182 580.47 519.989 579.886 519.602C579.303 519.216 578.934 518.652 578.778 517.909L580.051 517.591C580.172 518.061 580.402 518.413 580.739 518.648C581.08 518.883 581.525 519 582.074 519C582.699 519 583.195 518.867 583.562 518.602C583.934 518.333 584.119 518.011 584.119 517.636C584.119 517.333 584.013 517.08 583.801 516.875C583.589 516.667 583.263 516.511 582.824 516.409L581.369 516.068C580.57 515.879 579.983 515.585 579.608 515.188C579.237 514.786 579.051 514.284 579.051 513.682C579.051 513.189 579.189 512.754 579.466 512.375C579.746 511.996 580.127 511.699 580.608 511.483C581.093 511.267 581.642 511.159 582.256 511.159C583.119 511.159 583.797 511.348 584.29 511.727C584.786 512.106 585.138 512.606 585.347 513.227ZM589.501 520L586.842 511.273H588.251L590.138 517.955H590.229L592.092 511.273H593.524L595.365 517.932H595.456L597.342 511.273H598.751L596.092 520H594.774L592.865 513.295H592.729L590.82 520H589.501ZM603.773 520.182C602.985 520.182 602.294 519.994 601.699 519.619C601.108 519.244 600.646 518.72 600.312 518.045C599.983 517.371 599.818 516.583 599.818 515.682C599.818 514.773 599.983 513.979 600.312 513.301C600.646 512.623 601.108 512.097 601.699 511.722C602.294 511.347 602.985 511.159 603.773 511.159C604.561 511.159 605.25 511.347 605.841 511.722C606.436 512.097 606.898 512.623 607.227 513.301C607.561 513.979 607.727 514.773 607.727 515.682C607.727 516.583 607.561 517.371 607.227 518.045C606.898 518.72 606.436 519.244 605.841 519.619C605.25 519.994 604.561 520.182 603.773 520.182ZM603.773 518.977C604.371 518.977 604.864 518.824 605.25 518.517C605.636 518.21 605.922 517.807 606.108 517.307C606.294 516.807 606.386 516.265 606.386 515.682C606.386 515.098 606.294 514.555 606.108 514.051C605.922 513.547 605.636 513.14 605.25 512.83C604.864 512.519 604.371 512.364 603.773 512.364C603.174 512.364 602.682 512.519 602.295 512.83C601.909 513.14 601.623 513.547 601.438 514.051C601.252 514.555 601.159 515.098 601.159 515.682C601.159 516.265 601.252 516.807 601.438 517.307C601.623 517.807 601.909 518.21 602.295 518.517C602.682 518.824 603.174 518.977 603.773 518.977ZM609.774 520V511.273H611.07V512.591H611.161C611.32 512.159 611.607 511.809 612.024 511.54C612.441 511.271 612.911 511.136 613.433 511.136C613.532 511.136 613.655 511.138 613.803 511.142C613.95 511.146 614.062 511.152 614.138 511.159V512.523C614.092 512.511 613.988 512.494 613.825 512.472C613.666 512.445 613.498 512.432 613.32 512.432C612.895 512.432 612.517 512.521 612.183 512.699C611.854 512.873 611.592 513.116 611.399 513.426C611.21 513.733 611.115 514.083 611.115 514.477V520H609.774ZM618.757 520.182C618.03 520.182 617.388 519.998 616.831 519.631C616.274 519.259 615.839 518.737 615.524 518.062C615.21 517.384 615.053 516.583 615.053 515.659C615.053 514.742 615.21 513.947 615.524 513.273C615.839 512.598 616.276 512.078 616.837 511.71C617.397 511.343 618.045 511.159 618.78 511.159C619.348 511.159 619.797 511.254 620.126 511.443C620.46 511.629 620.714 511.841 620.888 512.08C621.066 512.314 621.204 512.508 621.303 512.659H621.416V508.364H622.757V520H621.462V518.659H621.303C621.204 518.818 621.064 519.019 620.882 519.261C620.7 519.5 620.441 519.714 620.104 519.903C619.767 520.089 619.318 520.182 618.757 520.182ZM618.939 518.977C619.477 518.977 619.931 518.837 620.303 518.557C620.674 518.273 620.956 517.881 621.149 517.381C621.342 516.877 621.439 516.295 621.439 515.636C621.439 514.985 621.344 514.415 621.155 513.926C620.965 513.434 620.685 513.051 620.314 512.778C619.943 512.502 619.484 512.364 618.939 512.364C618.371 512.364 617.897 512.509 617.518 512.801C617.143 513.089 616.861 513.481 616.672 513.977C616.486 514.47 616.393 515.023 616.393 515.636C616.393 516.258 616.488 516.822 616.678 517.33C616.871 517.833 617.155 518.235 617.53 518.534C617.909 518.83 618.378 518.977 618.939 518.977Z" fill="#9AA1B9"/>
<rect x="494" y="490" width="446" height="48" rx="8" stroke="#D6D9E4"/>
<g filter="url(#filter1_d_62_9179)">
<rect x="494" y="578" width="446" height="60" rx="12" fill="#2F5FAC" shape-rendering="crispEdges"/>
<path d="M694.496 614V602.364H696.956V611.972H701.945V614H694.496ZM707.472 614.17C706.589 614.17 705.826 613.983 705.182 613.608C704.542 613.229 704.047 612.703 703.699 612.028C703.35 611.35 703.176 610.564 703.176 609.67C703.176 608.769 703.35 607.981 703.699 607.307C704.047 606.629 704.542 606.102 705.182 605.727C705.826 605.348 706.589 605.159 707.472 605.159C708.354 605.159 709.116 605.348 709.756 605.727C710.4 606.102 710.896 606.629 711.244 607.307C711.593 607.981 711.767 608.769 711.767 609.67C711.767 610.564 711.593 611.35 711.244 612.028C710.896 612.703 710.4 613.229 709.756 613.608C709.116 613.983 708.354 614.17 707.472 614.17ZM707.483 612.295C707.884 612.295 708.22 612.182 708.489 611.955C708.758 611.723 708.96 611.409 709.097 611.011C709.237 610.614 709.307 610.161 709.307 609.653C709.307 609.146 709.237 608.693 709.097 608.295C708.96 607.898 708.758 607.583 708.489 607.352C708.22 607.121 707.884 607.006 707.483 607.006C707.078 607.006 706.737 607.121 706.46 607.352C706.188 607.583 705.981 607.898 705.841 608.295C705.705 608.693 705.636 609.146 705.636 609.653C705.636 610.161 705.705 610.614 705.841 611.011C705.981 611.409 706.188 611.723 706.46 611.955C706.737 612.182 707.078 612.295 707.483 612.295ZM717.273 617.455C716.489 617.455 715.816 617.347 715.256 617.131C714.699 616.919 714.256 616.629 713.926 616.261C713.597 615.894 713.383 615.481 713.284 615.023L715.523 614.722C715.591 614.896 715.699 615.059 715.847 615.21C715.994 615.362 716.189 615.483 716.432 615.574C716.678 615.669 716.977 615.716 717.33 615.716C717.856 615.716 718.29 615.587 718.631 615.33C718.975 615.076 719.148 614.65 719.148 614.051V612.455H719.045C718.939 612.697 718.78 612.926 718.568 613.142C718.356 613.358 718.083 613.534 717.75 613.67C717.417 613.807 717.019 613.875 716.557 613.875C715.902 613.875 715.305 613.723 714.767 613.42C714.233 613.114 713.807 612.646 713.489 612.017C713.174 611.384 713.017 610.585 713.017 609.619C713.017 608.631 713.178 607.805 713.5 607.142C713.822 606.479 714.25 605.983 714.784 605.653C715.322 605.324 715.911 605.159 716.551 605.159C717.04 605.159 717.449 605.242 717.778 605.409C718.108 605.572 718.373 605.777 718.574 606.023C718.778 606.265 718.936 606.504 719.045 606.739H719.136V605.273H721.54V614.085C721.54 614.828 721.358 615.449 720.994 615.949C720.631 616.449 720.127 616.824 719.483 617.074C718.843 617.328 718.106 617.455 717.273 617.455ZM717.324 612.057C717.714 612.057 718.044 611.96 718.312 611.767C718.585 611.57 718.794 611.29 718.938 610.926C719.085 610.559 719.159 610.119 719.159 609.608C719.159 609.097 719.087 608.653 718.943 608.278C718.799 607.9 718.591 607.606 718.318 607.398C718.045 607.189 717.714 607.085 717.324 607.085C716.926 607.085 716.591 607.193 716.318 607.409C716.045 607.621 715.839 607.917 715.699 608.295C715.559 608.674 715.489 609.112 715.489 609.608C715.489 610.112 715.559 610.547 715.699 610.915C715.843 611.278 716.049 611.561 716.318 611.761C716.591 611.958 716.926 612.057 717.324 612.057ZM727.169 614V605.273H729.589V614H727.169ZM728.385 604.148C728.025 604.148 727.716 604.028 727.459 603.79C727.205 603.547 727.078 603.258 727.078 602.92C727.078 602.587 727.205 602.301 727.459 602.062C727.716 601.82 728.025 601.699 728.385 601.699C728.745 601.699 729.052 601.82 729.305 602.062C729.563 602.301 729.692 602.587 729.692 602.92C729.692 603.258 729.563 603.547 729.305 603.79C729.052 604.028 728.745 604.148 728.385 604.148ZM733.949 608.955V614H731.528V605.273H733.835V606.812H733.938C734.131 606.305 734.455 605.903 734.909 605.608C735.364 605.309 735.915 605.159 736.562 605.159C737.169 605.159 737.697 605.292 738.148 605.557C738.598 605.822 738.949 606.201 739.199 606.693C739.449 607.182 739.574 607.765 739.574 608.443V614H737.153V608.875C737.157 608.341 737.021 607.924 736.744 607.625C736.468 607.322 736.087 607.17 735.602 607.17C735.277 607.17 734.989 607.241 734.739 607.381C734.492 607.521 734.299 607.725 734.159 607.994C734.023 608.259 733.953 608.58 733.949 608.955Z" fill="white"/>
</g>
</g>
<defs>
<filter id="filter0_d_62_9179" x="414" y="130" width="614" height="616" filterUnits="userSpaceOnUse" color-interpolation-filters="sRGB">
<feFlood flood-opacity="0" result="BackgroundImageFix"/>
<feColorMatrix in="SourceAlpha" type="matrix" values="0 0 0 0 0 0 0 0 0 0 0 0 0 0 0 0 0 0 127 0" result="hardAlpha"/>
<feOffset dx="4" dy="4"/>
<feGaussianBlur stdDeviation="12"/>
<feComposite in2="hardAlpha" operator="out"/>
<feColorMatrix type="matrix" values="0 0 0 0 0 0 0 0 0 0 0 0 0 0 0 0 0 0 0.08 0"/>
<feBlend mode="normal" in2="BackgroundImageFix" result="effect1_dropShadow_62_9179"/>
<feBlend mode="normal" in="SourceGraphic" in2="effect1_dropShadow_62_9179" result="shape"/>
</filter>
<filter id="filter1_d_62_9179" x="474" y="558" width="494" height="108" filterUnits="userSpaceOnUse" color-interpolation-filters="sRGB">
<feFlood flood-opacity="0" result="BackgroundImageFix"/>
<feColorMatrix in="SourceAlpha" type="matrix" values="0 0 0 0 0 0 0 0 0 0 0 0 0 0 0 0 0 0 127 0" result="hardAlpha"/>
<feOffset dx="4" dy="4"/>
<feGaussianBlur stdDeviation="12"/>
<feComposite in2="hardAlpha" operator="out"/>
<feColorMatrix type="matrix" values="0 0 0 0 0 0 0 0 0 0 0 0 0 0 0 0 0 0 0.08 0"/>
<feBlend mode="normal" in2="BackgroundImageFix" result="effect1_dropShadow_62_9179"/>
<feBlend mode="normal" in="SourceGraphic" in2="effect1_dropShadow_62_9179" result="shape"/>
</filter>
<linearGradient id="paint0_linear_62_9179" x1="1353.5" y1="-165.888" x2="386.867" y2="-188.177" gradientUnits="userSpaceOnUse">
<stop stop-color="#5697FF"/>
<stop offset="1" stop-color="#2558DD"/>
</linearGradient>
<linearGradient id="paint1_linear_62_9179" x1="566.071" y1="232.903" x2="596.97" y2="328.866" gradientUnits="userSpaceOnUse">
<stop stop-color="#95BEFF"/>
<stop offset="1" stop-color="#0040E6"/>
</linearGradient>
<linearGradient id="paint2_linear_62_9179" x1="566.071" y1="232.903" x2="596.97" y2="328.866" gradientUnits="userSpaceOnUse">
<stop stop-color="#95BEFF"/>
<stop offset="1" stop-color="#0040E6"/>
</linearGradient>
<linearGradient id="paint3_linear_62_9179" x1="566.071" y1="232.903" x2="596.97" y2="328.866" gradientUnits="userSpaceOnUse">
<stop stop-color="#95BEFF"/>
<stop offset="1" stop-color="#0040E6"/>
</linearGradient>
<linearGradient id="paint4_linear_62_9179" x1="566.071" y1="232.903" x2="596.97" y2="328.866" gradientUnits="userSpaceOnUse">
<stop stop-color="#95BEFF"/>
<stop offset="1" stop-color="#0040E6"/>
</linearGradient>
<linearGradient id="paint5_linear_62_9179" x1="566.071" y1="232.903" x2="596.97" y2="328.866" gradientUnits="userSpaceOnUse">
<stop stop-color="#95BEFF"/>
<stop offset="1" stop-color="#0040E6"/>
</linearGradient>
<linearGradient id="paint6_linear_62_9179" x1="566.071" y1="232.903" x2="596.97" y2="328.866" gradientUnits="userSpaceOnUse">
<stop stop-color="#95BEFF"/>
<stop offset="1" stop-color="#0040E6"/>
</linearGradient>
<linearGradient id="paint7_linear_62_9179" x1="566.071" y1="232.903" x2="596.97" y2="328.866" gradientUnits="userSpaceOnUse">
<stop stop-color="#95BEFF"/>
<stop offset="1" stop-color="#0040E6"/>
</linearGradient>
<linearGradient id="paint8_linear_62_9179" x1="566.071" y1="232.903" x2="596.97" y2="328.866" gradientUnits="userSpaceOnUse">
<stop stop-color="#95BEFF"/>
<stop offset="1" stop-color="#0040E6"/>
</linearGradient>
<linearGradient id="paint9_linear_62_9179" x1="566.071" y1="232.903" x2="596.97" y2="328.866" gradientUnits="userSpaceOnUse">
<stop stop-color="#95BEFF"/>
<stop offset="1" stop-color="#0040E6"/>
</linearGradient>
<linearGradient id="paint10_linear_62_9179" x1="566.071" y1="232.903" x2="596.97" y2="328.866" gradientUnits="userSpaceOnUse">
<stop stop-color="#95BEFF"/>
<stop offset="1" stop-color="#0040E6"/>
</linearGradient>
</defs>
</svg>
