<svg width="140" height="16" viewBox="0 0 140 16" fill="none" xmlns="http://www.w3.org/2000/svg">
<path d="M8.28151 16C13.1162 16 16.1929 13.5884 16.1929 9.64638V9.29855H12.3297V9.64638C12.3297 11.687 11.1731 12.6609 8.3509 12.6609C4.9504 12.6609 3.6781 11.4551 3.6781 8C3.6781 4.54493 4.9504 3.33913 8.3509 3.33913C11.1731 3.33913 12.3297 4.31304 12.3297 6.35362V6.70145H16.1929V6.35362C16.1929 2.41159 13.0931 0 8.28151 0C3.16918 0 0 3.15362 0 8C0 12.8464 3.16918 16 8.28151 16Z" fill="url(#paint0_linear_2231_1742)"/>
<path d="M23.8729 16C27.8286 16 30.4889 13.6348 30.4889 9.97101C30.4889 6.26087 27.8286 3.91884 23.8729 3.91884C19.9173 3.91884 17.257 6.26087 17.257 9.97101C17.257 13.6348 19.9173 16 23.8729 16ZM23.8729 12.9159C21.5134 12.9159 20.7038 12.0116 20.7038 9.97101C20.7038 7.93043 21.5134 6.97971 23.8729 6.97971C26.2094 6.97971 27.0421 7.93043 27.0421 9.97101C27.0421 12.0116 26.2094 12.9159 23.8729 12.9159Z" fill="url(#paint1_linear_2231_1742)"/>
<path d="M36.6944 16C39.7479 16 41.159 14.1681 41.4598 12.2203H41.6448V15.7681H44.8834V4.15072H41.4135V10.0406C41.4135 12.0116 40.6039 12.8928 38.3368 12.8928C36.1392 12.8928 35.3527 12.1043 35.3527 10.2261V4.15072H31.8828V11.3855C31.8828 13.9826 33.4327 16 36.6944 16Z" fill="url(#paint2_linear_2231_1742)"/>
<path d="M50.1275 15.7681V9.04348C50.1275 7.58261 50.6827 6.86377 52.2326 6.86377C53.6436 6.86377 54.1526 7.42029 54.1526 8.69565V9.90145H57.6225V7.97681C57.6225 5.70435 56.5584 3.91884 53.9675 3.91884C51.6311 3.91884 50.4051 5.35652 50.0812 7.23478H49.873V4.15072H46.6576V15.7681H50.1275Z" fill="url(#paint3_linear_2231_1742)"/>
<path d="M64.7316 16C68.3172 16 70.4685 14.5623 70.4685 12.3826C70.4685 10.458 69.3119 9.41449 66.2121 9.06667L63.7369 8.76522C62.2102 8.57971 61.8863 8.32464 61.8863 7.72174C61.8863 6.97971 62.3258 6.67826 64.0608 6.67826C66.189 6.67826 66.6516 7.16522 66.6516 8.11594V8.25507H70.1215V8.18551C70.1215 5.35652 67.9702 3.91884 64.1764 3.91884C60.1976 3.91884 58.4627 5.54203 58.4627 7.58261C58.4627 9.53043 59.7581 10.5739 62.0714 10.829L65.3331 11.2232C66.6979 11.4087 67.0449 11.5942 67.0449 12.2435C67.0449 12.9391 66.6054 13.2406 64.7547 13.2406C62.7885 13.2406 62.1408 12.9623 62.1408 11.9188V11.7101H58.6708V11.7797C58.6708 14.4696 60.8222 16 64.7316 16Z" fill="url(#paint4_linear_2231_1742)"/>
<path d="M78.0219 16C81.7 16 84.1521 14.2377 84.1521 11.7101V11.4551H80.6822V11.687C80.6822 12.6841 79.965 13.2174 77.9062 13.2174C75.6624 13.2174 74.8296 12.4522 74.7371 10.6667H84.1752C84.2215 10.2725 84.2677 9.97101 84.2677 9.55362C84.2677 5.91304 81.7463 3.91884 77.9525 3.91884C74.1356 3.91884 71.5216 6.26087 71.5216 9.97101C71.5216 14.0986 74.1587 16 78.0219 16ZM77.8831 6.63188C79.9188 6.63188 80.8441 7.30435 80.9366 8.83478H74.7833C74.9452 7.32754 75.8243 6.63188 77.8831 6.63188Z" fill="url(#paint5_linear_2231_1742)"/>
<path d="M89.2091 15.7681V9.97101H98.5084V6.86377H89.2091V3.36232H98.8554V0.231884H85.7392V15.7681H89.2091Z" fill="url(#paint6_linear_2231_1742)"/>
<path d="M103.803 15.7681V0.231884H100.333V15.7681H103.803Z" fill="url(#paint7_linear_2231_1742)"/>
<path d="M111.795 16C115.751 16 118.411 13.6348 118.411 9.97101C118.411 6.26087 115.751 3.91884 111.795 3.91884C107.84 3.91884 105.179 6.26087 105.179 9.97101C105.179 13.6348 107.84 16 111.795 16ZM111.795 12.9159C109.436 12.9159 108.626 12.0116 108.626 9.97101C108.626 7.93043 109.436 6.97971 111.795 6.97971C114.132 6.97971 114.964 7.93043 114.964 9.97101C114.964 12.0116 114.132 12.9159 111.795 12.9159Z" fill="url(#paint8_linear_2231_1742)"/>
<path d="M126.398 15.7681L128.411 10.1797L129.29 6.97971H129.544L130.4 10.1797L132.389 15.7681H136.715L140 4.15072H136.461L135.119 9.46087L134.61 13.0783H134.379L133.453 9.11304L131.718 4.15072H127.254L125.496 9.11304L124.57 13.0783H124.339L123.853 9.46087L122.489 4.15072H118.903L122.072 15.7681H126.398Z" fill="url(#paint9_linear_2231_1742)"/>
<defs>
<linearGradient id="paint0_linear_2231_1742" x1="2.92045" y1="10.1792" x2="16.6532" y2="52.8293" gradientUnits="userSpaceOnUse">
<stop stop-color="#95BEFF"/>
<stop offset="1" stop-color="#0040E6"/>
</linearGradient>
<linearGradient id="paint1_linear_2231_1742" x1="2.92045" y1="10.1792" x2="16.6532" y2="52.8293" gradientUnits="userSpaceOnUse">
<stop stop-color="#95BEFF"/>
<stop offset="1" stop-color="#0040E6"/>
</linearGradient>
<linearGradient id="paint2_linear_2231_1742" x1="2.92045" y1="10.1792" x2="16.6532" y2="52.8293" gradientUnits="userSpaceOnUse">
<stop stop-color="#95BEFF"/>
<stop offset="1" stop-color="#0040E6"/>
</linearGradient>
<linearGradient id="paint3_linear_2231_1742" x1="2.92045" y1="10.1792" x2="16.6532" y2="52.8293" gradientUnits="userSpaceOnUse">
<stop stop-color="#95BEFF"/>
<stop offset="1" stop-color="#0040E6"/>
</linearGradient>
<linearGradient id="paint4_linear_2231_1742" x1="2.92045" y1="10.1792" x2="16.6532" y2="52.8293" gradientUnits="userSpaceOnUse">
<stop stop-color="#95BEFF"/>
<stop offset="1" stop-color="#0040E6"/>
</linearGradient>
<linearGradient id="paint5_linear_2231_1742" x1="2.92045" y1="10.1792" x2="16.6532" y2="52.8293" gradientUnits="userSpaceOnUse">
<stop stop-color="#95BEFF"/>
<stop offset="1" stop-color="#0040E6"/>
</linearGradient>
<linearGradient id="paint6_linear_2231_1742" x1="2.92045" y1="10.1792" x2="16.6532" y2="52.8293" gradientUnits="userSpaceOnUse">
<stop stop-color="#95BEFF"/>
<stop offset="1" stop-color="#0040E6"/>
</linearGradient>
<linearGradient id="paint7_linear_2231_1742" x1="2.92045" y1="10.1792" x2="16.6532" y2="52.8293" gradientUnits="userSpaceOnUse">
<stop stop-color="#95BEFF"/>
<stop offset="1" stop-color="#0040E6"/>
</linearGradient>
<linearGradient id="paint8_linear_2231_1742" x1="2.92045" y1="10.1792" x2="16.6532" y2="52.8293" gradientUnits="userSpaceOnUse">
<stop stop-color="#95BEFF"/>
<stop offset="1" stop-color="#0040E6"/>
</linearGradient>
<linearGradient id="paint9_linear_2231_1742" x1="2.92045" y1="10.1792" x2="16.6532" y2="52.8293" gradientUnits="userSpaceOnUse">
<stop stop-color="#95BEFF"/>
<stop offset="1" stop-color="#0040E6"/>
</linearGradient>
</defs>
</svg>
