<svg width="1440" height="936" viewBox="0 0 1440 936" fill="none" xmlns="http://www.w3.org/2000/svg">
<g clip-path="url(#clip0_27_337)">
<rect width="1440" height="936" fill="#FCFCFE"/>
<path d="M1326.14 374C1393.26 454 1428.31 557.5 1439.64 617V0C1406.97 1.16669 1335.83 40.0145 1297.26 105.5C1244.26 195.5 1265.29 301.478 1326.14 374Z" fill="#2F5FAC"/>
<circle cx="1363.5" cy="606.5" r="16" stroke="#F47E20" stroke-width="3"/>
<path d="M93 641.59C93 518.894 17.6667 443.407 -20 421V839C17.6667 824.32 93 764.285 93 641.59Z" fill="#FBAA1C"/>
<circle cx="131.703" cy="213.703" r="36.5" transform="rotate(-75 131.703 213.703)" fill="#C6D6EF"/>
<path d="M198.843 284L193.838 302.68" stroke="#2FAC61" stroke-width="3" stroke-linecap="round"/>
<path d="M187 290.838L205.68 295.843" stroke="#2FAC61" stroke-width="3" stroke-linecap="round"/>
<path d="M502.003 281L494.741 254.818H498.896L503.997 275.094H504.24L509.545 254.818H513.662L518.967 275.107H519.21L524.298 254.818H528.466L521.192 281H517.216L511.706 261.389H511.501L505.991 281H502.003ZM537.57 281.396C535.636 281.396 533.97 280.983 532.572 280.156C531.183 279.321 530.109 278.149 529.35 276.641C528.6 275.124 528.225 273.347 528.225 271.31C528.225 269.298 528.6 267.526 529.35 265.991C530.109 264.457 531.166 263.26 532.521 262.399C533.884 261.538 535.478 261.108 537.302 261.108C538.41 261.108 539.484 261.291 540.524 261.658C541.563 262.024 542.497 262.599 543.323 263.384C544.15 264.168 544.802 265.186 545.279 266.439C545.757 267.683 545.995 269.196 545.995 270.977V272.332H530.386V269.469H542.249C542.249 268.463 542.045 267.572 541.636 266.797C541.227 266.013 540.651 265.395 539.91 264.943C539.177 264.491 538.316 264.266 537.328 264.266C536.254 264.266 535.316 264.53 534.515 265.058C533.722 265.578 533.109 266.26 532.674 267.104C532.248 267.939 532.035 268.847 532.035 269.827V272.064C532.035 273.376 532.265 274.493 532.725 275.413C533.194 276.334 533.846 277.037 534.681 277.523C535.517 278 536.492 278.239 537.609 278.239C538.333 278.239 538.994 278.136 539.59 277.932C540.187 277.719 540.703 277.403 541.137 276.986C541.572 276.568 541.904 276.053 542.134 275.439L545.752 276.091C545.463 277.156 544.943 278.089 544.193 278.891C543.451 279.683 542.518 280.301 541.393 280.744C540.276 281.179 539.002 281.396 537.57 281.396ZM553.339 254.818V281H549.516V254.818H553.339ZM566.032 281.396C564.132 281.396 562.496 280.966 561.123 280.105C559.76 279.236 558.711 278.038 557.978 276.513C557.246 274.987 556.879 273.24 556.879 271.271C556.879 269.277 557.254 267.517 558.004 265.991C558.754 264.457 559.811 263.26 561.175 262.399C562.538 261.538 564.145 261.108 565.994 261.108C567.486 261.108 568.815 261.385 569.983 261.939C571.15 262.484 572.092 263.251 572.808 264.24C573.532 265.229 573.963 266.384 574.099 267.705H570.379C570.175 266.784 569.706 265.991 568.973 265.327C568.248 264.662 567.277 264.33 566.058 264.33C564.993 264.33 564.059 264.611 563.258 265.173C562.466 265.727 561.848 266.52 561.405 267.551C560.961 268.574 560.74 269.784 560.74 271.182C560.74 272.614 560.957 273.849 561.392 274.889C561.827 275.929 562.44 276.734 563.233 277.305C564.034 277.876 564.976 278.162 566.058 278.162C566.782 278.162 567.439 278.03 568.027 277.766C568.623 277.493 569.122 277.105 569.523 276.602C569.932 276.099 570.217 275.494 570.379 274.787H574.099C573.963 276.057 573.55 277.19 572.859 278.188C572.169 279.185 571.244 279.969 570.085 280.54C568.934 281.111 567.584 281.396 566.032 281.396ZM585.738 281.396C583.897 281.396 582.291 280.974 580.919 280.131C579.546 279.287 578.481 278.107 577.723 276.589C576.964 275.072 576.585 273.3 576.585 271.271C576.585 269.234 576.964 267.453 577.723 265.928C578.481 264.402 579.546 263.217 580.919 262.374C582.291 261.53 583.897 261.108 585.738 261.108C587.579 261.108 589.186 261.53 590.558 262.374C591.93 263.217 592.995 264.402 593.754 265.928C594.512 267.453 594.892 269.234 594.892 271.271C594.892 273.3 594.512 275.072 593.754 276.589C592.995 278.107 591.93 279.287 590.558 280.131C589.186 280.974 587.579 281.396 585.738 281.396ZM585.751 278.188C586.944 278.188 587.933 277.872 588.717 277.241C589.501 276.611 590.081 275.771 590.456 274.723C590.839 273.675 591.031 272.52 591.031 271.259C591.031 270.006 590.839 268.855 590.456 267.807C590.081 266.75 589.501 265.902 588.717 265.263C587.933 264.624 586.944 264.304 585.751 264.304C584.549 264.304 583.552 264.624 582.76 265.263C581.975 265.902 581.392 266.75 581.008 267.807C580.633 268.855 580.446 270.006 580.446 271.259C580.446 272.52 580.633 273.675 581.008 274.723C581.392 275.771 581.975 276.611 582.76 277.241C583.552 277.872 584.549 278.188 585.751 278.188ZM598.438 281V261.364H602.107V264.56H602.35C602.759 263.477 603.428 262.634 604.357 262.028C605.286 261.415 606.399 261.108 607.694 261.108C609.007 261.108 610.106 261.415 610.992 262.028C611.887 262.642 612.548 263.486 612.974 264.56H613.178C613.647 263.511 614.393 262.676 615.416 262.054C616.438 261.423 617.657 261.108 619.072 261.108C620.853 261.108 622.306 261.666 623.431 262.783C624.565 263.899 625.132 265.582 625.132 267.832V281H621.309V268.19C621.309 266.861 620.947 265.898 620.222 265.301C619.498 264.705 618.633 264.406 617.627 264.406C616.383 264.406 615.416 264.79 614.725 265.557C614.035 266.315 613.69 267.291 613.69 268.484V281H609.88V267.947C609.88 266.882 609.548 266.026 608.883 265.378C608.218 264.73 607.353 264.406 606.288 264.406C605.563 264.406 604.894 264.598 604.281 264.982C603.676 265.357 603.186 265.881 602.811 266.554C602.444 267.227 602.261 268.007 602.261 268.893V281H598.438ZM637.998 281.396C636.063 281.396 634.397 280.983 632.999 280.156C631.61 279.321 630.536 278.149 629.778 276.641C629.028 275.124 628.653 273.347 628.653 271.31C628.653 269.298 629.028 267.526 629.778 265.991C630.536 264.457 631.593 263.26 632.948 262.399C634.312 261.538 635.905 261.108 637.729 261.108C638.837 261.108 639.911 261.291 640.951 261.658C641.991 262.024 642.924 262.599 643.751 263.384C644.577 264.168 645.229 265.186 645.707 266.439C646.184 267.683 646.423 269.196 646.423 270.977V272.332H630.813V269.469H642.677C642.677 268.463 642.472 267.572 642.063 266.797C641.654 266.013 641.079 265.395 640.337 264.943C639.604 264.491 638.744 264.266 637.755 264.266C636.681 264.266 635.744 264.53 634.942 265.058C634.15 265.578 633.536 266.26 633.102 267.104C632.675 267.939 632.462 268.847 632.462 269.827V272.064C632.462 273.376 632.692 274.493 633.153 275.413C633.621 276.334 634.273 277.037 635.109 277.523C635.944 278 636.92 278.239 638.036 278.239C638.761 278.239 639.421 278.136 640.018 277.932C640.614 277.719 641.13 277.403 641.565 276.986C641.999 276.568 642.332 276.053 642.562 275.439L646.18 276.091C645.89 277.156 645.37 278.089 644.62 278.891C643.879 279.683 642.945 280.301 641.82 280.744C640.704 281.179 639.43 281.396 637.998 281.396ZM659.058 281V254.818H662.88V264.547H663.11C663.332 264.138 663.652 263.665 664.069 263.128C664.487 262.591 665.066 262.122 665.808 261.722C666.549 261.312 667.529 261.108 668.748 261.108C670.333 261.108 671.748 261.509 672.992 262.31C674.237 263.111 675.213 264.266 675.92 265.774C676.636 267.283 676.994 269.098 676.994 271.22C676.994 273.342 676.64 275.162 675.933 276.679C675.225 278.187 674.254 279.351 673.018 280.169C671.782 280.979 670.372 281.384 668.787 281.384C667.593 281.384 666.617 281.183 665.859 280.783C665.109 280.382 664.521 279.913 664.095 279.376C663.669 278.839 663.341 278.362 663.11 277.945H662.791V281H659.058ZM662.804 271.182C662.804 272.562 663.004 273.773 663.404 274.812C663.805 275.852 664.385 276.666 665.143 277.254C665.902 277.834 666.831 278.124 667.93 278.124C669.072 278.124 670.027 277.821 670.794 277.216C671.561 276.602 672.14 275.771 672.532 274.723C672.933 273.675 673.133 272.494 673.133 271.182C673.133 269.886 672.937 268.723 672.545 267.692C672.162 266.661 671.582 265.847 670.806 265.25C670.039 264.653 669.081 264.355 667.93 264.355C666.822 264.355 665.885 264.641 665.117 265.212C664.359 265.783 663.784 266.58 663.392 267.602C663 268.625 662.804 269.818 662.804 271.182ZM686.281 281.435C685.036 281.435 683.911 281.205 682.906 280.744C681.9 280.276 681.103 279.598 680.515 278.712C679.935 277.825 679.646 276.739 679.646 275.452C679.646 274.344 679.859 273.432 680.285 272.716C680.711 272 681.286 271.433 682.011 271.016C682.735 270.598 683.545 270.283 684.44 270.07C685.335 269.857 686.247 269.695 687.176 269.584C688.352 269.447 689.306 269.337 690.039 269.251C690.772 269.158 691.305 269.009 691.637 268.804C691.97 268.599 692.136 268.267 692.136 267.807V267.717C692.136 266.601 691.82 265.736 691.19 265.122C690.568 264.509 689.639 264.202 688.403 264.202C687.116 264.202 686.102 264.487 685.36 265.058C684.627 265.621 684.12 266.247 683.839 266.938L680.247 266.119C680.673 264.926 681.295 263.963 682.113 263.23C682.94 262.489 683.89 261.952 684.964 261.619C686.038 261.278 687.167 261.108 688.352 261.108C689.136 261.108 689.967 261.202 690.845 261.389C691.731 261.568 692.558 261.901 693.325 262.386C694.1 262.872 694.735 263.567 695.23 264.47C695.724 265.365 695.971 266.528 695.971 267.96V281H692.238V278.315H692.085C691.837 278.81 691.467 279.295 690.972 279.773C690.478 280.25 689.843 280.646 689.068 280.962C688.292 281.277 687.363 281.435 686.281 281.435ZM687.112 278.366C688.168 278.366 689.072 278.158 689.822 277.74C690.58 277.322 691.156 276.777 691.548 276.104C691.948 275.422 692.149 274.693 692.149 273.918V271.386C692.012 271.523 691.748 271.651 691.356 271.77C690.972 271.881 690.533 271.979 690.039 272.064C689.545 272.141 689.063 272.213 688.595 272.281C688.126 272.341 687.734 272.392 687.418 272.435C686.677 272.528 685.999 272.686 685.386 272.908C684.781 273.129 684.295 273.449 683.928 273.866C683.57 274.276 683.391 274.821 683.391 275.503C683.391 276.449 683.741 277.165 684.44 277.651C685.139 278.128 686.029 278.366 687.112 278.366ZM708.614 281.396C706.713 281.396 705.077 280.966 703.704 280.105C702.341 279.236 701.293 278.038 700.56 276.513C699.827 274.987 699.46 273.24 699.46 271.271C699.46 269.277 699.835 267.517 700.585 265.991C701.335 264.457 702.392 263.26 703.756 262.399C705.119 261.538 706.726 261.108 708.575 261.108C710.067 261.108 711.396 261.385 712.564 261.939C713.731 262.484 714.673 263.251 715.389 264.24C716.114 265.229 716.544 266.384 716.68 267.705H712.96C712.756 266.784 712.287 265.991 711.554 265.327C710.829 264.662 709.858 264.33 708.639 264.33C707.574 264.33 706.641 264.611 705.839 265.173C705.047 265.727 704.429 266.52 703.986 267.551C703.543 268.574 703.321 269.784 703.321 271.182C703.321 272.614 703.538 273.849 703.973 274.889C704.408 275.929 705.021 276.734 705.814 277.305C706.615 277.876 707.557 278.162 708.639 278.162C709.364 278.162 710.02 278.03 710.608 277.766C711.204 277.493 711.703 277.105 712.104 276.602C712.513 276.099 712.798 275.494 712.96 274.787H716.68C716.544 276.057 716.131 277.19 715.44 278.188C714.75 279.185 713.825 279.969 712.666 280.54C711.516 281.111 710.165 281.396 708.614 281.396ZM723.564 274.339L723.538 269.673H724.203L732.027 261.364H736.603L727.68 270.824H727.079L723.564 274.339ZM720.048 281V254.818H723.87V281H720.048ZM732.449 281L725.417 271.668L728.051 268.996L737.14 281H732.449ZM744.187 254.818L743.854 273.47H740.313L739.981 254.818H744.187ZM742.09 281.243C741.383 281.243 740.778 280.996 740.275 280.501C739.772 279.999 739.525 279.393 739.533 278.686C739.525 277.987 739.772 277.391 740.275 276.896C740.778 276.393 741.383 276.142 742.09 276.142C742.78 276.142 743.377 276.393 743.88 276.896C744.383 277.391 744.638 277.987 744.647 278.686C744.638 279.155 744.515 279.585 744.276 279.977C744.046 280.361 743.739 280.668 743.356 280.898C742.972 281.128 742.55 281.243 742.09 281.243Z" fill="#22269E"/>
<path d="M495.409 345V333.364H502.432V334.614H496.818V338.545H502.068V339.795H496.818V343.75H502.523V345H495.409ZM504.79 345V336.273H506.085V337.636H506.199C506.381 337.17 506.674 336.809 507.08 336.551C507.485 336.29 507.972 336.159 508.54 336.159C509.116 336.159 509.595 336.29 509.977 336.551C510.364 336.809 510.665 337.17 510.881 337.636H510.972C511.195 337.186 511.53 336.828 511.977 336.562C512.424 336.294 512.96 336.159 513.585 336.159C514.366 336.159 515.004 336.403 515.5 336.892C515.996 337.377 516.244 338.133 516.244 339.159V345H514.903V339.159C514.903 338.515 514.727 338.055 514.375 337.778C514.023 337.502 513.608 337.364 513.131 337.364C512.517 337.364 512.042 337.549 511.705 337.92C511.367 338.288 511.199 338.754 511.199 339.318V345H509.835V339.023C509.835 338.527 509.674 338.127 509.352 337.824C509.03 337.517 508.616 337.364 508.108 337.364C507.759 337.364 507.434 337.456 507.131 337.642C506.831 337.828 506.589 338.085 506.403 338.415C506.222 338.741 506.131 339.117 506.131 339.545V345H504.79ZM521.264 345.205C520.711 345.205 520.209 345.1 519.759 344.892C519.308 344.68 518.95 344.375 518.685 343.977C518.42 343.576 518.287 343.091 518.287 342.523C518.287 342.023 518.385 341.617 518.582 341.307C518.779 340.992 519.043 340.746 519.372 340.568C519.702 340.39 520.065 340.258 520.463 340.17C520.865 340.08 521.268 340.008 521.673 339.955C522.204 339.886 522.634 339.835 522.963 339.801C523.296 339.763 523.539 339.701 523.69 339.614C523.846 339.527 523.923 339.375 523.923 339.159V339.114C523.923 338.553 523.77 338.117 523.463 337.807C523.16 337.496 522.7 337.341 522.082 337.341C521.442 337.341 520.94 337.481 520.577 337.761C520.213 338.042 519.957 338.341 519.81 338.659L518.537 338.205C518.764 337.674 519.067 337.261 519.446 336.966C519.829 336.667 520.245 336.458 520.696 336.341C521.151 336.22 521.598 336.159 522.037 336.159C522.317 336.159 522.639 336.193 523.003 336.261C523.37 336.326 523.724 336.46 524.065 336.665C524.41 336.869 524.696 337.178 524.923 337.591C525.151 338.004 525.264 338.557 525.264 339.25V345H523.923V343.818H523.855C523.764 344.008 523.613 344.21 523.401 344.426C523.188 344.642 522.906 344.826 522.554 344.977C522.202 345.129 521.772 345.205 521.264 345.205ZM521.469 344C521.999 344 522.446 343.896 522.81 343.688C523.177 343.479 523.454 343.21 523.639 342.881C523.829 342.551 523.923 342.205 523.923 341.841V340.614C523.866 340.682 523.741 340.744 523.548 340.801C523.359 340.854 523.139 340.902 522.889 340.943C522.643 340.981 522.402 341.015 522.168 341.045C521.937 341.072 521.749 341.095 521.605 341.114C521.257 341.159 520.931 341.233 520.628 341.335C520.329 341.434 520.086 341.583 519.901 341.784C519.719 341.981 519.628 342.25 519.628 342.591C519.628 343.057 519.8 343.409 520.145 343.648C520.493 343.883 520.935 344 521.469 344ZM527.712 345V336.273H529.053V345H527.712ZM528.393 334.818C528.132 334.818 527.907 334.729 527.717 334.551C527.532 334.373 527.439 334.159 527.439 333.909C527.439 333.659 527.532 333.445 527.717 333.267C527.907 333.089 528.132 333 528.393 333C528.655 333 528.878 333.089 529.064 333.267C529.253 333.445 529.348 333.659 529.348 333.909C529.348 334.159 529.253 334.373 529.064 334.551C528.878 334.729 528.655 334.818 528.393 334.818ZM532.849 333.364V345H531.509V333.364H532.849Z" fill="black"/>
<rect x="494" y="355" width="453" height="48" rx="8" fill="white"/>
<path d="M507.409 385V373.364H514.432V374.614H508.818V378.545H514.068V379.795H508.818V383.75H514.523V385H507.409ZM518.131 379.75V385H516.79V376.273H518.085V377.636H518.199C518.403 377.193 518.714 376.837 519.131 376.568C519.547 376.295 520.085 376.159 520.744 376.159C521.335 376.159 521.852 376.28 522.295 376.523C522.739 376.761 523.083 377.125 523.33 377.614C523.576 378.098 523.699 378.712 523.699 379.455V385H522.358V379.545C522.358 378.86 522.18 378.326 521.824 377.943C521.468 377.557 520.979 377.364 520.358 377.364C519.93 377.364 519.547 377.456 519.21 377.642C518.877 377.828 518.614 378.098 518.42 378.455C518.227 378.811 518.131 379.242 518.131 379.75ZM529.945 376.273V377.409H525.422V376.273H529.945ZM526.74 374.182H528.081V382.5C528.081 382.879 528.136 383.163 528.246 383.352C528.359 383.538 528.503 383.663 528.678 383.727C528.856 383.788 529.043 383.818 529.24 383.818C529.388 383.818 529.509 383.811 529.604 383.795C529.698 383.777 529.774 383.761 529.831 383.75L530.104 384.955C530.013 384.989 529.886 385.023 529.723 385.057C529.56 385.095 529.354 385.114 529.104 385.114C528.725 385.114 528.354 385.032 527.99 384.869C527.63 384.706 527.331 384.458 527.092 384.125C526.857 383.792 526.74 383.371 526.74 382.864V374.182ZM535.527 385.182C534.686 385.182 533.961 384.996 533.351 384.625C532.745 384.25 532.277 383.727 531.947 383.057C531.622 382.383 531.459 381.598 531.459 380.705C531.459 379.811 531.622 379.023 531.947 378.341C532.277 377.655 532.735 377.121 533.322 376.739C533.913 376.352 534.603 376.159 535.391 376.159C535.845 376.159 536.294 376.235 536.737 376.386C537.18 376.538 537.584 376.784 537.947 377.125C538.311 377.462 538.601 377.909 538.817 378.466C539.033 379.023 539.141 379.708 539.141 380.523V381.091H532.413V379.932H537.777C537.777 379.439 537.679 379 537.482 378.614C537.288 378.227 537.012 377.922 536.652 377.699C536.296 377.475 535.875 377.364 535.391 377.364C534.857 377.364 534.394 377.496 534.004 377.761C533.618 378.023 533.321 378.364 533.112 378.784C532.904 379.205 532.8 379.655 532.8 380.136V380.909C532.8 381.568 532.913 382.127 533.141 382.585C533.372 383.04 533.692 383.386 534.101 383.625C534.51 383.86 534.985 383.977 535.527 383.977C535.879 383.977 536.197 383.928 536.482 383.83C536.769 383.727 537.018 383.576 537.226 383.375C537.434 383.17 537.595 382.917 537.709 382.614L539.004 382.977C538.868 383.417 538.639 383.803 538.317 384.136C537.995 384.466 537.597 384.723 537.124 384.909C536.65 385.091 536.118 385.182 535.527 385.182ZM541.18 385V376.273H542.476V377.591H542.567C542.726 377.159 543.014 376.809 543.43 376.54C543.847 376.271 544.317 376.136 544.839 376.136C544.938 376.136 545.061 376.138 545.209 376.142C545.357 376.146 545.468 376.152 545.544 376.159V377.523C545.499 377.511 545.394 377.494 545.232 377.472C545.072 377.445 544.904 377.432 544.726 377.432C544.302 377.432 543.923 377.521 543.589 377.699C543.26 377.873 542.999 378.116 542.805 378.426C542.616 378.733 542.521 379.083 542.521 379.477V385H541.18ZM551.815 385V373.364H558.838V374.614H553.224V378.545H558.474V379.795H553.224V383.75H558.929V385H551.815ZM561.196 385V376.273H562.491V377.636H562.605C562.787 377.17 563.08 376.809 563.486 376.551C563.891 376.29 564.378 376.159 564.946 376.159C565.522 376.159 566.001 376.29 566.384 376.551C566.77 376.809 567.071 377.17 567.287 377.636H567.378C567.601 377.186 567.937 376.828 568.384 376.562C568.83 376.294 569.366 376.159 569.991 376.159C570.772 376.159 571.41 376.403 571.906 376.892C572.402 377.377 572.651 378.133 572.651 379.159V385H571.31V379.159C571.31 378.515 571.134 378.055 570.781 377.778C570.429 377.502 570.014 377.364 569.537 377.364C568.923 377.364 568.448 377.549 568.111 377.92C567.774 378.288 567.605 378.754 567.605 379.318V385H566.241V379.023C566.241 378.527 566.08 378.127 565.759 377.824C565.437 377.517 565.022 377.364 564.514 377.364C564.166 377.364 563.84 377.456 563.537 377.642C563.238 377.828 562.995 378.085 562.81 378.415C562.628 378.741 562.537 379.117 562.537 379.545V385H561.196ZM577.67 385.205C577.117 385.205 576.616 385.1 576.165 384.892C575.714 384.68 575.356 384.375 575.091 383.977C574.826 383.576 574.693 383.091 574.693 382.523C574.693 382.023 574.792 381.617 574.989 381.307C575.186 380.992 575.449 380.746 575.778 380.568C576.108 380.39 576.472 380.258 576.869 380.17C577.271 380.08 577.674 380.008 578.08 379.955C578.61 379.886 579.04 379.835 579.369 379.801C579.703 379.763 579.945 379.701 580.097 379.614C580.252 379.527 580.33 379.375 580.33 379.159V379.114C580.33 378.553 580.176 378.117 579.869 377.807C579.566 377.496 579.106 377.341 578.489 377.341C577.848 377.341 577.347 377.481 576.983 377.761C576.619 378.042 576.364 378.341 576.216 378.659L574.943 378.205C575.17 377.674 575.473 377.261 575.852 376.966C576.235 376.667 576.652 376.458 577.102 376.341C577.557 376.22 578.004 376.159 578.443 376.159C578.723 376.159 579.045 376.193 579.409 376.261C579.777 376.326 580.131 376.46 580.472 376.665C580.816 376.869 581.102 377.178 581.33 377.591C581.557 378.004 581.67 378.557 581.67 379.25V385H580.33V383.818H580.261C580.17 384.008 580.019 384.21 579.807 384.426C579.595 384.642 579.313 384.826 578.96 384.977C578.608 385.129 578.178 385.205 577.67 385.205ZM577.875 384C578.405 384 578.852 383.896 579.216 383.688C579.583 383.479 579.86 383.21 580.045 382.881C580.235 382.551 580.33 382.205 580.33 381.841V380.614C580.273 380.682 580.148 380.744 579.955 380.801C579.765 380.854 579.545 380.902 579.295 380.943C579.049 380.981 578.809 381.015 578.574 381.045C578.343 381.072 578.155 381.095 578.011 381.114C577.663 381.159 577.337 381.233 577.034 381.335C576.735 381.434 576.492 381.583 576.307 381.784C576.125 381.981 576.034 382.25 576.034 382.591C576.034 383.057 576.206 383.409 576.551 383.648C576.9 383.883 577.341 384 577.875 384ZM584.118 385V376.273H585.459V385H584.118ZM584.8 374.818C584.538 374.818 584.313 374.729 584.124 374.551C583.938 374.373 583.845 374.159 583.845 373.909C583.845 373.659 583.938 373.445 584.124 373.267C584.313 373.089 584.538 373 584.8 373C585.061 373 585.285 373.089 585.47 373.267C585.66 373.445 585.754 373.659 585.754 373.909C585.754 374.159 585.66 374.373 585.47 374.551C585.285 374.729 585.061 374.818 584.8 374.818ZM589.256 373.364V385H587.915V373.364H589.256Z" fill="#9AA1B9"/>
<rect x="494" y="355" width="453" height="48" rx="8" stroke="#D6D9E4"/>
<path d="M495.409 461V449.364H499.341C500.254 449.364 501 449.528 501.58 449.858C502.163 450.184 502.595 450.625 502.875 451.182C503.155 451.739 503.295 452.36 503.295 453.045C503.295 453.731 503.155 454.354 502.875 454.915C502.598 455.475 502.17 455.922 501.591 456.256C501.011 456.585 500.269 456.75 499.364 456.75H496.545V455.5H499.318C499.943 455.5 500.445 455.392 500.824 455.176C501.203 454.96 501.477 454.669 501.648 454.301C501.822 453.93 501.909 453.511 501.909 453.045C501.909 452.58 501.822 452.163 501.648 451.795C501.477 451.428 501.201 451.14 500.818 450.932C500.436 450.72 499.928 450.614 499.295 450.614H496.818V461H495.409ZM507.952 461.205C507.399 461.205 506.897 461.1 506.446 460.892C505.995 460.68 505.637 460.375 505.372 459.977C505.107 459.576 504.974 459.091 504.974 458.523C504.974 458.023 505.073 457.617 505.27 457.307C505.467 456.992 505.73 456.746 506.06 456.568C506.389 456.39 506.753 456.258 507.151 456.17C507.552 456.08 507.955 456.008 508.361 455.955C508.891 455.886 509.321 455.835 509.651 455.801C509.984 455.763 510.226 455.701 510.378 455.614C510.533 455.527 510.611 455.375 510.611 455.159V455.114C510.611 454.553 510.457 454.117 510.151 453.807C509.848 453.496 509.387 453.341 508.77 453.341C508.13 453.341 507.628 453.481 507.264 453.761C506.901 454.042 506.645 454.341 506.497 454.659L505.224 454.205C505.452 453.674 505.755 453.261 506.134 452.966C506.516 452.667 506.933 452.458 507.384 452.341C507.838 452.22 508.285 452.159 508.724 452.159C509.005 452.159 509.327 452.193 509.69 452.261C510.058 452.326 510.412 452.46 510.753 452.665C511.098 452.869 511.384 453.178 511.611 453.591C511.838 454.004 511.952 454.557 511.952 455.25V461H510.611V459.818H510.543C510.452 460.008 510.3 460.21 510.088 460.426C509.876 460.642 509.594 460.826 509.241 460.977C508.889 461.129 508.459 461.205 507.952 461.205ZM508.156 460C508.687 460 509.134 459.896 509.497 459.688C509.865 459.479 510.141 459.21 510.327 458.881C510.516 458.551 510.611 458.205 510.611 457.841V456.614C510.554 456.682 510.429 456.744 510.236 456.801C510.046 456.854 509.827 456.902 509.577 456.943C509.33 456.981 509.09 457.015 508.855 457.045C508.624 457.072 508.437 457.095 508.293 457.114C507.944 457.159 507.618 457.233 507.315 457.335C507.016 457.434 506.774 457.583 506.588 457.784C506.406 457.981 506.315 458.25 506.315 458.591C506.315 459.057 506.488 459.409 506.832 459.648C507.181 459.883 507.622 460 508.156 460ZM520.581 454.227L519.376 454.568C519.301 454.367 519.189 454.172 519.041 453.983C518.897 453.79 518.7 453.631 518.45 453.506C518.2 453.381 517.88 453.318 517.49 453.318C516.956 453.318 516.511 453.441 516.155 453.688C515.803 453.93 515.626 454.239 515.626 454.614C515.626 454.947 515.748 455.21 515.99 455.403C516.232 455.597 516.611 455.758 517.126 455.886L518.422 456.205C519.202 456.394 519.784 456.684 520.166 457.074C520.549 457.46 520.74 457.958 520.74 458.568C520.74 459.068 520.596 459.515 520.308 459.909C520.024 460.303 519.626 460.614 519.115 460.841C518.604 461.068 518.009 461.182 517.331 461.182C516.441 461.182 515.704 460.989 515.121 460.602C514.537 460.216 514.168 459.652 514.013 458.909L515.286 458.591C515.407 459.061 515.636 459.413 515.973 459.648C516.314 459.883 516.759 460 517.308 460C517.933 460 518.429 459.867 518.797 459.602C519.168 459.333 519.354 459.011 519.354 458.636C519.354 458.333 519.248 458.08 519.036 457.875C518.823 457.667 518.498 457.511 518.058 457.409L516.604 457.068C515.804 456.879 515.217 456.585 514.842 456.188C514.471 455.786 514.286 455.284 514.286 454.682C514.286 454.189 514.424 453.754 514.7 453.375C514.981 452.996 515.361 452.699 515.842 452.483C516.327 452.267 516.876 452.159 517.49 452.159C518.354 452.159 519.032 452.348 519.524 452.727C520.02 453.106 520.373 453.606 520.581 454.227ZM528.94 454.227L527.736 454.568C527.66 454.367 527.548 454.172 527.401 453.983C527.257 453.79 527.06 453.631 526.81 453.506C526.56 453.381 526.24 453.318 525.849 453.318C525.315 453.318 524.87 453.441 524.514 453.688C524.162 453.93 523.986 454.239 523.986 454.614C523.986 454.947 524.107 455.21 524.349 455.403C524.592 455.597 524.971 455.758 525.486 455.886L526.781 456.205C527.562 456.394 528.143 456.684 528.526 457.074C528.908 457.46 529.099 457.958 529.099 458.568C529.099 459.068 528.955 459.515 528.668 459.909C528.384 460.303 527.986 460.614 527.474 460.841C526.963 461.068 526.368 461.182 525.69 461.182C524.8 461.182 524.063 460.989 523.48 460.602C522.897 460.216 522.527 459.652 522.372 458.909L523.645 458.591C523.766 459.061 523.995 459.413 524.332 459.648C524.673 459.883 525.118 460 525.668 460C526.293 460 526.789 459.867 527.156 459.602C527.527 459.333 527.713 459.011 527.713 458.636C527.713 458.333 527.607 458.08 527.395 457.875C527.183 457.667 526.857 457.511 526.418 457.409L524.963 457.068C524.164 456.879 523.577 456.585 523.202 456.188C522.83 455.786 522.645 455.284 522.645 454.682C522.645 454.189 522.783 453.754 523.06 453.375C523.34 452.996 523.721 452.699 524.202 452.483C524.687 452.267 525.236 452.159 525.849 452.159C526.713 452.159 527.391 452.348 527.884 452.727C528.38 453.106 528.732 453.606 528.94 454.227ZM533.095 461L530.436 452.273H531.845L533.732 458.955H533.822L535.686 452.273H537.118L538.959 458.932H539.05L540.936 452.273H542.345L539.686 461H538.368L536.459 454.295H536.322L534.413 461H533.095ZM547.366 461.182C546.579 461.182 545.887 460.994 545.293 460.619C544.702 460.244 544.24 459.72 543.906 459.045C543.577 458.371 543.412 457.583 543.412 456.682C543.412 455.773 543.577 454.979 543.906 454.301C544.24 453.623 544.702 453.097 545.293 452.722C545.887 452.347 546.579 452.159 547.366 452.159C548.154 452.159 548.844 452.347 549.435 452.722C550.029 453.097 550.491 453.623 550.821 454.301C551.154 454.979 551.321 455.773 551.321 456.682C551.321 457.583 551.154 458.371 550.821 459.045C550.491 459.72 550.029 460.244 549.435 460.619C548.844 460.994 548.154 461.182 547.366 461.182ZM547.366 459.977C547.965 459.977 548.457 459.824 548.844 459.517C549.23 459.21 549.516 458.807 549.702 458.307C549.887 457.807 549.98 457.265 549.98 456.682C549.98 456.098 549.887 455.555 549.702 455.051C549.516 454.547 549.23 454.14 548.844 453.83C548.457 453.519 547.965 453.364 547.366 453.364C546.768 453.364 546.276 453.519 545.889 453.83C545.503 454.14 545.217 454.547 545.031 455.051C544.846 455.555 544.753 456.098 544.753 456.682C544.753 457.265 544.846 457.807 545.031 458.307C545.217 458.807 545.503 459.21 545.889 459.517C546.276 459.824 546.768 459.977 547.366 459.977ZM553.368 461V452.273H554.663V453.591H554.754C554.913 453.159 555.201 452.809 555.618 452.54C556.035 452.271 556.504 452.136 557.027 452.136C557.125 452.136 557.249 452.138 557.396 452.142C557.544 452.146 557.656 452.152 557.732 452.159V453.523C557.686 453.511 557.582 453.494 557.419 453.472C557.26 453.445 557.091 453.432 556.913 453.432C556.489 453.432 556.11 453.521 555.777 453.699C555.447 453.873 555.186 454.116 554.993 454.426C554.804 454.733 554.709 455.083 554.709 455.477V461H553.368ZM562.351 461.182C561.624 461.182 560.982 460.998 560.425 460.631C559.868 460.259 559.432 459.737 559.118 459.062C558.804 458.384 558.646 457.583 558.646 456.659C558.646 455.742 558.804 454.947 559.118 454.273C559.432 453.598 559.87 453.078 560.43 452.71C560.991 452.343 561.639 452.159 562.374 452.159C562.942 452.159 563.391 452.254 563.72 452.443C564.054 452.629 564.307 452.841 564.482 453.08C564.66 453.314 564.798 453.508 564.896 453.659H565.01V449.364H566.351V461H565.055V459.659H564.896C564.798 459.818 564.658 460.019 564.476 460.261C564.294 460.5 564.035 460.714 563.697 460.903C563.36 461.089 562.911 461.182 562.351 461.182ZM562.533 459.977C563.071 459.977 563.525 459.837 563.896 459.557C564.268 459.273 564.55 458.881 564.743 458.381C564.936 457.877 565.033 457.295 565.033 456.636C565.033 455.985 564.938 455.415 564.749 454.926C564.559 454.434 564.279 454.051 563.908 453.778C563.536 453.502 563.078 453.364 562.533 453.364C561.964 453.364 561.491 453.509 561.112 453.801C560.737 454.089 560.455 454.481 560.266 454.977C560.08 455.47 559.987 456.023 559.987 456.636C559.987 457.258 560.082 457.822 560.271 458.33C560.464 458.833 560.749 459.235 561.124 459.534C561.502 459.83 561.972 459.977 562.533 459.977Z" fill="black"/>
<rect x="494" y="471" width="453" height="48" rx="8" fill="white"/>
<path d="M507.409 501V489.364H514.432V490.614H508.818V494.545H514.068V495.795H508.818V499.75H514.523V501H507.409ZM518.131 495.75V501H516.79V492.273H518.085V493.636H518.199C518.403 493.193 518.714 492.837 519.131 492.568C519.547 492.295 520.085 492.159 520.744 492.159C521.335 492.159 521.852 492.28 522.295 492.523C522.739 492.761 523.083 493.125 523.33 493.614C523.576 494.098 523.699 494.712 523.699 495.455V501H522.358V495.545C522.358 494.86 522.18 494.326 521.824 493.943C521.468 493.557 520.979 493.364 520.358 493.364C519.93 493.364 519.547 493.456 519.21 493.642C518.877 493.828 518.614 494.098 518.42 494.455C518.227 494.811 518.131 495.242 518.131 495.75ZM529.945 492.273V493.409H525.422V492.273H529.945ZM526.74 490.182H528.081V498.5C528.081 498.879 528.136 499.163 528.246 499.352C528.359 499.538 528.503 499.663 528.678 499.727C528.856 499.788 529.043 499.818 529.24 499.818C529.388 499.818 529.509 499.811 529.604 499.795C529.698 499.777 529.774 499.761 529.831 499.75L530.104 500.955C530.013 500.989 529.886 501.023 529.723 501.057C529.56 501.095 529.354 501.114 529.104 501.114C528.725 501.114 528.354 501.032 527.99 500.869C527.63 500.706 527.331 500.458 527.092 500.125C526.857 499.792 526.74 499.371 526.74 498.864V490.182ZM535.527 501.182C534.686 501.182 533.961 500.996 533.351 500.625C532.745 500.25 532.277 499.727 531.947 499.057C531.622 498.383 531.459 497.598 531.459 496.705C531.459 495.811 531.622 495.023 531.947 494.341C532.277 493.655 532.735 493.121 533.322 492.739C533.913 492.352 534.603 492.159 535.391 492.159C535.845 492.159 536.294 492.235 536.737 492.386C537.18 492.538 537.584 492.784 537.947 493.125C538.311 493.462 538.601 493.909 538.817 494.466C539.033 495.023 539.141 495.708 539.141 496.523V497.091H532.413V495.932H537.777C537.777 495.439 537.679 495 537.482 494.614C537.288 494.227 537.012 493.922 536.652 493.699C536.296 493.475 535.875 493.364 535.391 493.364C534.857 493.364 534.394 493.496 534.004 493.761C533.618 494.023 533.321 494.364 533.112 494.784C532.904 495.205 532.8 495.655 532.8 496.136V496.909C532.8 497.568 532.913 498.127 533.141 498.585C533.372 499.04 533.692 499.386 534.101 499.625C534.51 499.86 534.985 499.977 535.527 499.977C535.879 499.977 536.197 499.928 536.482 499.83C536.769 499.727 537.018 499.576 537.226 499.375C537.434 499.17 537.595 498.917 537.709 498.614L539.004 498.977C538.868 499.417 538.639 499.803 538.317 500.136C537.995 500.466 537.597 500.723 537.124 500.909C536.65 501.091 536.118 501.182 535.527 501.182ZM541.18 501V492.273H542.476V493.591H542.567C542.726 493.159 543.014 492.809 543.43 492.54C543.847 492.271 544.317 492.136 544.839 492.136C544.938 492.136 545.061 492.138 545.209 492.142C545.357 492.146 545.468 492.152 545.544 492.159V493.523C545.499 493.511 545.394 493.494 545.232 493.472C545.072 493.445 544.904 493.432 544.726 493.432C544.302 493.432 543.923 493.521 543.589 493.699C543.26 493.873 542.999 494.116 542.805 494.426C542.616 494.733 542.521 495.083 542.521 495.477V501H541.18ZM551.634 504.273V492.273H552.929V493.659H553.088C553.187 493.508 553.323 493.314 553.497 493.08C553.675 492.841 553.929 492.629 554.259 492.443C554.592 492.254 555.043 492.159 555.611 492.159C556.346 492.159 556.993 492.343 557.554 492.71C558.115 493.078 558.552 493.598 558.866 494.273C559.181 494.947 559.338 495.742 559.338 496.659C559.338 497.583 559.181 498.384 558.866 499.062C558.552 499.737 558.116 500.259 557.56 500.631C557.003 500.998 556.361 501.182 555.634 501.182C555.073 501.182 554.624 501.089 554.287 500.903C553.95 500.714 553.69 500.5 553.509 500.261C553.327 500.019 553.187 499.818 553.088 499.659H552.974V504.273H551.634ZM552.952 496.636C552.952 497.295 553.048 497.877 553.241 498.381C553.435 498.881 553.717 499.273 554.088 499.557C554.459 499.837 554.914 499.977 555.452 499.977C556.012 499.977 556.48 499.83 556.855 499.534C557.234 499.235 557.518 498.833 557.707 498.33C557.901 497.822 557.997 497.258 557.997 496.636C557.997 496.023 557.902 495.47 557.713 494.977C557.527 494.481 557.245 494.089 556.866 493.801C556.491 493.509 556.02 493.364 555.452 493.364C554.906 493.364 554.448 493.502 554.077 493.778C553.705 494.051 553.425 494.434 553.236 494.926C553.046 495.415 552.952 495.985 552.952 496.636ZM563.952 501.205C563.399 501.205 562.897 501.1 562.446 500.892C561.995 500.68 561.637 500.375 561.372 499.977C561.107 499.576 560.974 499.091 560.974 498.523C560.974 498.023 561.073 497.617 561.27 497.307C561.467 496.992 561.73 496.746 562.06 496.568C562.389 496.39 562.753 496.258 563.151 496.17C563.552 496.08 563.955 496.008 564.361 495.955C564.891 495.886 565.321 495.835 565.651 495.801C565.984 495.763 566.226 495.701 566.378 495.614C566.533 495.527 566.611 495.375 566.611 495.159V495.114C566.611 494.553 566.457 494.117 566.151 493.807C565.848 493.496 565.387 493.341 564.77 493.341C564.13 493.341 563.628 493.481 563.264 493.761C562.901 494.042 562.645 494.341 562.497 494.659L561.224 494.205C561.452 493.674 561.755 493.261 562.134 492.966C562.516 492.667 562.933 492.458 563.384 492.341C563.838 492.22 564.285 492.159 564.724 492.159C565.005 492.159 565.327 492.193 565.69 492.261C566.058 492.326 566.412 492.46 566.753 492.665C567.098 492.869 567.384 493.178 567.611 493.591C567.838 494.004 567.952 494.557 567.952 495.25V501H566.611V499.818H566.543C566.452 500.008 566.3 500.21 566.088 500.426C565.876 500.642 565.594 500.826 565.241 500.977C564.889 501.129 564.459 501.205 563.952 501.205ZM564.156 500C564.687 500 565.134 499.896 565.497 499.688C565.865 499.479 566.141 499.21 566.327 498.881C566.516 498.551 566.611 498.205 566.611 497.841V496.614C566.554 496.682 566.429 496.744 566.236 496.801C566.046 496.854 565.827 496.902 565.577 496.943C565.33 496.981 565.09 497.015 564.855 497.045C564.624 497.072 564.437 497.095 564.293 497.114C563.944 497.159 563.618 497.233 563.315 497.335C563.016 497.434 562.774 497.583 562.588 497.784C562.406 497.981 562.315 498.25 562.315 498.591C562.315 499.057 562.488 499.409 562.832 499.648C563.181 499.883 563.622 500 564.156 500ZM576.581 494.227L575.376 494.568C575.301 494.367 575.189 494.172 575.041 493.983C574.897 493.79 574.7 493.631 574.45 493.506C574.2 493.381 573.88 493.318 573.49 493.318C572.956 493.318 572.511 493.441 572.155 493.688C571.803 493.93 571.626 494.239 571.626 494.614C571.626 494.947 571.748 495.21 571.99 495.403C572.232 495.597 572.611 495.758 573.126 495.886L574.422 496.205C575.202 496.394 575.784 496.684 576.166 497.074C576.549 497.46 576.74 497.958 576.74 498.568C576.74 499.068 576.596 499.515 576.308 499.909C576.024 500.303 575.626 500.614 575.115 500.841C574.604 501.068 574.009 501.182 573.331 501.182C572.441 501.182 571.704 500.989 571.121 500.602C570.537 500.216 570.168 499.652 570.013 498.909L571.286 498.591C571.407 499.061 571.636 499.413 571.973 499.648C572.314 499.883 572.759 500 573.308 500C573.933 500 574.429 499.867 574.797 499.602C575.168 499.333 575.354 499.011 575.354 498.636C575.354 498.333 575.248 498.08 575.036 497.875C574.823 497.667 574.498 497.511 574.058 497.409L572.604 497.068C571.804 496.879 571.217 496.585 570.842 496.188C570.471 495.786 570.286 495.284 570.286 494.682C570.286 494.189 570.424 493.754 570.7 493.375C570.981 492.996 571.361 492.699 571.842 492.483C572.327 492.267 572.876 492.159 573.49 492.159C574.354 492.159 575.032 492.348 575.524 492.727C576.02 493.106 576.373 493.606 576.581 494.227ZM584.94 494.227L583.736 494.568C583.66 494.367 583.548 494.172 583.401 493.983C583.257 493.79 583.06 493.631 582.81 493.506C582.56 493.381 582.24 493.318 581.849 493.318C581.315 493.318 580.87 493.441 580.514 493.688C580.162 493.93 579.986 494.239 579.986 494.614C579.986 494.947 580.107 495.21 580.349 495.403C580.592 495.597 580.971 495.758 581.486 495.886L582.781 496.205C583.562 496.394 584.143 496.684 584.526 497.074C584.908 497.46 585.099 497.958 585.099 498.568C585.099 499.068 584.955 499.515 584.668 499.909C584.384 500.303 583.986 500.614 583.474 500.841C582.963 501.068 582.368 501.182 581.69 501.182C580.8 501.182 580.063 500.989 579.48 500.602C578.897 500.216 578.527 499.652 578.372 498.909L579.645 498.591C579.766 499.061 579.995 499.413 580.332 499.648C580.673 499.883 581.118 500 581.668 500C582.293 500 582.789 499.867 583.156 499.602C583.527 499.333 583.713 499.011 583.713 498.636C583.713 498.333 583.607 498.08 583.395 497.875C583.183 497.667 582.857 497.511 582.418 497.409L580.963 497.068C580.164 496.879 579.577 496.585 579.202 496.188C578.83 495.786 578.645 495.284 578.645 494.682C578.645 494.189 578.783 493.754 579.06 493.375C579.34 492.996 579.721 492.699 580.202 492.483C580.687 492.267 581.236 492.159 581.849 492.159C582.713 492.159 583.391 492.348 583.884 492.727C584.38 493.106 584.732 493.606 584.94 494.227ZM589.095 501L586.436 492.273H587.845L589.732 498.955H589.822L591.686 492.273H593.118L594.959 498.932H595.05L596.936 492.273H598.345L595.686 501H594.368L592.459 494.295H592.322L590.413 501H589.095ZM603.366 501.182C602.579 501.182 601.887 500.994 601.293 500.619C600.702 500.244 600.24 499.72 599.906 499.045C599.577 498.371 599.412 497.583 599.412 496.682C599.412 495.773 599.577 494.979 599.906 494.301C600.24 493.623 600.702 493.097 601.293 492.722C601.887 492.347 602.579 492.159 603.366 492.159C604.154 492.159 604.844 492.347 605.435 492.722C606.029 493.097 606.491 493.623 606.821 494.301C607.154 494.979 607.321 495.773 607.321 496.682C607.321 497.583 607.154 498.371 606.821 499.045C606.491 499.72 606.029 500.244 605.435 500.619C604.844 500.994 604.154 501.182 603.366 501.182ZM603.366 499.977C603.965 499.977 604.457 499.824 604.844 499.517C605.23 499.21 605.516 498.807 605.702 498.307C605.887 497.807 605.98 497.265 605.98 496.682C605.98 496.098 605.887 495.555 605.702 495.051C605.516 494.547 605.23 494.14 604.844 493.83C604.457 493.519 603.965 493.364 603.366 493.364C602.768 493.364 602.276 493.519 601.889 493.83C601.503 494.14 601.217 494.547 601.031 495.051C600.846 495.555 600.753 496.098 600.753 496.682C600.753 497.265 600.846 497.807 601.031 498.307C601.217 498.807 601.503 499.21 601.889 499.517C602.276 499.824 602.768 499.977 603.366 499.977ZM609.368 501V492.273H610.663V493.591H610.754C610.913 493.159 611.201 492.809 611.618 492.54C612.035 492.271 612.504 492.136 613.027 492.136C613.125 492.136 613.249 492.138 613.396 492.142C613.544 492.146 613.656 492.152 613.732 492.159V493.523C613.686 493.511 613.582 493.494 613.419 493.472C613.26 493.445 613.091 493.432 612.913 493.432C612.489 493.432 612.11 493.521 611.777 493.699C611.447 493.873 611.186 494.116 610.993 494.426C610.804 494.733 610.709 495.083 610.709 495.477V501H609.368ZM618.351 501.182C617.624 501.182 616.982 500.998 616.425 500.631C615.868 500.259 615.432 499.737 615.118 499.062C614.804 498.384 614.646 497.583 614.646 496.659C614.646 495.742 614.804 494.947 615.118 494.273C615.432 493.598 615.87 493.078 616.43 492.71C616.991 492.343 617.639 492.159 618.374 492.159C618.942 492.159 619.391 492.254 619.72 492.443C620.054 492.629 620.307 492.841 620.482 493.08C620.66 493.314 620.798 493.508 620.896 493.659H621.01V489.364H622.351V501H621.055V499.659H620.896C620.798 499.818 620.658 500.019 620.476 500.261C620.294 500.5 620.035 500.714 619.697 500.903C619.36 501.089 618.911 501.182 618.351 501.182ZM618.533 499.977C619.071 499.977 619.525 499.837 619.896 499.557C620.268 499.273 620.55 498.881 620.743 498.381C620.936 497.877 621.033 497.295 621.033 496.636C621.033 495.985 620.938 495.415 620.749 494.926C620.559 494.434 620.279 494.051 619.908 493.778C619.536 493.502 619.078 493.364 618.533 493.364C617.964 493.364 617.491 493.509 617.112 493.801C616.737 494.089 616.455 494.481 616.266 494.977C616.08 495.47 615.987 496.023 615.987 496.636C615.987 497.258 616.082 497.822 616.271 498.33C616.464 498.833 616.749 499.235 617.124 499.534C617.502 499.83 617.972 499.977 618.533 499.977Z" fill="#9AA1B9"/>
<rect x="494" y="471" width="453" height="48" rx="8" stroke="#D6D9E4"/>
<g filter="url(#filter0_d_27_337)">
<rect x="494" y="559" width="453" height="60" rx="12" fill="#2F5FAC" shape-rendering="crispEdges"/>
<path d="M697.996 595V583.364H700.456V592.972H705.445V595H697.996ZM710.972 595.17C710.089 595.17 709.326 594.983 708.682 594.608C708.042 594.229 707.547 593.703 707.199 593.028C706.85 592.35 706.676 591.564 706.676 590.67C706.676 589.769 706.85 588.981 707.199 588.307C707.547 587.629 708.042 587.102 708.682 586.727C709.326 586.348 710.089 586.159 710.972 586.159C711.854 586.159 712.616 586.348 713.256 586.727C713.9 587.102 714.396 587.629 714.744 588.307C715.093 588.981 715.267 589.769 715.267 590.67C715.267 591.564 715.093 592.35 714.744 593.028C714.396 593.703 713.9 594.229 713.256 594.608C712.616 594.983 711.854 595.17 710.972 595.17ZM710.983 593.295C711.384 593.295 711.72 593.182 711.989 592.955C712.258 592.723 712.46 592.409 712.597 592.011C712.737 591.614 712.807 591.161 712.807 590.653C712.807 590.146 712.737 589.693 712.597 589.295C712.46 588.898 712.258 588.583 711.989 588.352C711.72 588.121 711.384 588.006 710.983 588.006C710.578 588.006 710.237 588.121 709.96 588.352C709.688 588.583 709.481 588.898 709.341 589.295C709.205 589.693 709.136 590.146 709.136 590.653C709.136 591.161 709.205 591.614 709.341 592.011C709.481 592.409 709.688 592.723 709.96 592.955C710.237 593.182 710.578 593.295 710.983 593.295ZM720.773 598.455C719.989 598.455 719.316 598.347 718.756 598.131C718.199 597.919 717.756 597.629 717.426 597.261C717.097 596.894 716.883 596.481 716.784 596.023L719.023 595.722C719.091 595.896 719.199 596.059 719.347 596.21C719.494 596.362 719.689 596.483 719.932 596.574C720.178 596.669 720.477 596.716 720.83 596.716C721.356 596.716 721.79 596.587 722.131 596.33C722.475 596.076 722.648 595.65 722.648 595.051V593.455H722.545C722.439 593.697 722.28 593.926 722.068 594.142C721.856 594.358 721.583 594.534 721.25 594.67C720.917 594.807 720.519 594.875 720.057 594.875C719.402 594.875 718.805 594.723 718.267 594.42C717.733 594.114 717.307 593.646 716.989 593.017C716.674 592.384 716.517 591.585 716.517 590.619C716.517 589.631 716.678 588.805 717 588.142C717.322 587.479 717.75 586.983 718.284 586.653C718.822 586.324 719.411 586.159 720.051 586.159C720.54 586.159 720.949 586.242 721.278 586.409C721.608 586.572 721.873 586.777 722.074 587.023C722.278 587.265 722.436 587.504 722.545 587.739H722.636V586.273H725.04V595.085C725.04 595.828 724.858 596.449 724.494 596.949C724.131 597.449 723.627 597.824 722.983 598.074C722.343 598.328 721.606 598.455 720.773 598.455ZM720.824 593.057C721.214 593.057 721.544 592.96 721.812 592.767C722.085 592.57 722.294 592.29 722.438 591.926C722.585 591.559 722.659 591.119 722.659 590.608C722.659 590.097 722.587 589.653 722.443 589.278C722.299 588.9 722.091 588.606 721.818 588.398C721.545 588.189 721.214 588.085 720.824 588.085C720.426 588.085 720.091 588.193 719.818 588.409C719.545 588.621 719.339 588.917 719.199 589.295C719.059 589.674 718.989 590.112 718.989 590.608C718.989 591.112 719.059 591.547 719.199 591.915C719.343 592.278 719.549 592.561 719.818 592.761C720.091 592.958 720.426 593.057 720.824 593.057ZM730.669 595V586.273H733.089V595H730.669ZM731.885 585.148C731.525 585.148 731.216 585.028 730.959 584.79C730.705 584.547 730.578 584.258 730.578 583.92C730.578 583.587 730.705 583.301 730.959 583.062C731.216 582.82 731.525 582.699 731.885 582.699C732.245 582.699 732.552 582.82 732.805 583.062C733.063 583.301 733.192 583.587 733.192 583.92C733.192 584.258 733.063 584.547 732.805 584.79C732.552 585.028 732.245 585.148 731.885 585.148ZM737.449 589.955V595H735.028V586.273H737.335V587.812H737.438C737.631 587.305 737.955 586.903 738.409 586.608C738.864 586.309 739.415 586.159 740.062 586.159C740.669 586.159 741.197 586.292 741.648 586.557C742.098 586.822 742.449 587.201 742.699 587.693C742.949 588.182 743.074 588.765 743.074 589.443V595H740.653V589.875C740.657 589.341 740.521 588.924 740.244 588.625C739.968 588.322 739.587 588.17 739.102 588.17C738.777 588.17 738.489 588.241 738.239 588.381C737.992 588.521 737.799 588.725 737.659 588.994C737.523 589.259 737.453 589.58 737.449 589.955Z" fill="white"/>
</g>
<path d="M499 681H495.409V669.364H499.159C500.288 669.364 501.254 669.597 502.057 670.062C502.86 670.525 503.475 671.189 503.903 672.057C504.331 672.92 504.545 673.955 504.545 675.159C504.545 676.371 504.33 677.415 503.898 678.29C503.466 679.161 502.837 679.831 502.011 680.301C501.186 680.767 500.182 681 499 681ZM496.818 679.75H498.909C499.871 679.75 500.669 679.564 501.301 679.193C501.934 678.822 502.405 678.294 502.716 677.608C503.027 676.922 503.182 676.106 503.182 675.159C503.182 674.22 503.028 673.411 502.722 672.733C502.415 672.051 501.956 671.528 501.347 671.165C500.737 670.797 499.977 670.614 499.068 670.614H496.818V679.75ZM510.273 681.182C509.485 681.182 508.794 680.994 508.199 680.619C507.608 680.244 507.146 679.72 506.812 679.045C506.483 678.371 506.318 677.583 506.318 676.682C506.318 675.773 506.483 674.979 506.812 674.301C507.146 673.623 507.608 673.097 508.199 672.722C508.794 672.347 509.485 672.159 510.273 672.159C511.061 672.159 511.75 672.347 512.341 672.722C512.936 673.097 513.398 673.623 513.727 674.301C514.061 674.979 514.227 675.773 514.227 676.682C514.227 677.583 514.061 678.371 513.727 679.045C513.398 679.72 512.936 680.244 512.341 680.619C511.75 680.994 511.061 681.182 510.273 681.182ZM510.273 679.977C510.871 679.977 511.364 679.824 511.75 679.517C512.136 679.21 512.422 678.807 512.608 678.307C512.794 677.807 512.886 677.265 512.886 676.682C512.886 676.098 512.794 675.555 512.608 675.051C512.422 674.547 512.136 674.14 511.75 673.83C511.364 673.519 510.871 673.364 510.273 673.364C509.674 673.364 509.182 673.519 508.795 673.83C508.409 674.14 508.123 674.547 507.938 675.051C507.752 675.555 507.659 676.098 507.659 676.682C507.659 677.265 507.752 677.807 507.938 678.307C508.123 678.807 508.409 679.21 508.795 679.517C509.182 679.824 509.674 679.977 510.273 679.977ZM517.615 675.75V681H516.274V672.273H517.57V673.636H517.683C517.888 673.193 518.198 672.837 518.615 672.568C519.032 672.295 519.57 672.159 520.229 672.159C520.82 672.159 521.337 672.28 521.78 672.523C522.223 672.761 522.568 673.125 522.814 673.614C523.06 674.098 523.183 674.712 523.183 675.455V681H521.842V675.545C521.842 674.86 521.664 674.326 521.308 673.943C520.952 673.557 520.464 673.364 519.842 673.364C519.414 673.364 519.032 673.456 518.695 673.642C518.361 673.828 518.098 674.098 517.905 674.455C517.712 674.811 517.615 675.242 517.615 675.75ZM526.815 669.364V670.386C526.815 670.697 526.759 671.028 526.645 671.381C526.535 671.729 526.372 672.068 526.156 672.398C525.944 672.723 525.687 673.008 525.384 673.25L524.656 672.659C524.895 672.318 525.101 671.964 525.276 671.597C525.454 671.225 525.543 670.83 525.543 670.409V669.364H526.815ZM532.616 672.273V673.409H528.094V672.273H532.616ZM529.412 670.182H530.753V678.5C530.753 678.879 530.808 679.163 530.918 679.352C531.031 679.538 531.175 679.663 531.349 679.727C531.527 679.788 531.715 679.818 531.912 679.818C532.06 679.818 532.181 679.811 532.276 679.795C532.37 679.777 532.446 679.761 532.503 679.75L532.776 680.955C532.685 680.989 532.558 681.023 532.395 681.057C532.232 681.095 532.026 681.114 531.776 681.114C531.397 681.114 531.026 681.032 530.662 680.869C530.302 680.706 530.003 680.458 529.764 680.125C529.529 679.792 529.412 679.371 529.412 678.864V670.182ZM540.474 675.75V681H539.134V669.364H540.474V673.636H540.588C540.793 673.186 541.099 672.828 541.509 672.562C541.921 672.294 542.471 672.159 543.156 672.159C543.751 672.159 544.272 672.278 544.719 672.517C545.166 672.752 545.512 673.114 545.759 673.602C546.009 674.087 546.134 674.705 546.134 675.455V681H544.793V675.545C544.793 674.852 544.613 674.316 544.253 673.938C543.897 673.555 543.402 673.364 542.77 673.364C542.33 673.364 541.937 673.456 541.588 673.642C541.243 673.828 540.971 674.098 540.77 674.455C540.573 674.811 540.474 675.242 540.474 675.75ZM551.155 681.205C550.602 681.205 550.1 681.1 549.649 680.892C549.198 680.68 548.84 680.375 548.575 679.977C548.31 679.576 548.178 679.091 548.178 678.523C548.178 678.023 548.276 677.617 548.473 677.307C548.67 676.992 548.933 676.746 549.263 676.568C549.592 676.39 549.956 676.258 550.354 676.17C550.755 676.08 551.159 676.008 551.564 675.955C552.094 675.886 552.524 675.835 552.854 675.801C553.187 675.763 553.429 675.701 553.581 675.614C553.736 675.527 553.814 675.375 553.814 675.159V675.114C553.814 674.553 553.661 674.117 553.354 673.807C553.051 673.496 552.59 673.341 551.973 673.341C551.333 673.341 550.831 673.481 550.467 673.761C550.104 674.042 549.848 674.341 549.7 674.659L548.428 674.205C548.655 673.674 548.958 673.261 549.337 672.966C549.719 672.667 550.136 672.458 550.587 672.341C551.041 672.22 551.488 672.159 551.928 672.159C552.208 672.159 552.53 672.193 552.893 672.261C553.261 672.326 553.615 672.46 553.956 672.665C554.301 672.869 554.587 673.178 554.814 673.591C555.041 674.004 555.155 674.557 555.155 675.25V681H553.814V679.818H553.746C553.655 680.008 553.503 680.21 553.291 680.426C553.079 680.642 552.797 680.826 552.445 680.977C552.092 681.129 551.662 681.205 551.155 681.205ZM551.359 680C551.89 680 552.337 679.896 552.7 679.688C553.068 679.479 553.344 679.21 553.53 678.881C553.719 678.551 553.814 678.205 553.814 677.841V676.614C553.757 676.682 553.632 676.744 553.439 676.801C553.25 676.854 553.03 676.902 552.78 676.943C552.534 676.981 552.293 677.015 552.058 677.045C551.827 677.072 551.64 677.095 551.496 677.114C551.147 677.159 550.821 677.233 550.518 677.335C550.219 677.434 549.977 677.583 549.791 677.784C549.609 677.981 549.518 678.25 549.518 678.591C549.518 679.057 549.691 679.409 550.036 679.648C550.384 679.883 550.825 680 551.359 680ZM564.426 672.273L561.199 681H559.835L556.608 672.273H558.062L560.472 679.227H560.562L562.972 672.273H564.426ZM569.543 681.182C568.702 681.182 567.976 680.996 567.366 680.625C566.76 680.25 566.293 679.727 565.963 679.057C565.637 678.383 565.474 677.598 565.474 676.705C565.474 675.811 565.637 675.023 565.963 674.341C566.293 673.655 566.751 673.121 567.338 672.739C567.929 672.352 568.618 672.159 569.406 672.159C569.861 672.159 570.31 672.235 570.753 672.386C571.196 672.538 571.599 672.784 571.963 673.125C572.327 673.462 572.616 673.909 572.832 674.466C573.048 675.023 573.156 675.708 573.156 676.523V677.091H566.429V675.932H571.793C571.793 675.439 571.694 675 571.497 674.614C571.304 674.227 571.027 673.922 570.668 673.699C570.312 673.475 569.891 673.364 569.406 673.364C568.872 673.364 568.41 673.496 568.02 673.761C567.634 674.023 567.336 674.364 567.128 674.784C566.92 675.205 566.815 675.655 566.815 676.136V676.909C566.815 677.568 566.929 678.127 567.156 678.585C567.387 679.04 567.707 679.386 568.116 679.625C568.526 679.86 569.001 679.977 569.543 679.977C569.895 679.977 570.213 679.928 570.497 679.83C570.785 679.727 571.033 679.576 571.241 679.375C571.45 679.17 571.611 678.917 571.724 678.614L573.02 678.977C572.884 679.417 572.654 679.803 572.332 680.136C572.01 680.466 571.613 680.723 571.139 680.909C570.666 681.091 570.134 681.182 569.543 681.182ZM582.264 681.205C581.711 681.205 581.209 681.1 580.759 680.892C580.308 680.68 579.95 680.375 579.685 679.977C579.42 679.576 579.287 679.091 579.287 678.523C579.287 678.023 579.385 677.617 579.582 677.307C579.779 676.992 580.043 676.746 580.372 676.568C580.702 676.39 581.065 676.258 581.463 676.17C581.865 676.08 582.268 676.008 582.673 675.955C583.204 675.886 583.634 675.835 583.963 675.801C584.296 675.763 584.539 675.701 584.69 675.614C584.846 675.527 584.923 675.375 584.923 675.159V675.114C584.923 674.553 584.77 674.117 584.463 673.807C584.16 673.496 583.7 673.341 583.082 673.341C582.442 673.341 581.94 673.481 581.577 673.761C581.213 674.042 580.957 674.341 580.81 674.659L579.537 674.205C579.764 673.674 580.067 673.261 580.446 672.966C580.829 672.667 581.245 672.458 581.696 672.341C582.151 672.22 582.598 672.159 583.037 672.159C583.317 672.159 583.639 672.193 584.003 672.261C584.37 672.326 584.724 672.46 585.065 672.665C585.41 672.869 585.696 673.178 585.923 673.591C586.151 674.004 586.264 674.557 586.264 675.25V681H584.923V679.818H584.855C584.764 680.008 584.613 680.21 584.401 680.426C584.188 680.642 583.906 680.826 583.554 680.977C583.202 681.129 582.772 681.205 582.264 681.205ZM582.469 680C582.999 680 583.446 679.896 583.81 679.688C584.177 679.479 584.454 679.21 584.639 678.881C584.829 678.551 584.923 678.205 584.923 677.841V676.614C584.866 676.682 584.741 676.744 584.548 676.801C584.359 676.854 584.139 676.902 583.889 676.943C583.643 676.981 583.402 677.015 583.168 677.045C582.937 677.072 582.749 677.095 582.605 677.114C582.257 677.159 581.931 677.233 581.628 677.335C581.329 677.434 581.086 677.583 580.901 677.784C580.719 677.981 580.628 678.25 580.628 678.591C580.628 679.057 580.8 679.409 581.145 679.648C581.493 679.883 581.935 680 582.469 680ZM590.053 675.75V681H588.712V672.273H590.007V673.636H590.121C590.325 673.193 590.636 672.837 591.053 672.568C591.469 672.295 592.007 672.159 592.666 672.159C593.257 672.159 593.774 672.28 594.217 672.523C594.661 672.761 595.005 673.125 595.251 673.614C595.498 674.098 595.621 674.712 595.621 675.455V681H594.28V675.545C594.28 674.86 594.102 674.326 593.746 673.943C593.39 673.557 592.901 673.364 592.28 673.364C591.852 673.364 591.469 673.456 591.132 673.642C590.799 673.828 590.536 674.098 590.342 674.455C590.149 674.811 590.053 675.242 590.053 675.75ZM605.139 681.205C604.586 681.205 604.084 681.1 603.634 680.892C603.183 680.68 602.825 680.375 602.56 679.977C602.295 679.576 602.162 679.091 602.162 678.523C602.162 678.023 602.26 677.617 602.457 677.307C602.654 676.992 602.918 676.746 603.247 676.568C603.577 676.39 603.94 676.258 604.338 676.17C604.74 676.08 605.143 676.008 605.548 675.955C606.079 675.886 606.509 675.835 606.838 675.801C607.171 675.763 607.414 675.701 607.565 675.614C607.721 675.527 607.798 675.375 607.798 675.159V675.114C607.798 674.553 607.645 674.117 607.338 673.807C607.035 673.496 606.575 673.341 605.957 673.341C605.317 673.341 604.815 673.481 604.452 673.761C604.088 674.042 603.832 674.341 603.685 674.659L602.412 674.205C602.639 673.674 602.942 673.261 603.321 672.966C603.704 672.667 604.12 672.458 604.571 672.341C605.026 672.22 605.473 672.159 605.912 672.159C606.192 672.159 606.514 672.193 606.878 672.261C607.245 672.326 607.599 672.46 607.94 672.665C608.285 672.869 608.571 673.178 608.798 673.591C609.026 674.004 609.139 674.557 609.139 675.25V681H607.798V679.818H607.73C607.639 680.008 607.488 680.21 607.276 680.426C607.063 680.642 606.781 680.826 606.429 680.977C606.077 681.129 605.647 681.205 605.139 681.205ZM605.344 680C605.874 680 606.321 679.896 606.685 679.688C607.052 679.479 607.329 679.21 607.514 678.881C607.704 678.551 607.798 678.205 607.798 677.841V676.614C607.741 676.682 607.616 676.744 607.423 676.801C607.234 676.854 607.014 676.902 606.764 676.943C606.518 676.981 606.277 677.015 606.043 677.045C605.812 677.072 605.624 677.095 605.48 677.114C605.132 677.159 604.806 677.233 604.503 677.335C604.204 677.434 603.961 677.583 603.776 677.784C603.594 677.981 603.503 678.25 603.503 678.591C603.503 679.057 603.675 679.409 604.02 679.648C604.368 679.883 604.81 680 605.344 680ZM615.132 681.182C614.314 681.182 613.609 680.989 613.018 680.602C612.428 680.216 611.973 679.684 611.655 679.006C611.337 678.328 611.178 677.553 611.178 676.682C611.178 675.795 611.34 675.013 611.666 674.335C611.996 673.653 612.454 673.121 613.041 672.739C613.632 672.352 614.321 672.159 615.109 672.159C615.723 672.159 616.276 672.273 616.768 672.5C617.261 672.727 617.664 673.045 617.979 673.455C618.293 673.864 618.488 674.341 618.564 674.886H617.223C617.121 674.489 616.893 674.136 616.541 673.83C616.193 673.519 615.723 673.364 615.132 673.364C614.609 673.364 614.151 673.5 613.757 673.773C613.367 674.042 613.062 674.422 612.842 674.915C612.626 675.403 612.518 675.977 612.518 676.636C612.518 677.311 612.625 677.898 612.837 678.398C613.053 678.898 613.356 679.286 613.746 679.562C614.14 679.839 614.602 679.977 615.132 679.977C615.481 679.977 615.797 679.917 616.081 679.795C616.365 679.674 616.606 679.5 616.803 679.273C617 679.045 617.14 678.773 617.223 678.455H618.564C618.488 678.97 618.301 679.434 618.001 679.847C617.706 680.256 617.314 680.581 616.825 680.824C616.34 681.062 615.776 681.182 615.132 681.182ZM624.07 681.182C623.251 681.182 622.547 680.989 621.956 680.602C621.365 680.216 620.911 679.684 620.592 679.006C620.274 678.328 620.115 677.553 620.115 676.682C620.115 675.795 620.278 675.013 620.604 674.335C620.933 673.653 621.392 673.121 621.979 672.739C622.57 672.352 623.259 672.159 624.047 672.159C624.661 672.159 625.214 672.273 625.706 672.5C626.198 672.727 626.602 673.045 626.916 673.455C627.231 673.864 627.426 674.341 627.501 674.886H626.161C626.058 674.489 625.831 674.136 625.479 673.83C625.13 673.519 624.661 673.364 624.07 673.364C623.547 673.364 623.089 673.5 622.695 673.773C622.304 674.042 622 674.422 621.78 674.915C621.564 675.403 621.456 675.977 621.456 676.636C621.456 677.311 621.562 677.898 621.774 678.398C621.99 678.898 622.293 679.286 622.683 679.562C623.077 679.839 623.539 679.977 624.07 679.977C624.418 679.977 624.734 679.917 625.018 679.795C625.303 679.674 625.543 679.5 625.74 679.273C625.937 679.045 626.077 678.773 626.161 678.455H627.501C627.426 678.97 627.238 679.434 626.939 679.847C626.643 680.256 626.251 680.581 625.763 680.824C625.278 681.062 624.714 681.182 624.07 681.182ZM633.007 681.182C632.219 681.182 631.528 680.994 630.933 680.619C630.342 680.244 629.88 679.72 629.547 679.045C629.217 678.371 629.053 677.583 629.053 676.682C629.053 675.773 629.217 674.979 629.547 674.301C629.88 673.623 630.342 673.097 630.933 672.722C631.528 672.347 632.219 672.159 633.007 672.159C633.795 672.159 634.484 672.347 635.075 672.722C635.67 673.097 636.132 673.623 636.462 674.301C636.795 674.979 636.962 675.773 636.962 676.682C636.962 677.583 636.795 678.371 636.462 679.045C636.132 679.72 635.67 680.244 635.075 680.619C634.484 680.994 633.795 681.182 633.007 681.182ZM633.007 679.977C633.606 679.977 634.098 679.824 634.484 679.517C634.871 679.21 635.157 678.807 635.342 678.307C635.528 677.807 635.621 677.265 635.621 676.682C635.621 676.098 635.528 675.555 635.342 675.051C635.157 674.547 634.871 674.14 634.484 673.83C634.098 673.519 633.606 673.364 633.007 673.364C632.409 673.364 631.916 673.519 631.53 673.83C631.143 674.14 630.857 674.547 630.672 675.051C630.486 675.555 630.393 676.098 630.393 676.682C630.393 677.265 630.486 677.807 630.672 678.307C630.857 678.807 631.143 679.21 631.53 679.517C631.916 679.824 632.409 679.977 633.007 679.977ZM644.509 677.432V672.273H645.849V681H644.509V679.523H644.418C644.213 679.966 643.895 680.343 643.463 680.653C643.031 680.96 642.486 681.114 641.827 681.114C641.281 681.114 640.796 680.994 640.372 680.756C639.948 680.513 639.615 680.15 639.372 679.665C639.13 679.176 639.009 678.561 639.009 677.818V672.273H640.349V677.727C640.349 678.364 640.527 678.871 640.884 679.25C641.243 679.629 641.702 679.818 642.259 679.818C642.592 679.818 642.931 679.733 643.276 679.562C643.624 679.392 643.916 679.131 644.151 678.778C644.389 678.426 644.509 677.977 644.509 677.432ZM649.646 675.75V681H648.305V672.273H649.601V673.636H649.714C649.919 673.193 650.23 672.837 650.646 672.568C651.063 672.295 651.601 672.159 652.26 672.159C652.851 672.159 653.368 672.28 653.811 672.523C654.254 672.761 654.599 673.125 654.845 673.614C655.091 674.098 655.214 674.712 655.214 675.455V681H653.874V675.545C653.874 674.86 653.696 674.326 653.339 673.943C652.983 673.557 652.495 673.364 651.874 673.364C651.446 673.364 651.063 673.456 650.726 673.642C650.393 673.828 650.129 674.098 649.936 674.455C649.743 674.811 649.646 675.242 649.646 675.75ZM661.46 672.273V673.409H656.938V672.273H661.46ZM658.256 670.182H659.597V678.5C659.597 678.879 659.652 679.163 659.761 679.352C659.875 679.538 660.019 679.663 660.193 679.727C660.371 679.788 660.559 679.818 660.756 679.818C660.903 679.818 661.025 679.811 661.119 679.795C661.214 679.777 661.29 679.761 661.347 679.75L661.619 680.955C661.528 680.989 661.402 681.023 661.239 681.057C661.076 681.095 660.869 681.114 660.619 681.114C660.241 681.114 659.869 681.032 659.506 680.869C659.146 680.706 658.847 680.458 658.608 680.125C658.373 679.792 658.256 679.371 658.256 678.864V670.182ZM665.227 677.727V677.659C665.235 676.936 665.311 676.36 665.455 675.932C665.598 675.504 665.803 675.157 666.068 674.892C666.333 674.627 666.652 674.383 667.023 674.159C667.246 674.023 667.447 673.862 667.625 673.676C667.803 673.487 667.943 673.269 668.045 673.023C668.152 672.777 668.205 672.504 668.205 672.205C668.205 671.833 668.117 671.511 667.943 671.239C667.769 670.966 667.536 670.756 667.244 670.608C666.953 670.46 666.629 670.386 666.273 670.386C665.962 670.386 665.663 670.451 665.375 670.58C665.087 670.708 664.847 670.911 664.653 671.188C664.46 671.464 664.348 671.826 664.318 672.273H662.886C662.917 671.629 663.083 671.078 663.386 670.619C663.693 670.161 664.097 669.811 664.597 669.568C665.1 669.326 665.659 669.205 666.273 669.205C666.939 669.205 667.519 669.337 668.011 669.602C668.508 669.867 668.89 670.231 669.159 670.693C669.432 671.155 669.568 671.682 669.568 672.273C669.568 672.689 669.504 673.066 669.375 673.403C669.25 673.741 669.068 674.042 668.83 674.307C668.595 674.572 668.311 674.807 667.977 675.011C667.644 675.22 667.377 675.439 667.176 675.67C666.975 675.898 666.83 676.169 666.739 676.483C666.648 676.797 666.598 677.189 666.591 677.659V677.727H665.227ZM665.955 681.091C665.674 681.091 665.434 680.991 665.233 680.79C665.032 680.589 664.932 680.348 664.932 680.068C664.932 679.788 665.032 679.547 665.233 679.347C665.434 679.146 665.674 679.045 665.955 679.045C666.235 679.045 666.475 679.146 666.676 679.347C666.877 679.547 666.977 679.788 666.977 680.068C666.977 680.254 666.93 680.424 666.835 680.58C666.744 680.735 666.621 680.86 666.466 680.955C666.314 681.045 666.144 681.091 665.955 681.091Z" fill="black"/>
<path d="M684.011 681V669.364H688.602C689.481 669.364 690.231 669.521 690.852 669.835C691.477 670.146 691.953 670.587 692.278 671.159C692.608 671.727 692.773 672.396 692.773 673.165C692.773 673.937 692.606 674.602 692.273 675.159C691.939 675.712 691.456 676.136 690.824 676.432C690.195 676.727 689.434 676.875 688.54 676.875H685.466V674.898H688.142C688.612 674.898 689.002 674.833 689.312 674.705C689.623 674.576 689.854 674.383 690.006 674.125C690.161 673.867 690.239 673.547 690.239 673.165C690.239 672.778 690.161 672.453 690.006 672.188C689.854 671.922 689.621 671.722 689.307 671.585C688.996 671.445 688.604 671.375 688.131 671.375H686.472V681H684.011ZM690.295 675.705L693.188 681H690.472L687.642 675.705H690.295ZM698.303 681.17C697.405 681.17 696.632 680.989 695.984 680.625C695.34 680.258 694.844 679.739 694.496 679.068C694.147 678.394 693.973 677.597 693.973 676.676C693.973 675.778 694.147 674.991 694.496 674.312C694.844 673.634 695.335 673.106 695.967 672.727C696.604 672.348 697.35 672.159 698.206 672.159C698.782 672.159 699.318 672.252 699.814 672.438C700.314 672.619 700.75 672.894 701.121 673.261C701.496 673.629 701.787 674.091 701.996 674.648C702.204 675.201 702.308 675.848 702.308 676.591V677.256H694.939V675.756H700.03C700.03 675.407 699.954 675.098 699.803 674.83C699.651 674.561 699.441 674.35 699.172 674.199C698.907 674.044 698.598 673.966 698.246 673.966C697.878 673.966 697.553 674.051 697.268 674.222C696.988 674.388 696.768 674.614 696.609 674.898C696.45 675.178 696.369 675.491 696.365 675.835V677.261C696.365 677.693 696.445 678.066 696.604 678.381C696.767 678.695 696.996 678.938 697.291 679.108C697.587 679.278 697.937 679.364 698.342 679.364C698.611 679.364 698.857 679.326 699.081 679.25C699.304 679.174 699.496 679.061 699.655 678.909C699.814 678.758 699.935 678.572 700.018 678.352L702.257 678.5C702.143 679.038 701.911 679.508 701.558 679.909C701.21 680.307 700.759 680.617 700.206 680.841C699.657 681.061 699.022 681.17 698.303 681.17ZM707.82 684.455C707.036 684.455 706.363 684.347 705.803 684.131C705.246 683.919 704.803 683.629 704.473 683.261C704.143 682.894 703.929 682.481 703.831 682.023L706.07 681.722C706.138 681.896 706.246 682.059 706.393 682.21C706.541 682.362 706.736 682.483 706.979 682.574C707.225 682.669 707.524 682.716 707.876 682.716C708.403 682.716 708.837 682.587 709.178 682.33C709.522 682.076 709.695 681.65 709.695 681.051V679.455H709.592C709.486 679.697 709.327 679.926 709.115 680.142C708.903 680.358 708.63 680.534 708.297 680.67C707.964 680.807 707.566 680.875 707.104 680.875C706.448 680.875 705.852 680.723 705.314 680.42C704.78 680.114 704.354 679.646 704.036 679.017C703.721 678.384 703.564 677.585 703.564 676.619C703.564 675.631 703.725 674.805 704.047 674.142C704.369 673.479 704.797 672.983 705.331 672.653C705.869 672.324 706.458 672.159 707.098 672.159C707.587 672.159 707.996 672.242 708.325 672.409C708.655 672.572 708.92 672.777 709.121 673.023C709.325 673.265 709.482 673.504 709.592 673.739H709.683V672.273H712.087V681.085C712.087 681.828 711.905 682.449 711.541 682.949C711.178 683.449 710.674 683.824 710.03 684.074C709.39 684.328 708.653 684.455 707.82 684.455ZM707.871 679.057C708.261 679.057 708.59 678.96 708.859 678.767C709.132 678.57 709.34 678.29 709.484 677.926C709.632 677.559 709.706 677.119 709.706 676.608C709.706 676.097 709.634 675.653 709.49 675.278C709.346 674.9 709.138 674.606 708.865 674.398C708.592 674.189 708.261 674.085 707.871 674.085C707.473 674.085 707.138 674.193 706.865 674.409C706.592 674.621 706.386 674.917 706.246 675.295C706.106 675.674 706.036 676.112 706.036 676.608C706.036 677.112 706.106 677.547 706.246 677.915C706.39 678.278 706.596 678.561 706.865 678.761C707.138 678.958 707.473 679.057 707.871 679.057ZM714.013 681V672.273H716.433V681H714.013ZM715.229 671.148C714.869 671.148 714.56 671.028 714.303 670.79C714.049 670.547 713.922 670.258 713.922 669.92C713.922 669.587 714.049 669.301 714.303 669.062C714.56 668.82 714.869 668.699 715.229 668.699C715.589 668.699 715.895 668.82 716.149 669.062C716.407 669.301 716.536 669.587 716.536 669.92C716.536 670.258 716.407 670.547 716.149 670.79C715.895 671.028 715.589 671.148 715.229 671.148ZM725.634 674.761L723.418 674.898C723.38 674.708 723.298 674.538 723.173 674.386C723.048 674.231 722.884 674.108 722.679 674.017C722.478 673.922 722.238 673.875 721.957 673.875C721.582 673.875 721.266 673.955 721.009 674.114C720.751 674.269 720.622 674.477 720.622 674.739C720.622 674.947 720.705 675.123 720.872 675.267C721.039 675.411 721.325 675.527 721.73 675.614L723.31 675.932C724.158 676.106 724.791 676.386 725.207 676.773C725.624 677.159 725.832 677.667 725.832 678.295C725.832 678.867 725.664 679.369 725.327 679.801C724.993 680.233 724.535 680.57 723.952 680.812C723.372 681.051 722.704 681.17 721.946 681.17C720.791 681.17 719.87 680.93 719.185 680.449C718.503 679.964 718.103 679.305 717.986 678.472L720.366 678.347C720.438 678.699 720.613 678.968 720.889 679.153C721.166 679.335 721.52 679.426 721.952 679.426C722.376 679.426 722.717 679.345 722.974 679.182C723.236 679.015 723.368 678.801 723.372 678.54C723.368 678.32 723.276 678.14 723.094 678C722.912 677.856 722.632 677.746 722.253 677.67L720.741 677.369C719.889 677.199 719.255 676.903 718.838 676.483C718.425 676.062 718.219 675.527 718.219 674.875C718.219 674.314 718.37 673.831 718.673 673.426C718.98 673.021 719.41 672.708 719.963 672.489C720.52 672.269 721.171 672.159 721.918 672.159C723.02 672.159 723.887 672.392 724.52 672.858C725.156 673.324 725.527 673.958 725.634 674.761ZM731.999 672.273V674.091H726.743V672.273H731.999ZM727.936 670.182H730.357V678.318C730.357 678.542 730.391 678.716 730.459 678.841C730.527 678.962 730.622 679.047 730.743 679.097C730.868 679.146 731.012 679.17 731.175 679.17C731.288 679.17 731.402 679.161 731.516 679.142C731.629 679.119 731.716 679.102 731.777 679.091L732.158 680.892C732.036 680.93 731.866 680.973 731.646 681.023C731.427 681.076 731.16 681.108 730.845 681.119C730.262 681.142 729.75 681.064 729.311 680.886C728.875 680.708 728.536 680.432 728.294 680.057C728.052 679.682 727.932 679.208 727.936 678.636V670.182ZM737.459 681.17C736.561 681.17 735.788 680.989 735.141 680.625C734.497 680.258 734 679.739 733.652 679.068C733.304 678.394 733.129 677.597 733.129 676.676C733.129 675.778 733.304 674.991 733.652 674.312C734 673.634 734.491 673.106 735.124 672.727C735.76 672.348 736.506 672.159 737.362 672.159C737.938 672.159 738.474 672.252 738.97 672.438C739.47 672.619 739.906 672.894 740.277 673.261C740.652 673.629 740.944 674.091 741.152 674.648C741.36 675.201 741.464 675.848 741.464 676.591V677.256H734.095V675.756H739.186C739.186 675.407 739.11 675.098 738.959 674.83C738.807 674.561 738.597 674.35 738.328 674.199C738.063 674.044 737.754 673.966 737.402 673.966C737.035 673.966 736.709 674.051 736.425 674.222C736.144 674.388 735.925 674.614 735.766 674.898C735.607 675.178 735.525 675.491 735.521 675.835V677.261C735.521 677.693 735.601 678.066 735.76 678.381C735.923 678.695 736.152 678.938 736.447 679.108C736.743 679.278 737.093 679.364 737.499 679.364C737.768 679.364 738.014 679.326 738.237 679.25C738.461 679.174 738.652 679.061 738.811 678.909C738.97 678.758 739.091 678.572 739.175 678.352L741.413 678.5C741.3 679.038 741.067 679.508 740.714 679.909C740.366 680.307 739.915 680.617 739.362 680.841C738.813 681.061 738.179 681.17 737.459 681.17ZM743.044 681V672.273H745.391V673.795H745.482C745.641 673.254 745.908 672.845 746.283 672.568C746.658 672.288 747.089 672.148 747.578 672.148C747.699 672.148 747.83 672.155 747.97 672.17C748.11 672.186 748.233 672.206 748.339 672.233V674.381C748.226 674.347 748.069 674.316 747.868 674.29C747.667 674.263 747.483 674.25 747.317 674.25C746.961 674.25 746.643 674.328 746.362 674.483C746.086 674.634 745.866 674.847 745.703 675.119C745.544 675.392 745.464 675.706 745.464 676.062V681H743.044Z" fill="#2F5FAC"/>
<g clip-path="url(#clip1_27_337)" filter="url(#filter1_d_27_337)">
<rect width="1440" height="88" fill="white"/>
<path d="M1024.91 44.1818C1024.91 45.4508 1024.67 46.5303 1024.19 47.4205C1023.71 48.3106 1023.06 48.9905 1022.23 49.4602C1021.41 49.9261 1020.49 50.1591 1019.46 50.1591C1018.42 50.1591 1017.5 49.9242 1016.67 49.4545C1015.85 48.9848 1015.2 48.3049 1014.73 47.4148C1014.25 46.5246 1014.01 45.447 1014.01 44.1818C1014.01 42.9129 1014.25 41.8333 1014.73 40.9432C1015.2 40.053 1015.85 39.375 1016.67 38.9091C1017.5 38.4394 1018.42 38.2045 1019.46 38.2045C1020.49 38.2045 1021.41 38.4394 1022.23 38.9091C1023.06 39.375 1023.71 40.053 1024.19 40.9432C1024.67 41.8333 1024.91 42.9129 1024.91 44.1818ZM1022.41 44.1818C1022.41 43.3598 1022.29 42.6667 1022.04 42.1023C1021.8 41.5379 1021.46 41.1098 1021.02 40.8182C1020.57 40.5265 1020.05 40.3807 1019.46 40.3807C1018.86 40.3807 1018.35 40.5265 1017.9 40.8182C1017.46 41.1098 1017.11 41.5379 1016.87 42.1023C1016.63 42.6667 1016.5 43.3598 1016.5 44.1818C1016.5 45.0038 1016.63 45.697 1016.87 46.2614C1017.11 46.8258 1017.46 47.2538 1017.9 47.5455C1018.35 47.8371 1018.86 47.983 1019.46 47.983C1020.05 47.983 1020.57 47.8371 1021.02 47.5455C1021.46 47.2538 1021.8 46.8258 1022.04 46.2614C1022.29 45.697 1022.41 45.0038 1022.41 44.1818ZM1032.28 46.2841V41.2727H1034.7V50H1032.38V48.4148H1032.29C1032.09 48.9261 1031.76 49.3371 1031.3 49.6477C1030.85 49.9583 1030.29 50.1136 1029.64 50.1136C1029.06 50.1136 1028.54 49.9811 1028.1 49.7159C1027.66 49.4508 1027.31 49.0739 1027.06 48.5852C1026.81 48.0966 1026.69 47.5114 1026.68 46.8295V41.2727H1029.11V46.3977C1029.11 46.9129 1029.25 47.3201 1029.52 47.6193C1029.79 47.9186 1030.16 48.0682 1030.62 48.0682C1030.91 48.0682 1031.18 48.0019 1031.43 47.8693C1031.69 47.733 1031.89 47.5322 1032.05 47.267C1032.21 47.0019 1032.29 46.6742 1032.28 46.2841ZM1036.64 50V41.2727H1038.98V42.7955H1039.08C1039.23 42.2538 1039.5 41.8447 1039.88 41.5682C1040.25 41.2879 1040.68 41.1477 1041.17 41.1477C1041.29 41.1477 1041.42 41.1553 1041.56 41.1705C1041.7 41.1856 1041.83 41.2064 1041.93 41.233V43.3807C1041.82 43.3466 1041.66 43.3163 1041.46 43.2898C1041.26 43.2633 1041.08 43.25 1040.91 43.25C1040.55 43.25 1040.24 43.3277 1039.96 43.483C1039.68 43.6345 1039.46 43.8466 1039.3 44.1193C1039.14 44.392 1039.06 44.7064 1039.06 45.0625V50H1036.64ZM1057.2 42.4375H1054.71C1054.67 42.1155 1054.57 41.8295 1054.43 41.5795C1054.29 41.3258 1054.11 41.1098 1053.89 40.9318C1053.67 40.7538 1053.42 40.6174 1053.13 40.5227C1052.85 40.428 1052.54 40.3807 1052.21 40.3807C1051.6 40.3807 1051.08 40.5303 1050.63 40.8295C1050.19 41.125 1049.84 41.5568 1049.59 42.125C1049.35 42.6894 1049.22 43.375 1049.22 44.1818C1049.22 45.0114 1049.35 45.7083 1049.59 46.2727C1049.84 46.8371 1050.19 47.2633 1050.64 47.5511C1051.08 47.839 1051.6 47.983 1052.19 47.983C1052.52 47.983 1052.82 47.9394 1053.1 47.8523C1053.39 47.7652 1053.64 47.6383 1053.86 47.4716C1054.08 47.3011 1054.26 47.0947 1054.4 46.8523C1054.55 46.6098 1054.65 46.3333 1054.71 46.0227L1057.2 46.0341C1057.14 46.5682 1056.97 47.0833 1056.72 47.5795C1056.46 48.072 1056.12 48.5133 1055.69 48.9034C1055.26 49.2898 1054.75 49.5966 1054.15 49.8239C1053.56 50.0473 1052.9 50.1591 1052.15 50.1591C1051.11 50.1591 1050.18 49.9242 1049.37 49.4545C1048.55 48.9848 1047.91 48.3049 1047.43 47.4148C1046.96 46.5246 1046.73 45.447 1046.73 44.1818C1046.73 42.9129 1046.97 41.8333 1047.44 40.9432C1047.92 40.053 1048.57 39.375 1049.39 38.9091C1050.21 38.4394 1051.13 38.2045 1052.15 38.2045C1052.82 38.2045 1053.45 38.2992 1054.02 38.4886C1054.6 38.678 1055.12 38.9545 1055.56 39.3182C1056.01 39.678 1056.37 40.1193 1056.65 40.642C1056.94 41.1648 1057.12 41.7633 1057.2 42.4375ZM1062.86 50.1705C1061.98 50.1705 1061.22 49.983 1060.57 49.608C1059.93 49.2292 1059.44 48.7027 1059.09 48.0284C1058.74 47.3504 1058.57 46.5644 1058.57 45.6705C1058.57 44.7689 1058.74 43.9811 1059.09 43.3068C1059.44 42.6288 1059.93 42.1023 1060.57 41.7273C1061.22 41.3485 1061.98 41.1591 1062.86 41.1591C1063.74 41.1591 1064.51 41.3485 1065.15 41.7273C1065.79 42.1023 1066.29 42.6288 1066.63 43.3068C1066.98 43.9811 1067.16 44.7689 1067.16 45.6705C1067.16 46.5644 1066.98 47.3504 1066.63 48.0284C1066.29 48.7027 1065.79 49.2292 1065.15 49.608C1064.51 49.983 1063.74 50.1705 1062.86 50.1705ZM1062.87 48.2955C1063.28 48.2955 1063.61 48.1818 1063.88 47.9545C1064.15 47.7235 1064.35 47.4091 1064.49 47.0114C1064.63 46.6136 1064.7 46.161 1064.7 45.6534C1064.7 45.1458 1064.63 44.6932 1064.49 44.2955C1064.35 43.8977 1064.15 43.5833 1063.88 43.3523C1063.61 43.1212 1063.28 43.0057 1062.87 43.0057C1062.47 43.0057 1062.13 43.1212 1061.85 43.3523C1061.58 43.5833 1061.37 43.8977 1061.23 44.2955C1061.1 44.6932 1061.03 45.1458 1061.03 45.6534C1061.03 46.161 1061.1 46.6136 1061.23 47.0114C1061.37 47.4091 1061.58 47.7235 1061.85 47.9545C1062.13 48.1818 1062.47 48.2955 1062.87 48.2955ZM1074.33 46.2841V41.2727H1076.75V50H1074.42V48.4148H1074.33C1074.14 48.9261 1073.81 49.3371 1073.35 49.6477C1072.9 49.9583 1072.34 50.1136 1071.69 50.1136C1071.1 50.1136 1070.59 49.9811 1070.15 49.7159C1069.7 49.4508 1069.36 49.0739 1069.11 48.5852C1068.86 48.0966 1068.74 47.5114 1068.73 46.8295V41.2727H1071.15V46.3977C1071.16 46.9129 1071.29 47.3201 1071.57 47.6193C1071.84 47.9186 1072.21 48.0682 1072.66 48.0682C1072.96 48.0682 1073.23 48.0019 1073.48 47.8693C1073.74 47.733 1073.94 47.5322 1074.1 47.267C1074.25 47.0019 1074.33 46.6742 1074.33 46.2841ZM1078.68 50V41.2727H1081.03V42.7955H1081.12C1081.28 42.2538 1081.55 41.8447 1081.92 41.5682C1082.3 41.2879 1082.73 41.1477 1083.22 41.1477C1083.34 41.1477 1083.47 41.1553 1083.61 41.1705C1083.75 41.1856 1083.87 41.2064 1083.98 41.233V43.3807C1083.87 43.3466 1083.71 43.3163 1083.51 43.2898C1083.31 43.2633 1083.12 43.25 1082.96 43.25C1082.6 43.25 1082.28 43.3277 1082 43.483C1081.73 43.6345 1081.51 43.8466 1081.34 44.1193C1081.18 44.392 1081.11 44.7064 1081.11 45.0625V50H1078.68ZM1092.49 43.7614L1090.28 43.8977C1090.24 43.7083 1090.16 43.5379 1090.03 43.3864C1089.91 43.2311 1089.74 43.108 1089.54 43.017C1089.34 42.9223 1089.1 42.875 1088.82 42.875C1088.44 42.875 1088.13 42.9545 1087.87 43.1136C1087.61 43.2689 1087.48 43.4773 1087.48 43.7386C1087.48 43.947 1087.56 44.1231 1087.73 44.267C1087.9 44.411 1088.18 44.5265 1088.59 44.6136L1090.17 44.9318C1091.02 45.1061 1091.65 45.3864 1092.07 45.7727C1092.48 46.1591 1092.69 46.6667 1092.69 47.2955C1092.69 47.8674 1092.52 48.3693 1092.19 48.8011C1091.85 49.233 1091.39 49.5701 1090.81 49.8125C1090.23 50.0511 1089.56 50.1705 1088.81 50.1705C1087.65 50.1705 1086.73 49.9299 1086.04 49.4489C1085.36 48.964 1084.96 48.3049 1084.85 47.4716L1087.23 47.3466C1087.3 47.6989 1087.47 47.9678 1087.75 48.1534C1088.03 48.3352 1088.38 48.4261 1088.81 48.4261C1089.24 48.4261 1089.58 48.3447 1089.83 48.1818C1090.1 48.0152 1090.23 47.8011 1090.23 47.5398C1090.23 47.3201 1090.13 47.1402 1089.95 47C1089.77 46.8561 1089.49 46.7462 1089.11 46.6705L1087.6 46.3693C1086.75 46.1989 1086.11 45.9034 1085.7 45.483C1085.28 45.0625 1085.08 44.5265 1085.08 43.875C1085.08 43.3144 1085.23 42.8314 1085.53 42.4261C1085.84 42.0208 1086.27 41.7083 1086.82 41.4886C1087.38 41.2689 1088.03 41.1591 1088.78 41.1591C1089.88 41.1591 1090.75 41.392 1091.38 41.858C1092.02 42.3239 1092.39 42.9583 1092.49 43.7614ZM1098.19 50.1705C1097.3 50.1705 1096.52 49.9886 1095.88 49.625C1095.23 49.2576 1094.73 48.7386 1094.39 48.0682C1094.04 47.3939 1093.86 46.5966 1093.86 45.6761C1093.86 44.7784 1094.04 43.9905 1094.39 43.3125C1094.73 42.6345 1095.23 42.1061 1095.86 41.7273C1096.49 41.3485 1097.24 41.1591 1098.1 41.1591C1098.67 41.1591 1099.21 41.2519 1099.7 41.4375C1100.2 41.6193 1100.64 41.8939 1101.01 42.2614C1101.39 42.6288 1101.68 43.0909 1101.89 43.6477C1102.09 44.2008 1102.2 44.8485 1102.2 45.5909V46.2557H1094.83V44.7557H1099.92C1099.92 44.4072 1099.84 44.0985 1099.69 43.8295C1099.54 43.5606 1099.33 43.3504 1099.06 43.1989C1098.8 43.0436 1098.49 42.9659 1098.14 42.9659C1097.77 42.9659 1097.44 43.0511 1097.16 43.2216C1096.88 43.3883 1096.66 43.6136 1096.5 43.8977C1096.34 44.178 1096.26 44.4905 1096.26 44.8352V46.2614C1096.26 46.6932 1096.34 47.0663 1096.49 47.3807C1096.66 47.6951 1096.89 47.9375 1097.18 48.108C1097.48 48.2784 1097.83 48.3636 1098.23 48.3636C1098.5 48.3636 1098.75 48.3258 1098.97 48.25C1099.2 48.1742 1099.39 48.0606 1099.55 47.9091C1099.7 47.7576 1099.83 47.572 1099.91 47.3523L1102.15 47.5C1102.03 48.0379 1101.8 48.5076 1101.45 48.9091C1101.1 49.3068 1100.65 49.6174 1100.1 49.8409C1099.55 50.0606 1098.91 50.1705 1098.19 50.1705ZM1111.04 43.7614L1108.82 43.8977C1108.79 43.7083 1108.7 43.5379 1108.58 43.3864C1108.45 43.2311 1108.29 43.108 1108.09 43.017C1107.88 42.9223 1107.64 42.875 1107.36 42.875C1106.99 42.875 1106.67 42.9545 1106.41 43.1136C1106.16 43.2689 1106.03 43.4773 1106.03 43.7386C1106.03 43.947 1106.11 44.1231 1106.28 44.267C1106.45 44.411 1106.73 44.5265 1107.14 44.6136L1108.72 44.9318C1109.56 45.1061 1110.2 45.3864 1110.61 45.7727C1111.03 46.1591 1111.24 46.6667 1111.24 47.2955C1111.24 47.8674 1111.07 48.3693 1110.73 48.8011C1110.4 49.233 1109.94 49.5701 1109.36 49.8125C1108.78 50.0511 1108.11 50.1705 1107.35 50.1705C1106.2 50.1705 1105.28 49.9299 1104.59 49.4489C1103.91 48.964 1103.51 48.3049 1103.39 47.4716L1105.77 47.3466C1105.84 47.6989 1106.02 47.9678 1106.3 48.1534C1106.57 48.3352 1106.93 48.4261 1107.36 48.4261C1107.78 48.4261 1108.12 48.3447 1108.38 48.1818C1108.64 48.0152 1108.77 47.8011 1108.78 47.5398C1108.77 47.3201 1108.68 47.1402 1108.5 47C1108.32 46.8561 1108.04 46.7462 1107.66 46.6705L1106.15 46.3693C1105.3 46.1989 1104.66 45.9034 1104.24 45.483C1103.83 45.0625 1103.62 44.5265 1103.62 43.875C1103.62 43.3144 1103.78 42.8314 1104.08 42.4261C1104.39 42.0208 1104.82 41.7083 1105.37 41.4886C1105.93 41.2689 1106.58 41.1591 1107.32 41.1591C1108.43 41.1591 1109.29 41.392 1109.93 41.858C1110.56 42.3239 1110.93 42.9583 1111.04 43.7614Z" fill="#191C77"/>
<g filter="url(#filter2_d_27_337)">
<rect x="1168" y="14" width="112" height="60" rx="12" fill="#2F5FAC" shape-rendering="crispEdges"/>
<path d="M1201.5 50V38.3636H1203.96V47.9716H1208.94V50H1201.5ZM1214.47 50.1705C1213.59 50.1705 1212.83 49.983 1212.18 49.608C1211.54 49.2292 1211.05 48.7027 1210.7 48.0284C1210.35 47.3504 1210.18 46.5644 1210.18 45.6705C1210.18 44.7689 1210.35 43.9811 1210.7 43.3068C1211.05 42.6288 1211.54 42.1023 1212.18 41.7273C1212.83 41.3485 1213.59 41.1591 1214.47 41.1591C1215.35 41.1591 1216.12 41.3485 1216.76 41.7273C1217.4 42.1023 1217.9 42.6288 1218.24 43.3068C1218.59 43.9811 1218.77 44.7689 1218.77 45.6705C1218.77 46.5644 1218.59 47.3504 1218.24 48.0284C1217.9 48.7027 1217.4 49.2292 1216.76 49.608C1216.12 49.983 1215.35 50.1705 1214.47 50.1705ZM1214.48 48.2955C1214.88 48.2955 1215.22 48.1818 1215.49 47.9545C1215.76 47.7235 1215.96 47.4091 1216.1 47.0114C1216.24 46.6136 1216.31 46.161 1216.31 45.6534C1216.31 45.1458 1216.24 44.6932 1216.1 44.2955C1215.96 43.8977 1215.76 43.5833 1215.49 43.3523C1215.22 43.1212 1214.88 43.0057 1214.48 43.0057C1214.08 43.0057 1213.74 43.1212 1213.46 43.3523C1213.19 43.5833 1212.98 43.8977 1212.84 44.2955C1212.7 44.6932 1212.64 45.1458 1212.64 45.6534C1212.64 46.161 1212.7 46.6136 1212.84 47.0114C1212.98 47.4091 1213.19 47.7235 1213.46 47.9545C1213.74 48.1818 1214.08 48.2955 1214.48 48.2955ZM1224.27 53.4545C1223.49 53.4545 1222.82 53.3466 1222.26 53.1307C1221.7 52.9186 1221.26 52.6288 1220.93 52.2614C1220.6 51.8939 1220.38 51.4811 1220.28 51.0227L1222.52 50.7216C1222.59 50.8958 1222.7 51.0587 1222.85 51.2102C1222.99 51.3617 1223.19 51.483 1223.43 51.5739C1223.68 51.6686 1223.98 51.7159 1224.33 51.7159C1224.86 51.7159 1225.29 51.5871 1225.63 51.3295C1225.98 51.0758 1226.15 50.6496 1226.15 50.0511V48.4545H1226.05C1225.94 48.697 1225.78 48.9261 1225.57 49.142C1225.36 49.358 1225.08 49.5341 1224.75 49.6705C1224.42 49.8068 1224.02 49.875 1223.56 49.875C1222.9 49.875 1222.3 49.7235 1221.77 49.4205C1221.23 49.1136 1220.81 48.6458 1220.49 48.017C1220.17 47.3845 1220.02 46.5852 1220.02 45.6193C1220.02 44.6307 1220.18 43.8049 1220.5 43.142C1220.82 42.4792 1221.25 41.983 1221.78 41.6534C1222.32 41.3239 1222.91 41.1591 1223.55 41.1591C1224.04 41.1591 1224.45 41.2424 1224.78 41.4091C1225.11 41.572 1225.37 41.7765 1225.57 42.0227C1225.78 42.2652 1225.94 42.5038 1226.05 42.7386H1226.14V41.2727H1228.54V50.0852C1228.54 50.8277 1228.36 51.4489 1227.99 51.9489C1227.63 52.4489 1227.13 52.8239 1226.48 53.0739C1225.84 53.3277 1225.11 53.4545 1224.27 53.4545ZM1224.32 48.0568C1224.71 48.0568 1225.04 47.9602 1225.31 47.767C1225.59 47.5701 1225.79 47.2898 1225.94 46.9261C1226.09 46.5587 1226.16 46.1193 1226.16 45.608C1226.16 45.0966 1226.09 44.6534 1225.94 44.2784C1225.8 43.8996 1225.59 43.6061 1225.32 43.3977C1225.05 43.1894 1224.71 43.0852 1224.32 43.0852C1223.93 43.0852 1223.59 43.1932 1223.32 43.4091C1223.05 43.6212 1222.84 43.9167 1222.7 44.2955C1222.56 44.6742 1222.49 45.1117 1222.49 45.608C1222.49 46.1117 1222.56 46.5473 1222.7 46.9148C1222.84 47.2784 1223.05 47.5606 1223.32 47.7614C1223.59 47.9583 1223.93 48.0568 1224.32 48.0568ZM1234.17 50V41.2727H1236.59V50H1234.17ZM1235.38 40.1477C1235.03 40.1477 1234.72 40.0284 1234.46 39.7898C1234.21 39.5473 1234.08 39.2576 1234.08 38.9205C1234.08 38.5871 1234.21 38.3011 1234.46 38.0625C1234.72 37.8201 1235.03 37.6989 1235.38 37.6989C1235.74 37.6989 1236.05 37.8201 1236.31 38.0625C1236.56 38.3011 1236.69 38.5871 1236.69 38.9205C1236.69 39.2576 1236.56 39.5473 1236.31 39.7898C1236.05 40.0284 1235.74 40.1477 1235.38 40.1477ZM1240.95 44.9545V50H1238.53V41.2727H1240.84V42.8125H1240.94C1241.13 42.3049 1241.45 41.9034 1241.91 41.608C1242.36 41.3087 1242.91 41.1591 1243.56 41.1591C1244.17 41.1591 1244.7 41.2917 1245.15 41.5568C1245.6 41.822 1245.95 42.2008 1246.2 42.6932C1246.45 43.1818 1246.57 43.7652 1246.57 44.4432V50H1244.15V44.875C1244.16 44.3409 1244.02 43.9242 1243.74 43.625C1243.47 43.322 1243.09 43.1705 1242.6 43.1705C1242.28 43.1705 1241.99 43.2405 1241.74 43.3807C1241.49 43.5208 1241.3 43.7254 1241.16 43.9943C1241.02 44.2595 1240.95 44.5795 1240.95 44.9545Z" fill="white"/>
</g>
<path d="M168.282 52C173.116 52 176.193 49.5884 176.193 45.6464V45.2986H172.33V45.6464C172.33 47.687 171.173 48.6609 168.351 48.6609C164.95 48.6609 163.678 47.4551 163.678 44C163.678 40.5449 164.95 39.3391 168.351 39.3391C171.173 39.3391 172.33 40.313 172.33 42.3536V42.7014H176.193V42.3536C176.193 38.4116 173.093 36 168.282 36C163.169 36 160 39.1536 160 44C160 48.8464 163.169 52 168.282 52Z" fill="url(#paint0_linear_27_337)"/>
<path d="M183.873 52C187.829 52 190.489 49.6348 190.489 45.971C190.489 42.2609 187.829 39.9188 183.873 39.9188C179.917 39.9188 177.257 42.2609 177.257 45.971C177.257 49.6348 179.917 52 183.873 52ZM183.873 48.9159C181.513 48.9159 180.704 48.0116 180.704 45.971C180.704 43.9304 181.513 42.9797 183.873 42.9797C186.209 42.9797 187.042 43.9304 187.042 45.971C187.042 48.0116 186.209 48.9159 183.873 48.9159Z" fill="url(#paint1_linear_27_337)"/>
<path d="M196.694 52C199.748 52 201.159 50.1681 201.46 48.2203H201.645V51.7681H204.883V40.1507H201.413V46.0406C201.413 48.0116 200.604 48.8928 198.337 48.8928C196.139 48.8928 195.353 48.1043 195.353 46.2261V40.1507H191.883V47.3855C191.883 49.9826 193.433 52 196.694 52Z" fill="url(#paint2_linear_27_337)"/>
<path d="M210.127 51.7681V45.0435C210.127 43.5826 210.683 42.8638 212.233 42.8638C213.644 42.8638 214.153 43.4203 214.153 44.6957V45.9014H217.622V43.9768C217.622 41.7043 216.558 39.9188 213.968 39.9188C211.631 39.9188 210.405 41.3565 210.081 43.2348H209.873V40.1507H206.658V51.7681H210.127Z" fill="url(#paint3_linear_27_337)"/>
<path d="M224.732 52C228.317 52 230.469 50.5623 230.469 48.3826C230.469 46.458 229.312 45.4145 226.212 45.0667L223.737 44.7652C222.21 44.5797 221.886 44.3246 221.886 43.7217C221.886 42.9797 222.326 42.6783 224.061 42.6783C226.189 42.6783 226.652 43.1652 226.652 44.1159V44.2551H230.122V44.1855C230.122 41.3565 227.97 39.9188 224.176 39.9188C220.198 39.9188 218.463 41.542 218.463 43.5826C218.463 45.5304 219.758 46.5739 222.071 46.829L225.333 47.2232C226.698 47.4087 227.045 47.5942 227.045 48.2435C227.045 48.9391 226.605 49.2406 224.755 49.2406C222.788 49.2406 222.141 48.9623 222.141 47.9188V47.7101H218.671V47.7797C218.671 50.4696 220.822 52 224.732 52Z" fill="url(#paint4_linear_27_337)"/>
<path d="M238.022 52C241.7 52 244.152 50.2377 244.152 47.7101V47.4551H240.682V47.687C240.682 48.6841 239.965 49.2174 237.906 49.2174C235.662 49.2174 234.83 48.4522 234.737 46.6667H244.175C244.221 46.2725 244.268 45.971 244.268 45.5536C244.268 41.913 241.746 39.9188 237.952 39.9188C234.136 39.9188 231.522 42.2609 231.522 45.971C231.522 50.0986 234.159 52 238.022 52ZM237.883 42.6319C239.919 42.6319 240.844 43.3043 240.937 44.8348H234.783C234.945 43.3275 235.824 42.6319 237.883 42.6319Z" fill="url(#paint5_linear_27_337)"/>
<path d="M249.209 51.7681V45.971H258.508V42.8638H249.209V39.3623H258.855V36.2319H245.739V51.7681H249.209Z" fill="url(#paint6_linear_27_337)"/>
<path d="M263.803 51.7681V36.2319H260.333V51.7681H263.803Z" fill="url(#paint7_linear_27_337)"/>
<path d="M271.795 52C275.751 52 278.411 49.6348 278.411 45.971C278.411 42.2609 275.751 39.9188 271.795 39.9188C267.84 39.9188 265.179 42.2609 265.179 45.971C265.179 49.6348 267.84 52 271.795 52ZM271.795 48.9159C269.436 48.9159 268.626 48.0116 268.626 45.971C268.626 43.9304 269.436 42.9797 271.795 42.9797C274.132 42.9797 274.964 43.9304 274.964 45.971C274.964 48.0116 274.132 48.9159 271.795 48.9159Z" fill="url(#paint8_linear_27_337)"/>
<path d="M286.398 51.7681L288.411 46.1797L289.29 42.9797H289.544L290.4 46.1797L292.389 51.7681H296.715L300 40.1507H296.461L295.119 45.4609L294.61 49.0783H294.379L293.453 45.113L291.718 40.1507H287.254L285.496 45.113L284.57 49.0783H284.339L283.853 45.4609L282.489 40.1507H278.903L282.072 51.7681H286.398Z" fill="url(#paint9_linear_27_337)"/>
</g>
</g>
<defs>
<filter id="filter0_d_27_337" x="474" y="539" width="501" height="108" filterUnits="userSpaceOnUse" color-interpolation-filters="sRGB">
<feFlood flood-opacity="0" result="BackgroundImageFix"/>
<feColorMatrix in="SourceAlpha" type="matrix" values="0 0 0 0 0 0 0 0 0 0 0 0 0 0 0 0 0 0 127 0" result="hardAlpha"/>
<feOffset dx="4" dy="4"/>
<feGaussianBlur stdDeviation="12"/>
<feComposite in2="hardAlpha" operator="out"/>
<feColorMatrix type="matrix" values="0 0 0 0 0 0 0 0 0 0 0 0 0 0 0 0 0 0 0.08 0"/>
<feBlend mode="normal" in2="BackgroundImageFix" result="effect1_dropShadow_27_337"/>
<feBlend mode="normal" in="SourceGraphic" in2="effect1_dropShadow_27_337" result="shape"/>
</filter>
<filter id="filter1_d_27_337" x="-10" y="-10" width="1464" height="112" filterUnits="userSpaceOnUse" color-interpolation-filters="sRGB">
<feFlood flood-opacity="0" result="BackgroundImageFix"/>
<feColorMatrix in="SourceAlpha" type="matrix" values="0 0 0 0 0 0 0 0 0 0 0 0 0 0 0 0 0 0 127 0" result="hardAlpha"/>
<feOffset dx="2" dy="2"/>
<feGaussianBlur stdDeviation="6"/>
<feComposite in2="hardAlpha" operator="out"/>
<feColorMatrix type="matrix" values="0 0 0 0 0.249604 0 0 0 0 0.196181 0 0 0 0 0.520833 0 0 0 0.12 0"/>
<feBlend mode="normal" in2="BackgroundImageFix" result="effect1_dropShadow_27_337"/>
<feBlend mode="normal" in="SourceGraphic" in2="effect1_dropShadow_27_337" result="shape"/>
</filter>
<filter id="filter2_d_27_337" x="1148" y="-6" width="160" height="108" filterUnits="userSpaceOnUse" color-interpolation-filters="sRGB">
<feFlood flood-opacity="0" result="BackgroundImageFix"/>
<feColorMatrix in="SourceAlpha" type="matrix" values="0 0 0 0 0 0 0 0 0 0 0 0 0 0 0 0 0 0 127 0" result="hardAlpha"/>
<feOffset dx="4" dy="4"/>
<feGaussianBlur stdDeviation="12"/>
<feComposite in2="hardAlpha" operator="out"/>
<feColorMatrix type="matrix" values="0 0 0 0 0 0 0 0 0 0 0 0 0 0 0 0 0 0 0.08 0"/>
<feBlend mode="normal" in2="BackgroundImageFix" result="effect1_dropShadow_27_337"/>
<feBlend mode="normal" in="SourceGraphic" in2="effect1_dropShadow_27_337" result="shape"/>
</filter>
<linearGradient id="paint0_linear_27_337" x1="162.92" y1="46.1792" x2="176.653" y2="88.8293" gradientUnits="userSpaceOnUse">
<stop stop-color="#95BEFF"/>
<stop offset="1" stop-color="#0040E6"/>
</linearGradient>
<linearGradient id="paint1_linear_27_337" x1="162.92" y1="46.1792" x2="176.653" y2="88.8293" gradientUnits="userSpaceOnUse">
<stop stop-color="#95BEFF"/>
<stop offset="1" stop-color="#0040E6"/>
</linearGradient>
<linearGradient id="paint2_linear_27_337" x1="162.92" y1="46.1792" x2="176.653" y2="88.8293" gradientUnits="userSpaceOnUse">
<stop stop-color="#95BEFF"/>
<stop offset="1" stop-color="#0040E6"/>
</linearGradient>
<linearGradient id="paint3_linear_27_337" x1="162.92" y1="46.1792" x2="176.653" y2="88.8293" gradientUnits="userSpaceOnUse">
<stop stop-color="#95BEFF"/>
<stop offset="1" stop-color="#0040E6"/>
</linearGradient>
<linearGradient id="paint4_linear_27_337" x1="162.92" y1="46.1792" x2="176.653" y2="88.8293" gradientUnits="userSpaceOnUse">
<stop stop-color="#95BEFF"/>
<stop offset="1" stop-color="#0040E6"/>
</linearGradient>
<linearGradient id="paint5_linear_27_337" x1="162.92" y1="46.1792" x2="176.653" y2="88.8293" gradientUnits="userSpaceOnUse">
<stop stop-color="#95BEFF"/>
<stop offset="1" stop-color="#0040E6"/>
</linearGradient>
<linearGradient id="paint6_linear_27_337" x1="162.92" y1="46.1792" x2="176.653" y2="88.8293" gradientUnits="userSpaceOnUse">
<stop stop-color="#95BEFF"/>
<stop offset="1" stop-color="#0040E6"/>
</linearGradient>
<linearGradient id="paint7_linear_27_337" x1="162.92" y1="46.1792" x2="176.653" y2="88.8293" gradientUnits="userSpaceOnUse">
<stop stop-color="#95BEFF"/>
<stop offset="1" stop-color="#0040E6"/>
</linearGradient>
<linearGradient id="paint8_linear_27_337" x1="162.92" y1="46.1792" x2="176.653" y2="88.8293" gradientUnits="userSpaceOnUse">
<stop stop-color="#95BEFF"/>
<stop offset="1" stop-color="#0040E6"/>
</linearGradient>
<linearGradient id="paint9_linear_27_337" x1="162.92" y1="46.1792" x2="176.653" y2="88.8293" gradientUnits="userSpaceOnUse">
<stop stop-color="#95BEFF"/>
<stop offset="1" stop-color="#0040E6"/>
</linearGradient>
<clipPath id="clip0_27_337">
<rect width="1440" height="936" fill="white"/>
</clipPath>
<clipPath id="clip1_27_337">
<rect width="1440" height="88" fill="white"/>
</clipPath>
</defs>
</svg>
